<svg width="912" height="1064" xmlns="http://www.w3.org/2000/svg" xmlns:xlink="http://www.w3.org/1999/xlink" xml:space="preserve" overflow="hidden"><defs><clipPath id="clip0"><rect x="759" y="468" width="912" height="1064"/></clipPath><clipPath id="clip1"><rect x="927" y="467" width="744" height="987"/></clipPath><clipPath id="clip2"><rect x="927" y="467" width="744" height="987"/></clipPath><clipPath id="clip3"><rect x="804" y="467" width="867" height="1091"/></clipPath></defs><g clip-path="url(#clip0)" transform="translate(-759 -468)"><g clip-path="url(#clip1)"><g clip-path="url(#clip2)"><g clip-path="url(#clip3)"><path d="M-86.6393-108.987 953.032-108.987 953.032 1198.85-86.6392 1198.85Z" fill="#FFFFFF" transform="matrix(1 0 0 1 804.604 468)"/><g><path d="M140.625 842.42 847.551 842.42" stroke="#EBEBEB" stroke-width="1.83417" stroke-linejoin="round" stroke-miterlimit="10" fill="none" transform="matrix(1 0 0 1 804.604 468)"/></g><g><path d="M140.625 669.026 847.551 669.026" stroke="#EBEBEB" stroke-width="1.83417" stroke-linejoin="round" stroke-miterlimit="10" fill="none" transform="matrix(1 0 0 1 804.604 468)"/></g><g><path d="M140.625 495.646 847.551 495.646" stroke="#EBEBEB" stroke-width="1.83417" stroke-linejoin="round" stroke-miterlimit="10" fill="none" transform="matrix(1 0 0 1 804.604 468)"/></g><g><path d="M140.625 322.265 847.551 322.265" stroke="#EBEBEB" stroke-width="1.83417" stroke-linejoin="round" stroke-miterlimit="10" fill="none" transform="matrix(1 0 0 1 804.604 468)"/></g><g><path d="M140.625 148.871 847.551 148.871" stroke="#EBEBEB" stroke-width="1.83417" stroke-linejoin="round" stroke-miterlimit="10" fill="none" transform="matrix(1 0 0 1 804.604 468)"/></g><g><path d="M140.625 929.111 847.551 929.111" stroke="#EBEBEB" stroke-width="3.66834" stroke-linejoin="round" stroke-miterlimit="10" fill="none" transform="matrix(1 0 0 1 804.604 468)"/></g><g><path d="M140.625 755.73 847.551 755.73" stroke="#EBEBEB" stroke-width="3.66834" stroke-linejoin="round" stroke-miterlimit="10" fill="none" transform="matrix(1 0 0 1 804.604 468)"/></g><g><path d="M140.625 582.336 847.551 582.336" stroke="#EBEBEB" stroke-width="3.66834" stroke-linejoin="round" stroke-miterlimit="10" fill="none" transform="matrix(1 0 0 1 804.604 468)"/></g><g><path d="M140.625 408.955 847.551 408.955" stroke="#EBEBEB" stroke-width="3.66834" stroke-linejoin="round" stroke-miterlimit="10" fill="none" transform="matrix(1 0 0 1 804.604 468)"/></g><g><path d="M140.625 235.575 847.551 235.575" stroke="#EBEBEB" stroke-width="3.66834" stroke-linejoin="round" stroke-miterlimit="10" fill="none" transform="matrix(1 0 0 1 804.604 468)"/></g><g><path d="M140.625 62.1807 847.551 62.1807" stroke="#EBEBEB" stroke-width="3.66834" stroke-linejoin="round" stroke-miterlimit="10" fill="none" transform="matrix(1 0 0 1 804.604 468)"/></g><g><path d="M333.425 972.449 333.425 18.8422" stroke="#EBEBEB" stroke-width="3.66834" stroke-linejoin="round" stroke-miterlimit="10" fill="none" transform="matrix(1 0 0 1 804.604 468)"/></g><g><path d="M654.75 972.449 654.75 18.8422" stroke="#EBEBEB" stroke-width="3.66834" stroke-linejoin="round" stroke-miterlimit="10" fill="none" transform="matrix(1 0 0 1 804.604 468)"/></g><path d="M188.825 929.111 478.026 929.111 478.026 519.699 188.825 519.699Z" stroke="#000000" stroke-width="3.66834" stroke-miterlimit="10" fill="#BEBEBE" transform="matrix(1 0 0 1 804.604 468)"/><path d="M510.15 929.111 799.351 929.111 799.351 548.036 510.15 548.036Z" stroke="#000000" stroke-width="3.66834" stroke-miterlimit="10" fill="#BEBEBE" transform="matrix(1 0 0 1 804.604 468)"/><path d="M301.287 330.417 365.55 330.417" stroke="#000000" stroke-width="7.33669" stroke-linejoin="round" stroke-miterlimit="10" fill="none" transform="matrix(1 0 0 1 804.604 468)"/><path d="M333.425 330.417 333.425 708.967" stroke="#000000" stroke-width="7.33669" stroke-linejoin="round" stroke-miterlimit="10" fill="none" transform="matrix(1 0 0 1 804.604 468)"/><path d="M301.287 708.967 365.55 708.967" stroke="#000000" stroke-width="7.33669" stroke-linejoin="round" stroke-miterlimit="10" fill="none" transform="matrix(1 0 0 1 804.604 468)"/><path d="M622.626 385.386 686.888 385.386" stroke="#000000" stroke-width="7.33669" stroke-linejoin="round" stroke-miterlimit="10" fill="none" transform="matrix(1 0 0 1 804.604 468)"/><path d="M654.75 385.386 654.75 710.686" stroke="#000000" stroke-width="7.33669" stroke-linejoin="round" stroke-miterlimit="10" fill="none" transform="matrix(1 0 0 1 804.604 468)"/><path d="M622.626 710.686 686.888 710.686" stroke="#000000" stroke-width="7.33669" stroke-linejoin="round" stroke-miterlimit="10" fill="none" transform="matrix(1 0 0 1 804.604 468)"/><g><path d="M140.625 972.449 847.564 972.449 847.564 18.8288 140.625 18.8288Z" stroke="#000000" stroke-width="5.50252" stroke-linecap="round" stroke-linejoin="round" stroke-miterlimit="10" fill="none" transform="matrix(1 0 0 1 804.604 468)"/></g><path d="M8.32657-21.864C6.33894-21.864 4.51246-20.9507 3.38435-19.5003 1.98763-17.5664 1.28928-14.6118 1.28928-10.5828 1.28928-3.22319 3.70667 0.698357 8.32657 0.698357 12.839 0.698357 15.3101-3.22319 15.3101-10.4216 15.3101-14.6118 14.6655-17.4589 13.2688-19.5003 12.1407-21.0044 10.3679-21.864 8.32657-21.864ZM8.32657-19.5003C11.1737-19.5003 12.6242-16.5994 12.6242-10.6365 12.6242-4.40502 11.2274-1.50415 8.27285-1.50415 5.4257-1.50415 4.02898-4.51246 4.02898-10.5291 4.02898-16.5994 5.4257-19.5003 8.32657-19.5003Z" fill="#4D4D4D" transform="matrix(1 0 0 1 911.077 1407.13)"/><path d="M15.3101-2.63227 4.02898-2.63227C4.29758-4.45874 5.26454-5.58686 7.89681-7.19845L10.9051-8.91749C13.9134-10.5291 15.4713-12.7853 15.4713-15.4713 15.4713-17.2978 14.7192-19.0168 13.4837-20.1986 12.1944-21.3268 10.6365-21.864 8.59517-21.864 5.85546-21.864 3.86783-20.897 2.68599-19.0168 1.88019-17.8887 1.55787-16.492 1.50415-14.2895L4.19014-14.2895C4.24386-15.7936 4.45874-16.6531 4.83478-17.4052 5.47942-18.6945 6.87613-19.554 8.48773-19.554 10.9051-19.554 12.7316-17.7813 12.7316-15.4176 12.7316-13.6448 11.7109-12.1407 9.83072-11.0663L7.03729-9.45468C2.57855-6.87613 1.28928-4.83478 1.02068-0.0537198L15.3101-0.0537198Z" fill="#4D4D4D" transform="matrix(1 0 0 1 893.887 1233.75)"/><path d="M8.32657-21.864C6.33894-21.864 4.51246-20.9507 3.38435-19.5003 1.98763-17.5664 1.28928-14.6118 1.28928-10.5828 1.28928-3.22319 3.70667 0.698357 8.32657 0.698357 12.839 0.698357 15.3101-3.22319 15.3101-10.4216 15.3101-14.6118 14.6655-17.4589 13.2688-19.5003 12.1407-21.0044 10.3679-21.864 8.32657-21.864ZM8.32657-19.5003C11.1737-19.5003 12.6242-16.5994 12.6242-10.6365 12.6242-4.40502 11.2274-1.50415 8.27285-1.50415 5.4257-1.50415 4.02898-4.51246 4.02898-10.5291 4.02898-16.5994 5.4257-19.5003 8.32657-19.5003Z" fill="#4D4D4D" transform="matrix(1 0 0 1 911.077 1233.75)"/><path d="M9.88444-5.31826 9.88444 0 12.5704 0 12.5704-5.31826 15.7399-5.31826 15.7399-7.68193 12.5704-7.68193 12.5704-21.864 10.5828-21.864 0.859517-8.11169 0.859517-5.31826ZM9.88444-7.68193 3.16947-7.68193 9.88444-17.3515Z" fill="#4D4D4D" transform="matrix(1 0 0 1 893.887 1060.36)"/><path d="M8.32657-21.864C6.33894-21.864 4.51246-20.9507 3.38435-19.5003 1.98763-17.5664 1.28928-14.6118 1.28928-10.5828 1.28928-3.22319 3.70667 0.698357 8.32657 0.698357 12.839 0.698357 15.3101-3.22319 15.3101-10.4216 15.3101-14.6118 14.6655-17.4589 13.2688-19.5003 12.1407-21.0044 10.3679-21.864 8.32657-21.864ZM8.32657-19.5003C11.1737-19.5003 12.6242-16.5994 12.6242-10.6365 12.6242-4.40502 11.2274-1.50415 8.27285-1.50415 5.4257-1.50415 4.02898-4.51246 4.02898-10.5291 4.02898-16.5994 5.4257-19.5003 8.32657-19.5003Z" fill="#4D4D4D" transform="matrix(1 0 0 1 911.077 1060.36)"/><path d="M15.0415-16.1697C14.5581-19.7689 12.2481-21.864 8.97121-21.864 6.60753-21.864 4.51246-20.7358 3.22319-18.7482 1.88019-16.5994 1.28928-13.9671 1.28928-9.99188 1.28928-6.28522 1.82647-3.97527 3.11575-2.04135 4.24386-0.268599 6.12406 0.698357 8.48773 0.698357 12.5704 0.698357 15.525-2.36367 15.525-6.60753 15.525-10.6365 12.7853-13.4837 8.97121-13.4837 6.82241-13.4837 5.1571-12.6779 4.02898-11.12 4.02898-16.492 5.74802-19.5003 8.81005-19.5003 10.6902-19.5003 11.9795-18.3185 12.4093-16.1697ZM8.59517-11.12C11.1737-11.12 12.7853-9.29352 12.7853-6.39266 12.7853-3.65295 10.9588-1.66531 8.54145-1.66531 6.07034-1.66531 4.19014-3.76039 4.19014-6.55382 4.19014-9.23981 5.9629-11.12 8.59517-11.12Z" fill="#4D4D4D" transform="matrix(1 0 0 1 893.887 886.977)"/><path d="M8.32657-21.864C6.33894-21.864 4.51246-20.9507 3.38435-19.5003 1.98763-17.5664 1.28928-14.6118 1.28928-10.5828 1.28928-3.22319 3.70667 0.698357 8.32657 0.698357 12.839 0.698357 15.3101-3.22319 15.3101-10.4216 15.3101-14.6118 14.6655-17.4589 13.2688-19.5003 12.1407-21.0044 10.3679-21.864 8.32657-21.864ZM8.32657-19.5003C11.1737-19.5003 12.6242-16.5994 12.6242-10.6365 12.6242-4.40502 11.2274-1.50415 8.27285-1.50415 5.4257-1.50415 4.02898-4.51246 4.02898-10.5291 4.02898-16.5994 5.4257-19.5003 8.32657-19.5003Z" fill="#4D4D4D" transform="matrix(1 0 0 1 911.077 886.977)"/><path d="M11.8184-11.5498C14.0746-12.8928 14.7729-13.9671 14.7729-16.0085 14.7729-19.5003 12.1407-21.864 8.32657-21.864 4.51246-21.864 1.88019-19.5003 1.88019-16.0622 1.88019-13.9671 2.57855-12.8928 4.78106-11.5498 2.30995-10.2605 1.12812-8.48773 1.12812-6.07034 1.12812-2.09507 4.02898 0.698357 8.32657 0.698357 12.5704 0.698357 15.525-2.09507 15.525-6.07034 15.525-8.48773 14.2895-10.2605 11.8184-11.5498ZM8.32657-19.5003C10.5828-19.5003 12.0332-18.1573 12.0332-15.9548 12.0332-13.9134 10.5291-12.5704 8.32657-12.5704 6.07034-12.5704 4.6199-13.9134 4.6199-16.0085 4.6199-18.1573 6.07034-19.5003 8.32657-19.5003ZM8.32657-10.3142C10.9588-10.3142 12.7853-8.54145 12.7853-6.01662 12.7853-3.38435 11.0126-1.66531 8.27285-1.66531 5.64058-1.66531 3.86783-3.43807 3.86783-5.9629 3.86783-8.59517 5.64058-10.3142 8.32657-10.3142Z" fill="#4D4D4D" transform="matrix(1 0 0 1 893.887 713.597)"/><path d="M8.32657-21.864C6.33894-21.864 4.51246-20.9507 3.38435-19.5003 1.98763-17.5664 1.28928-14.6118 1.28928-10.5828 1.28928-3.22319 3.70667 0.698357 8.32657 0.698357 12.839 0.698357 15.3101-3.22319 15.3101-10.4216 15.3101-14.6118 14.6655-17.4589 13.2688-19.5003 12.1407-21.0044 10.3679-21.864 8.32657-21.864ZM8.32657-19.5003C11.1737-19.5003 12.6242-16.5994 12.6242-10.6365 12.6242-4.40502 11.2274-1.50415 8.27285-1.50415 5.4257-1.50415 4.02898-4.51246 4.02898-10.5291 4.02898-16.5994 5.4257-19.5003 8.32657-19.5003Z" fill="#4D4D4D" transform="matrix(1 0 0 1 911.077 713.597)"/><path d="M7.84309-15.5787 7.84309 0 10.4754 0 10.4754-21.864 8.75633-21.864C7.78937-18.5333 7.19845-18.0499 3.06203-17.5127L3.06203-15.5787Z" fill="#4D4D4D" transform="matrix(1 0 0 1 876.697 540.203)"/><path d="M8.32657-21.864C6.33894-21.864 4.51246-20.9507 3.38435-19.5003 1.98763-17.5664 1.28928-14.6118 1.28928-10.5828 1.28928-3.22319 3.70667 0.698357 8.32657 0.698357 12.839 0.698357 15.3101-3.22319 15.3101-10.4216 15.3101-14.6118 14.6655-17.4589 13.2688-19.5003 12.1407-21.0044 10.3679-21.864 8.32657-21.864ZM8.32657-19.5003C11.1737-19.5003 12.6242-16.5994 12.6242-10.6365 12.6242-4.40502 11.2274-1.50415 8.27285-1.50415 5.4257-1.50415 4.02898-4.51246 4.02898-10.5291 4.02898-16.5994 5.4257-19.5003 8.32657-19.5003Z" fill="#4D4D4D" transform="matrix(1 0 0 1 893.887 540.203)"/><path d="M8.32657-21.864C6.33894-21.864 4.51246-20.9507 3.38435-19.5003 1.98763-17.5664 1.28928-14.6118 1.28928-10.5828 1.28928-3.22319 3.70667 0.698357 8.32657 0.698357 12.839 0.698357 15.3101-3.22319 15.3101-10.4216 15.3101-14.6118 14.6655-17.4589 13.2688-19.5003 12.1407-21.0044 10.3679-21.864 8.32657-21.864ZM8.32657-19.5003C11.1737-19.5003 12.6242-16.5994 12.6242-10.6365 12.6242-4.40502 11.2274-1.50415 8.27285-1.50415 5.4257-1.50415 4.02898-4.51246 4.02898-10.5291 4.02898-16.5994 5.4257-19.5003 8.32657-19.5003Z" fill="#4D4D4D" transform="matrix(1 0 0 1 911.077 540.203)"/><path d="M131.197 929.111 140.625 929.111" stroke="#333333" stroke-width="3.66834" stroke-linejoin="round" stroke-miterlimit="10" fill="none" transform="matrix(1 0 0 1 804.604 468)"/><path d="M131.197 755.73 140.625 755.73" stroke="#333333" stroke-width="3.66834" stroke-linejoin="round" stroke-miterlimit="10" fill="none" transform="matrix(1 0 0 1 804.604 468)"/><path d="M131.197 582.336 140.625 582.336" stroke="#333333" stroke-width="3.66834" stroke-linejoin="round" stroke-miterlimit="10" fill="none" transform="matrix(1 0 0 1 804.604 468)"/><path d="M131.197 408.955 140.625 408.955" stroke="#333333" stroke-width="3.66834" stroke-linejoin="round" stroke-miterlimit="10" fill="none" transform="matrix(1 0 0 1 804.604 468)"/><path d="M131.197 235.575 140.625 235.575" stroke="#333333" stroke-width="3.66834" stroke-linejoin="round" stroke-miterlimit="10" fill="none" transform="matrix(1 0 0 1 804.604 468)"/><path d="M131.197 62.1807 140.625 62.1807" stroke="#333333" stroke-width="3.66834" stroke-linejoin="round" stroke-miterlimit="10" fill="none" transform="matrix(1 0 0 1 804.604 468)"/><path d="M333.425 981.877 333.425 972.449" stroke="#333333" stroke-width="3.66834" stroke-linejoin="round" stroke-miterlimit="10" fill="none" transform="matrix(1 0 0 1 804.604 468)"/><path d="M654.75 981.877 654.75 972.449" stroke="#333333" stroke-width="3.66834" stroke-linejoin="round" stroke-miterlimit="10" fill="none" transform="matrix(1 0 0 1 804.604 468)"/><path d="M14.9878-22.0251 12.463-22.0251 12.463-13.8597C11.3886-15.4713 9.72328-16.2771 7.57449-16.2771 3.49179-16.2771 0.805797-13.0002 0.805797-7.95053 0.805797-2.57855 3.38435 0.698357 7.68193 0.698357 9.88444 0.698357 11.3886-0.10744 12.7316-2.09507L12.7316 0 14.9878 0ZM8.00425-13.9671C10.744-13.9671 12.463-11.5498 12.463-7.73565 12.463-4.0827 10.6902-1.66531 8.05797-1.66531 5.26454-1.66531 3.43807-4.13642 3.43807-7.78937 3.43807-11.496 5.26454-13.9671 8.00425-13.9671Z" fill="#4D4D4D" transform="matrix(1 0 0 1 1108.81 1479.47)"/><path d="M2.09507-15.8473 2.09507 0 4.67362 0 4.67362-9.93816C4.67362-12.2481 6.33894-14.0746 8.38029-14.0746 10.2605-14.0746 11.3349-12.9465 11.3349-10.9051L11.3349 0 13.8597 0 13.8597-9.93816C13.8597-12.2481 15.525-14.0746 17.5664-14.0746 19.3928-14.0746 20.521-12.8928 20.521-10.9051L20.521 0 23.0458 0 23.0458-11.8721C23.0458-14.7192 21.4342-16.2771 18.4259-16.2771 16.3308-16.2771 15.0415-15.6862 13.5911-13.8597 12.6242-15.5787 11.3886-16.2771 9.29352-16.2771 7.19845-16.2771 5.80174-15.525 4.45874-13.5911L4.45874-15.8473Z" fill="#4D4D4D" transform="matrix(1 0 0 1 1126 1479.47)"/><path d="M16.1697-1.50415C15.9011-1.39671 15.7936-1.39671 15.6325-1.39671 14.7729-1.39671 14.2895-1.88019 14.2895-2.68599L14.2895-11.9795C14.2895-14.7729 12.1944-16.2771 8.32657-16.2771 5.9629-16.2771 4.13642-15.6325 3.06203-14.4506 2.30995-13.6448 2.04135-12.7316 1.98763-11.1737L4.51246-11.1737C4.72734-13.1076 5.85546-13.9671 8.21913-13.9671 10.5291-13.9671 11.7646-13.1076 11.7646-11.6035L11.7646-10.9588C11.7109-9.88444 11.1737-9.45468 9.13237-9.18608 5.58686-8.75633 4.99594-8.59517 4.02898-8.21913 2.20251-7.41333 1.28928-6.07034 1.28928-3.97527 1.28928-1.12812 3.27691 0.698357 6.44638 0.698357 8.48773 0.698357 10.0456 0 11.8721-1.61159 12.0332 0 12.839 0.698357 14.4506 0.698357 14.9878 0.698357 15.3101 0.644638 16.1697 0.429758ZM11.7646-4.99594C11.7646-4.13642 11.5498-3.65295 10.744-2.95459 9.72328-1.98763 8.48773-1.50415 7.03729-1.50415 5.04966-1.50415 3.92155-2.47111 3.92155-4.02898 3.92155-5.6943 4.99594-6.55382 7.73565-6.92985 10.4216-7.30589 10.9051-7.41333 11.7646-7.84309Z" fill="#4D4D4D" transform="matrix(1 0 0 1 1150.06 1479.47)"/><path d="M16.1697-1.50415C15.9011-1.39671 15.7936-1.39671 15.6325-1.39671 14.7729-1.39671 14.2895-1.88019 14.2895-2.68599L14.2895-11.9795C14.2895-14.7729 12.1944-16.2771 8.32657-16.2771 5.9629-16.2771 4.13642-15.6325 3.06203-14.4506 2.30995-13.6448 2.04135-12.7316 1.98763-11.1737L4.51246-11.1737C4.72734-13.1076 5.85546-13.9671 8.21913-13.9671 10.5291-13.9671 11.7646-13.1076 11.7646-11.6035L11.7646-10.9588C11.7109-9.88444 11.1737-9.45468 9.13237-9.18608 5.58686-8.75633 4.99594-8.59517 4.02898-8.21913 2.20251-7.41333 1.28928-6.07034 1.28928-3.97527 1.28928-1.12812 3.27691 0.698357 6.44638 0.698357 8.48773 0.698357 10.0456 0 11.8721-1.61159 12.0332 0 12.839 0.698357 14.4506 0.698357 14.9878 0.698357 15.3101 0.644638 16.1697 0.429758ZM11.7646-4.99594C11.7646-4.13642 11.5498-3.65295 10.744-2.95459 9.72328-1.98763 8.48773-1.50415 7.03729-1.50415 5.04966-1.50415 3.92155-2.47111 3.92155-4.02898 3.92155-5.6943 4.99594-6.55382 7.73565-6.92985 10.4216-7.30589 10.9051-7.41333 11.7646-7.84309Z" fill="#4D4D4D" transform="matrix(1 0 0 1 1416.38 1479.47)"/><path d="M12.1944-15.8473 12.1944-13.5374C10.9588-15.4713 9.56212-16.2771 7.57449-16.2771 3.70667-16.2771 1.0744-12.7316 1.0744-7.62821 1.0744-4.99594 1.71903-3.06203 3.06203-1.45043 4.24386-0.0537198 5.74802 0.698357 7.35961 0.698357 9.29352 0.698357 10.6365-0.161159 11.9795-2.14879L11.9795-1.34299C11.9795 2.90087 10.7977 4.45874 7.62821 4.45874 5.47942 4.45874 4.40502 3.65295 4.13642 1.82647L1.55787 1.82647C1.82647 4.72734 4.13642 6.60753 7.57449 6.60753 9.93816 6.60753 11.8721 5.85546 12.8928 4.56618 14.0746 3.06203 14.5581 1.12812 14.5581-2.57855L14.5581-15.8473ZM7.78937-13.9671C10.4754-13.9671 11.9795-11.7109 11.9795-7.73565 11.9795-3.86783 10.4216-1.61159 7.78937-1.61159 5.21082-1.61159 3.70667-3.92155 3.70667-7.78937 3.70667-11.6572 5.21082-13.9671 7.78937-13.9671Z" fill="#4D4D4D" transform="matrix(1 0 0 1 1433.57 1479.47)"/><path d="M15.525-7.09101C15.525-9.5084 15.3101-10.9588 14.8804-12.1407 13.8597-14.7192 11.4423-16.2771 8.48773-16.2771 4.02898-16.2771 1.23556-12.9465 1.23556-7.73565 1.23556-2.47111 3.92155 0.698357 8.43401 0.698357 12.0332 0.698357 14.5581-1.34299 15.2027-4.83478L12.6242-4.83478C11.9258-2.73971 10.5291-1.61159 8.48773-1.61159 6.87613-1.61159 5.53314-2.36367 4.67362-3.70667 4.0827-4.6199 3.86783-5.47942 3.86783-7.09101ZM3.92155-9.13237C4.13642-12.087 5.90918-13.9671 8.43401-13.9671 11.0126-13.9671 12.7853-11.9795 12.7853-9.13237Z" fill="#4D4D4D" transform="matrix(1 0 0 1 1450.76 1479.47)"/><path d="M15.0415-16.1697C14.5581-19.7689 12.2481-21.864 8.97121-21.864 6.60753-21.864 4.51246-20.7358 3.22319-18.7482 1.88019-16.5994 1.28928-13.9671 1.28928-9.99188 1.28928-6.28522 1.82647-3.97527 3.11575-2.04135 4.24386-0.268599 6.12406 0.698357 8.48773 0.698357 12.5704 0.698357 15.525-2.36367 15.525-6.60753 15.525-10.6365 12.7853-13.4837 8.97121-13.4837 6.82241-13.4837 5.1571-12.6779 4.02898-11.12 4.02898-16.492 5.74802-19.5003 8.81005-19.5003 10.6902-19.5003 11.9795-18.3185 12.4093-16.1697ZM8.59517-11.12C11.1737-11.12 12.7853-9.29352 12.7853-6.39266 12.7853-3.65295 10.9588-1.66531 8.54145-1.66531 6.07034-1.66531 4.19014-3.76039 4.19014-6.55382 4.19014-9.23981 5.9629-11.12 8.59517-11.12Z" fill="#4D4D4D" transform="matrix(1 0 0 1 1467.95 1479.47)"/><path d="M14.3969-21.4342 3.33063-21.4342 1.71903-9.777 4.19014-9.777C5.4257-11.2274 6.44638-11.7646 8.11169-11.7646 11.0126-11.7646 12.7853-9.777 12.7853-6.60753 12.7853-3.54551 11.0126-1.66531 8.11169-1.66531 5.80174-1.66531 4.3513-2.84715 3.70667-5.26454L1.0744-5.26454C1.39671-3.49179 1.71903-2.68599 2.36367-1.88019 3.54551-0.268599 5.74802 0.698357 8.16541 0.698357 12.5167 0.698357 15.525-2.47111 15.525-6.98357 15.525-11.2274 12.6779-14.1283 8.59517-14.1283 7.09101-14.1283 5.85546-13.7523 4.6199-12.839L5.47942-18.8019 14.3969-18.8019Z" fill="#4D4D4D" transform="matrix(1 0 0 1 1485.14 1479.47)"/><path d="M2.04135 8.21913 5.21082 8.21913 5.21082-2.09507C6.87613-0.0537198 8.75633 0.859517 11.2812 0.859517 16.4383 0.859517 19.7689-3.27691 19.7689-9.56212 19.7689-16.2234 16.5457-20.3598 11.2812-20.3598 8.59517-20.3598 6.44638-19.178 4.94222-16.8143L4.94222-19.8226 2.04135-19.8226ZM10.744-17.4589C14.2357-17.4589 16.492-14.3969 16.492-9.66956 16.492-5.1571 14.182-2.09507 10.744-2.09507 7.35961-2.09507 5.21082-5.10338 5.21082-9.777 5.21082-14.3969 7.35961-17.4589 10.744-17.4589Z" transform="matrix(1 0 0 1 1260.87 1525.34)"/><path d="M2.63227-19.8226 2.63227 0 5.80174 0 5.80174-10.2605C5.80174-15.0415 7.78937-17.1903 12.1407-17.0829L12.1407-20.2524C11.6035-20.3598 11.2812-20.3598 10.9051-20.3598 8.86377-20.3598 7.35961-19.178 5.53314-16.2234L5.53314-19.8226Z" transform="matrix(1 0 0 1 1281.5 1525.34)"/><path d="M19.3928-8.86377C19.3928-11.8721 19.178-13.6985 18.587-15.149 17.2978-18.4259 14.2895-20.3598 10.5828-20.3598 5.04966-20.3598 1.50415-16.1697 1.50415-9.66956 1.50415-3.11575 4.94222 0.859517 10.5291 0.859517 15.0415 0.859517 18.211-1.71903 18.9631-6.01662L15.7936-6.01662C14.9341-3.38435 13.1614-2.04135 10.6365-2.04135 8.64889-2.04135 6.92985-2.95459 5.85546-4.6199 5.10338-5.74802 4.83478-6.87613 4.78106-8.86377ZM4.8885-11.4423C5.1571-15.0953 7.35961-17.4589 10.5291-17.4589 13.7523-17.4589 16.0085-14.9878 16.0085-11.4423Z" transform="matrix(1 0 0 1 1295.26 1525.34)"/><path d="M18.6945-27.5583 15.5787-27.5583 15.5787-17.2978C14.2357-19.3391 12.1407-20.3598 9.5084-20.3598 4.3513-20.3598 0.966956-16.2771 0.966956-9.93816 0.966956-3.27691 4.24386 0.859517 9.61584 0.859517 12.3556 0.859517 14.2357-0.161159 15.9011-2.63227L15.9011 0 18.6945 0ZM10.0456-17.4589C13.4299-17.4589 15.5787-14.4506 15.5787-9.66956 15.5787-5.10338 13.3762-2.09507 10.0456-2.09507 6.55382-2.09507 4.29758-5.1571 4.29758-9.777 4.29758-14.3969 6.55382-17.4589 10.0456-17.4589Z" transform="matrix(1 0 0 1 1315.88 1525.34)"/><path d="M-19.8226-2.63227 0-2.63227 0-5.80174-12.463-5.80174C-15.3101-5.80174-17.6201-7.89681-17.6201-10.4754-17.6201-12.839-16.1697-14.1283-13.6448-14.1283L0-14.1283 0-17.2978-12.463-17.2978C-15.3101-17.2978-17.6201-19.3928-17.6201-21.9714-17.6201-24.2813-16.1697-25.6243-13.6448-25.6243L0-25.6243 0-28.7938-14.8804-28.7938C-18.4259-28.7938-20.3598-26.7525-20.3598-23.0458-20.3598-20.4135-19.6077-18.8556-17.3515-16.9755-19.5003-15.7936-20.3598-14.2357-20.3598-11.6572-20.3598-9.02493-19.3928-7.19845-17.0292-5.53314L-19.8226-5.53314Z" transform="matrix(1 0 0 1 851.015 1044.44)"/><path d="M-8.86377-19.3928C-11.8721-19.3928-13.6985-19.178-15.149-18.587-18.4259-17.2978-20.3598-14.2895-20.3598-10.5828-20.3598-5.04966-16.1697-1.50415-9.66956-1.50415-3.11575-1.50415 0.859517-4.94222 0.859517-10.5291 0.859517-15.0415-1.71903-18.211-6.01662-18.9631L-6.01662-15.7936C-3.38435-14.9341-2.04135-13.1614-2.04135-10.6365-2.04135-8.64889-2.95459-6.92985-4.6199-5.85546-5.74802-5.10338-6.87613-4.83478-8.86377-4.78106ZM-11.4423-4.8885C-15.0953-5.1571-17.4589-7.35961-17.4589-10.5291-17.4589-13.7523-14.9878-16.0085-11.4423-16.0085Z" transform="matrix(1 0 0 1 851.015 1013.5)"/><path d="M-1.82647-20.2524C-1.77275-19.8763-1.77275-19.7152-1.77275-19.554-1.77275-18.4796-2.36367-17.835-3.33063-17.835L-14.9878-17.835C-18.4796-17.835-20.3598-15.2564-20.3598-10.4216-20.3598-7.46705-19.554-5.1571-18.1036-3.81411-17.0829-2.90087-15.9011-2.52483-13.9671-2.47111L-13.9671-5.64058C-16.3845-5.90918-17.4589-7.35961-17.4589-10.2605-17.4589-13.1614-16.4383-14.7192-14.5043-14.7192L-13.6985-14.7192C-12.3556-14.6655-11.8184-13.9671-11.496-11.4423-10.9051-6.98357-10.7977-6.28522-10.2605-5.04966-9.29352-2.73971-7.57449-1.61159-4.99594-1.61159-1.39671-1.61159 0.859517-4.0827 0.859517-8.11169 0.859517-10.5828 0-12.5704-2.04135-14.8267 0-15.0415 0.859517-16.0085 0.859517-18.1036 0.859517-18.7482 0.805797-19.178 0.537198-20.2524ZM-6.2315-14.7192C-5.1571-14.7192-4.51246-14.3969-3.65295-13.4837-2.47111-12.1944-1.88019-10.6365-1.88019-8.75633-1.88019-6.33894-3.06203-4.8885-5.04966-4.8885-7.14473-4.8885-8.21913-6.2315-8.70261-9.66956-9.13237-13.0002-9.29352-13.6448-9.777-14.7192Z" transform="matrix(1 0 0 1 851.015 992.869)"/><path d="M-19.8226-2.63227 0-2.63227 0-5.80174-10.9051-5.80174C-14.9878-5.80174-17.6201-7.95053-17.6201-11.1737-17.6201-13.6985-16.1159-15.2564-13.7523-15.2564L0-15.2564 0-18.4259-14.9878-18.4259C-18.2647-18.4259-20.3598-15.9548-20.3598-12.1407-20.3598-9.18608-19.2317-7.30589-16.492-5.53314L-19.8226-5.53314Z" transform="matrix(1 0 0 1 851.015 972.241)"/><path d="M4.78106-21.864 4.78106 0.805797 6.66125 0.805797 6.66125-21.864Z" transform="matrix(1 0 0 1 851.015 951.612)"/><path d="M-11.8721-7.03729-11.8721-16.1159C-11.8721-19.2317-10.3679-20.6284-6.98357-20.6284L-4.51246-20.6284C-2.79343-20.6284-1.12812-20.897 0-21.3805L0-25.6781-0.859517-25.6781C-1.77275-24.3351-2.73971-24.0665-6.44638-24.0127-10.9588-23.959-12.3556-23.2607-13.5911-20.2524-15.149-23.3681-17.0292-24.6037-20.1986-24.6037-24.9797-24.6037-27.5583-21.6491-27.5583-16.2234L-27.5583-3.49179 0-3.49179 0-7.03729ZM-14.9878-7.03729-24.4425-7.03729-24.4425-15.525C-24.4425-17.5127-24.1739-18.6408-23.4218-19.5003-22.616-20.4672-21.3805-20.9507-19.7152-20.9507-16.4383-20.9507-14.9878-19.2854-14.9878-15.525Z" transform="matrix(1 0 0 1 851.015 930.984)"/><path d="M-3.27691-19.1242-3.27691-5.04966C-5.53314-5.37198-6.98357-6.55382-9.02493-9.88444L-11.12-13.6448C-13.2151-17.4052-16.0085-19.3391-19.3391-19.3391-21.6491-19.3391-23.7442-18.4259-25.2483-16.8143-26.645-15.2564-27.3434-13.2688-27.3434-10.744-27.3434-7.35961-26.1078-4.78106-23.7979-3.33063-22.3474-2.36367-20.6284-1.98763-17.8887-1.88019L-17.8887-5.21082C-19.7152-5.31826-20.8433-5.53314-21.7565-6.01662-23.4218-6.87613-24.4425-8.64889-24.4425-10.6365-24.4425-13.6448-22.24-15.9011-19.2854-15.9011-17.0829-15.9011-15.2027-14.6655-13.8597-12.3018L-11.8184-8.81005C-8.59517-3.22319-6.01662-1.61159-0.0537198-1.28928L-0.0537198-19.1242Z" transform="matrix(1 0 0 1 851.015 903.479)"/></g></g></g><text font-family="Cambria Math,Cambria Math_MSFontService,sans-serif" font-weight="400" font-size="41" transform="matrix(-1.83697e-16 -1 1 -1.83697e-16 815.628 1011)">𝑹</text><text font-family="Cambria Math,Cambria Math_MSFontService,sans-serif" font-weight="400" font-size="30" transform="matrix(-1.83697e-16 -1 1 -1.83697e-16 800.526 983)">𝟐</text><text font-family="Cambria Math,Cambria Math_MSFontService,sans-serif" font-weight="400" font-size="41" transform="matrix(-1.83697e-16 -1 1 -1.83697e-16 815.628 963)"> </text><text font-family="Cambria Math,Cambria Math_MSFontService,sans-serif" font-weight="400" font-size="41" transform="matrix(-1.83697e-16 -1 1 -1.83697e-16 815.628 954)">(</text><text font-family="Cambria Math,Cambria Math_MSFontService,sans-serif" font-weight="400" font-size="41" transform="matrix(-1.83697e-16 -1 1 -1.83697e-16 815.628 937)">%</text><text font-family="Cambria Math,Cambria Math_MSFontService,sans-serif" font-weight="400" font-size="41" transform="matrix(-1.83697e-16 -1 1 -1.83697e-16 815.628 900)">)</text><text font-family="Arial,Arial_MSFontService,sans-serif" font-weight="400" font-size="37" transform="matrix(1 0 0 1 875.391 1235)">2</text><text font-family="Arial,Arial_MSFontService,sans-serif" font-weight="400" font-size="37" transform="matrix(1 0 0 1 896.016 1235)">0</text><text font-family="Arial,Arial_MSFontService,sans-serif" font-weight="400" font-size="37" transform="matrix(1 0 0 1 875.391 1062)">4</text><text font-family="Arial,Arial_MSFontService,sans-serif" font-weight="400" font-size="37" transform="matrix(1 0 0 1 896.016 1062)">0</text><text font-family="Arial,Arial_MSFontService,sans-serif" font-weight="400" font-size="37" transform="matrix(1 0 0 1 875.391 889)">6</text><text font-family="Arial,Arial_MSFontService,sans-serif" font-weight="400" font-size="37" transform="matrix(1 0 0 1 896.016 889)">0</text><text font-family="Arial,Arial_MSFontService,sans-serif" font-weight="400" font-size="37" transform="matrix(1 0 0 1 875.391 716)">80</text><text font-family="Arial,Arial_MSFontService,sans-serif" font-weight="400" font-size="37" transform="matrix(1 0 0 1 854.766 543)">100</text><text font-family="Arial,Arial_MSFontService,sans-serif" font-weight="400" font-size="37" transform="matrix(1 0 0 1 896.016 1408)">0</text><text font-family="Arial,Arial_MSFontService,sans-serif" font-weight="700" font-size="41" transform="matrix(1 0 0 1 1089.34 1498)">DMA</text><text font-family="Arial,Arial_MSFontService,sans-serif" font-weight="700" font-size="41" transform="matrix(1 0 0 1 1357.47 1498)">Age ≥ 65 y</text></g></svg>