<svg width="2031" height="1321" xmlns="http://www.w3.org/2000/svg" xmlns:xlink="http://www.w3.org/1999/xlink" xml:space="preserve" overflow="hidden"><defs><clipPath id="clip0"><rect x="191" y="1971" width="2031" height="1321"/></clipPath><clipPath id="clip1"><rect x="341" y="1971" width="1881" height="1147"/></clipPath><clipPath id="clip2"><rect x="341" y="1971" width="1881" height="1147"/></clipPath><clipPath id="clip3"><rect x="252" y="1971" width="1970" height="1211"/></clipPath></defs><g clip-path="url(#clip0)" transform="translate(-191 -1971)"><g clip-path="url(#clip1)"><g clip-path="url(#clip2)"><g clip-path="url(#clip3)"><path d="M-196.982-121.008 2166.8-121.008 2166.8 1331.09-196.982 1331.09Z" fill="#FFFFFF" transform="matrix(1 0 0 1.00008 252.181 1971)"/><g><path d="M107.98 958.079 1950.98 958.079" stroke="#EBEBEB" stroke-width="1.83399" stroke-linejoin="round" stroke-miterlimit="10" fill="none" transform="matrix(1 0 0 1.00008 252.181 1971)"/></g><g><path d="M107.98 704.52 1950.98 704.52" stroke="#EBEBEB" stroke-width="1.83399" stroke-linejoin="round" stroke-miterlimit="10" fill="none" transform="matrix(1 0 0 1.00008 252.181 1971)"/></g><g><path d="M107.98 450.96 1950.98 450.96" stroke="#EBEBEB" stroke-width="1.83399" stroke-linejoin="round" stroke-miterlimit="10" fill="none" transform="matrix(1 0 0 1.00008 252.181 1971)"/></g><g><path d="M107.98 197.387 1950.98 197.387" stroke="#EBEBEB" stroke-width="1.83399" stroke-linejoin="round" stroke-miterlimit="10" fill="none" transform="matrix(1 0 0 1.00008 252.181 1971)"/></g><g><path d="M556.724 1135.62 556.724 18.8404" stroke="#EBEBEB" stroke-width="1.83399" stroke-linejoin="round" stroke-miterlimit="10" fill="none" transform="matrix(1 0 0 1.00008 252.181 1971)"/></g><g><path d="M1081.06 1135.62 1081.06 18.8404" stroke="#EBEBEB" stroke-width="1.83399" stroke-linejoin="round" stroke-miterlimit="10" fill="none" transform="matrix(1 0 0 1.00008 252.181 1971)"/></g><g><path d="M1605.38 1135.62 1605.38 18.8404" stroke="#EBEBEB" stroke-width="1.83399" stroke-linejoin="round" stroke-miterlimit="10" fill="none" transform="matrix(1 0 0 1.00008 252.181 1971)"/></g><g><path d="M107.98 1084.86 1950.98 1084.86" stroke="#EBEBEB" stroke-width="3.66798" stroke-linejoin="round" stroke-miterlimit="10" fill="none" transform="matrix(1 0 0 1.00008 252.181 1971)"/></g><g><path d="M107.98 831.299 1950.98 831.299" stroke="#EBEBEB" stroke-width="3.66798" stroke-linejoin="round" stroke-miterlimit="10" fill="none" transform="matrix(1 0 0 1.00008 252.181 1971)"/></g><g><path d="M107.98 577.74 1950.98 577.74" stroke="#EBEBEB" stroke-width="3.66798" stroke-linejoin="round" stroke-miterlimit="10" fill="none" transform="matrix(1 0 0 1.00008 252.181 1971)"/></g><g><path d="M107.98 324.167 1950.98 324.167" stroke="#EBEBEB" stroke-width="3.66798" stroke-linejoin="round" stroke-miterlimit="10" fill="none" transform="matrix(1 0 0 1.00008 252.181 1971)"/></g><g><path d="M107.98 70.6077 1950.98 70.6077" stroke="#EBEBEB" stroke-width="3.66798" stroke-linejoin="round" stroke-miterlimit="10" fill="none" transform="matrix(1 0 0 1.00008 252.181 1971)"/></g><g><path d="M294.57 1135.62 294.57 18.8404" stroke="#EBEBEB" stroke-width="3.66798" stroke-linejoin="round" stroke-miterlimit="10" fill="none" transform="matrix(1 0 0 1.00008 252.181 1971)"/></g><g><path d="M818.891 1135.62 818.891 18.8404" stroke="#EBEBEB" stroke-width="3.66798" stroke-linejoin="round" stroke-miterlimit="10" fill="none" transform="matrix(1 0 0 1.00008 252.181 1971)"/></g><g><path d="M1343.21 1135.62 1343.21 18.8404" stroke="#EBEBEB" stroke-width="3.66798" stroke-linejoin="round" stroke-miterlimit="10" fill="none" transform="matrix(1 0 0 1.00008 252.181 1971)"/></g><g><path d="M1867.53 1135.62 1867.53 18.8404" stroke="#EBEBEB" stroke-width="3.66798" stroke-linejoin="round" stroke-miterlimit="10" fill="none" transform="matrix(1 0 0 1.00008 252.181 1971)"/></g><path d="M199.617 89.0587 261.093 91.1267 322.569 93.4096 384.032 95.8804 445.508 98.593 506.971 101.534 568.447 104.73 629.924 108.194 691.387 111.941 752.863 115.983 814.339 120.334 875.802 124.994 937.278 129.989 998.741 135.32 1060.22 141.014 1121.69 147.057 1183.16 153.476 1244.63 160.271 1306.11 167.428 1367.57 174.975 1429.05 182.911 1490.51 191.237 1551.99 199.925 1613.46 209.017 1674.93 218.47 1736.4 228.287 1797.88 238.479 1859.34 249.007" stroke="#000000" stroke-width="3.66798" stroke-linejoin="round" stroke-miterlimit="10" stroke-dasharray="3.66798 11.0039" fill="none" transform="matrix(1 0 0 1.00008 252.181 1971)"/><path d="M199.617 794.236 261.093 811.157 322.569 827.687 384.032 843.802 445.508 859.459 506.971 874.593 568.447 889.19 629.924 903.223 691.387 916.652 752.863 929.463 814.339 941.643 875.802 953.164 937.278 964.055 998.741 974.288 1060.22 983.889 1121.69 992.859 1183.16 1001.21 1244.63 1008.96 1306.11 1016.14 1367.57 1022.76 1429.05 1028.85 1490.51 1034.43 1551.99 1039.55 1613.46 1044.21 1674.93 1048.47 1736.4 1052.32 1797.88 1055.81 1859.34 1058.97" stroke="#000000" stroke-width="3.66798" stroke-linejoin="round" stroke-miterlimit="10" stroke-dasharray="3.66798 11.0039" fill="none" transform="matrix(1 0 0 1.00008 252.181 1971)"/><path d="M199.617 166.73 261.093 179.675 322.569 193.896 384.032 209.339 445.508 225.95 506.971 243.582 568.447 262.019 629.924 280.981 691.387 300.13 752.863 319.158 814.339 337.717 875.802 355.604 937.278 372.658 998.741 388.826 1060.22 404.162 1121.69 418.718 1183.16 432.59 1244.63 445.884 1306.11 458.709 1367.57 471.103 1429.05 483.176 1490.51 494.966 1551.99 506.515 1613.46 517.862 1674.93 529.034 1736.4 540.059 1797.88 550.936 1859.34 561.706" stroke="#000000" stroke-width="3.66798" stroke-linejoin="round" stroke-miterlimit="10" stroke-dasharray="14.6719 14.6719" fill="none" transform="matrix(1 0 0 1.00008 252.181 1971)"/><path d="M199.617 380.823 261.093 391.915 322.569 403.732 384.032 416.395 445.508 430.052 506.971 444.891 568.447 461.139 629.924 479.026 691.387 498.78 752.863 520.561 814.339 544.464 875.802 570.435 937.278 598.272 998.741 627.668 1060.22 658.164 1121.69 689.278 1183.16 720.5 1244.63 751.372 1306.11 781.466 1367.57 810.405 1429.05 837.906 1490.51 863.756 1551.99 887.794 1613.46 909.964 1674.93 930.242 1736.4 948.639 1797.88 965.223 1859.34 980.075" stroke="#000000" stroke-width="3.66798" stroke-linejoin="round" stroke-miterlimit="10" stroke-dasharray="14.6719 14.6719" fill="none" transform="matrix(1 0 0 1.00008 252.181 1971)"/><path d="M533.56 788.247 549.285 788.247" stroke="#000000" stroke-width="2.93439" stroke-linejoin="round" stroke-miterlimit="10" fill="none" transform="matrix(1 0 0 1.00008 252.181 1971)"/><path d="M541.429 788.247 541.429 844.312" stroke="#000000" stroke-width="2.93439" stroke-linejoin="round" stroke-miterlimit="10" fill="none" transform="matrix(1 0 0 1.00008 252.181 1971)"/><path d="M533.56 844.312 549.285 844.312" stroke="#000000" stroke-width="2.93439" stroke-linejoin="round" stroke-miterlimit="10" fill="none" transform="matrix(1 0 0 1.00008 252.181 1971)"/><path d="M201.967 168.126 217.705 168.126" stroke="#000000" stroke-width="2.93439" stroke-linejoin="round" stroke-miterlimit="10" fill="none" transform="matrix(1 0 0 1.00008 252.181 1971)"/><path d="M209.836 168.126 209.836 241.057" stroke="#000000" stroke-width="2.93439" stroke-linejoin="round" stroke-miterlimit="10" fill="none" transform="matrix(1 0 0 1.00008 252.181 1971)"/><path d="M201.967 241.057 217.705 241.057" stroke="#000000" stroke-width="2.93439" stroke-linejoin="round" stroke-miterlimit="10" fill="none" transform="matrix(1 0 0 1.00008 252.181 1971)"/><path d="M1305.38 362.492 1321.12 362.492" stroke="#000000" stroke-width="2.93439" stroke-linejoin="round" stroke-miterlimit="10" fill="none" transform="matrix(1 0 0 1.00008 252.181 1971)"/><path d="M1313.25 362.492 1313.25 546.975" stroke="#000000" stroke-width="2.93439" stroke-linejoin="round" stroke-miterlimit="10" fill="none" transform="matrix(1 0 0 1.00008 252.181 1971)"/><path d="M1305.38 546.975 1321.12 546.975" stroke="#000000" stroke-width="2.93439" stroke-linejoin="round" stroke-miterlimit="10" fill="none" transform="matrix(1 0 0 1.00008 252.181 1971)"/><path d="M549.285 584.32 565.01 584.32" stroke="#000000" stroke-width="2.93439" stroke-linejoin="round" stroke-miterlimit="10" fill="none" transform="matrix(1 0 0 1.00008 252.181 1971)"/><path d="M557.141 584.32 557.141 644.118" stroke="#000000" stroke-width="2.93439" stroke-linejoin="round" stroke-miterlimit="10" fill="none" transform="matrix(1 0 0 1.00008 252.181 1971)"/><path d="M549.285 644.118 565.01 644.118" stroke="#000000" stroke-width="2.93439" stroke-linejoin="round" stroke-miterlimit="10" fill="none" transform="matrix(1 0 0 1.00008 252.181 1971)"/><path d="M871.33 278.819 887.069 278.819" stroke="#000000" stroke-width="2.93439" stroke-linejoin="round" stroke-miterlimit="10" fill="none" transform="matrix(1 0 0 1.00008 252.181 1971)"/><path d="M879.199 278.819 879.199 326.598" stroke="#000000" stroke-width="2.93439" stroke-linejoin="round" stroke-miterlimit="10" fill="none" transform="matrix(1 0 0 1.00008 252.181 1971)"/><path d="M871.33 326.598 887.069 326.598" stroke="#000000" stroke-width="2.93439" stroke-linejoin="round" stroke-miterlimit="10" fill="none" transform="matrix(1 0 0 1.00008 252.181 1971)"/><path d="M388.155 426.534 403.88 426.534" stroke="#000000" stroke-width="2.93439" stroke-linejoin="round" stroke-miterlimit="10" fill="none" transform="matrix(1 0 0 1.00008 252.181 1971)"/><path d="M396.01 426.534 396.01 470.136" stroke="#000000" stroke-width="2.93439" stroke-linejoin="round" stroke-miterlimit="10" fill="none" transform="matrix(1 0 0 1.00008 252.181 1971)"/><path d="M388.155 470.136 403.88 470.136" stroke="#000000" stroke-width="2.93439" stroke-linejoin="round" stroke-miterlimit="10" fill="none" transform="matrix(1 0 0 1.00008 252.181 1971)"/><path d="M1160.99 525.65 1176.72 525.65" stroke="#000000" stroke-width="2.93439" stroke-linejoin="round" stroke-miterlimit="10" fill="none" transform="matrix(1 0 0 1.00008 252.181 1971)"/><path d="M1168.85 525.65 1168.85 599.36" stroke="#000000" stroke-width="2.93439" stroke-linejoin="round" stroke-miterlimit="10" fill="none" transform="matrix(1 0 0 1.00008 252.181 1971)"/><path d="M1160.99 599.36 1176.72 599.36" stroke="#000000" stroke-width="2.93439" stroke-linejoin="round" stroke-miterlimit="10" fill="none" transform="matrix(1 0 0 1.00008 252.181 1971)"/><path d="M1104.46 475.736 1120.2 475.736" stroke="#000000" stroke-width="2.93439" stroke-linejoin="round" stroke-miterlimit="10" fill="none" transform="matrix(1 0 0 1.00008 252.181 1971)"/><path d="M1112.33 475.736 1112.33 613.474" stroke="#000000" stroke-width="2.93439" stroke-linejoin="round" stroke-miterlimit="10" fill="none" transform="matrix(1 0 0 1.00008 252.181 1971)"/><path d="M1104.46 613.474 1120.2 613.474" stroke="#000000" stroke-width="2.93439" stroke-linejoin="round" stroke-miterlimit="10" fill="none" transform="matrix(1 0 0 1.00008 252.181 1971)"/><path d="M1332.35 568.313 1348.09 568.313" stroke="#000000" stroke-width="2.93439" stroke-linejoin="round" stroke-miterlimit="10" fill="none" transform="matrix(1 0 0 1.00008 252.181 1971)"/><path d="M1340.22 568.313 1340.22 651.906" stroke="#000000" stroke-width="2.93439" stroke-linejoin="round" stroke-miterlimit="10" fill="none" transform="matrix(1 0 0 1.00008 252.181 1971)"/><path d="M1332.35 651.906 1348.09 651.906" stroke="#000000" stroke-width="2.93439" stroke-linejoin="round" stroke-miterlimit="10" fill="none" transform="matrix(1 0 0 1.00008 252.181 1971)"/><path d="M191.761 125.262 207.486 125.262" stroke="#000000" stroke-width="2.93439" stroke-linejoin="round" stroke-miterlimit="10" fill="none" transform="matrix(1 0 0 1.00008 252.181 1971)"/><path d="M199.617 125.262 199.617 283.129" stroke="#000000" stroke-width="2.93439" stroke-linejoin="round" stroke-miterlimit="10" fill="none" transform="matrix(1 0 0 1.00008 252.181 1971)"/><path d="M191.761 283.129 207.486 283.129" stroke="#000000" stroke-width="2.93439" stroke-linejoin="round" stroke-miterlimit="10" fill="none" transform="matrix(1 0 0 1.00008 252.181 1971)"/><path d="M1681.21 214.267 1696.94 214.267" stroke="#000000" stroke-width="2.93439" stroke-linejoin="round" stroke-miterlimit="10" fill="none" transform="matrix(1 0 0 1.00008 252.181 1971)"/><path d="M1689.08 214.267 1689.08 377.318" stroke="#000000" stroke-width="2.93439" stroke-linejoin="round" stroke-miterlimit="10" fill="none" transform="matrix(1 0 0 1.00008 252.181 1971)"/><path d="M1681.21 377.318 1696.94 377.318" stroke="#000000" stroke-width="2.93439" stroke-linejoin="round" stroke-miterlimit="10" fill="none" transform="matrix(1 0 0 1.00008 252.181 1971)"/><path d="M432.818 86.0372 448.543 86.0372" stroke="#000000" stroke-width="2.93439" stroke-linejoin="round" stroke-miterlimit="10" fill="none" transform="matrix(1 0 0 1.00008 252.181 1971)"/><path d="M440.687 86.0372 440.687 90.8178" stroke="#000000" stroke-width="2.93439" stroke-linejoin="round" stroke-miterlimit="10" fill="none" transform="matrix(1 0 0 1.00008 252.181 1971)"/><path d="M432.818 90.8178 448.543 90.8178" stroke="#000000" stroke-width="2.93439" stroke-linejoin="round" stroke-miterlimit="10" fill="none" transform="matrix(1 0 0 1.00008 252.181 1971)"/><path d="M814.46 277.556 830.185 277.556" stroke="#000000" stroke-width="2.93439" stroke-linejoin="round" stroke-miterlimit="10" fill="none" transform="matrix(1 0 0 1.00008 252.181 1971)"/><path d="M822.329 277.556 822.329 373.383" stroke="#000000" stroke-width="2.93439" stroke-linejoin="round" stroke-miterlimit="10" fill="none" transform="matrix(1 0 0 1.00008 252.181 1971)"/><path d="M814.46 373.383 830.185 373.383" stroke="#000000" stroke-width="2.93439" stroke-linejoin="round" stroke-miterlimit="10" fill="none" transform="matrix(1 0 0 1.00008 252.181 1971)"/><path d="M820.476 669.27 836.201 669.27" stroke="#000000" stroke-width="2.93439" stroke-linejoin="round" stroke-miterlimit="10" fill="none" transform="matrix(1 0 0 1.00008 252.181 1971)"/><path d="M828.332 669.27 828.332 830.413" stroke="#000000" stroke-width="2.93439" stroke-linejoin="round" stroke-miterlimit="10" fill="none" transform="matrix(1 0 0 1.00008 252.181 1971)"/><path d="M820.476 830.413 836.201 830.413" stroke="#000000" stroke-width="2.93439" stroke-linejoin="round" stroke-miterlimit="10" fill="none" transform="matrix(1 0 0 1.00008 252.181 1971)"/><path d="M1851.49 697.188 1867.21 697.188" stroke="#000000" stroke-width="2.93439" stroke-linejoin="round" stroke-miterlimit="10" fill="none" transform="matrix(1 0 0 1.00008 252.181 1971)"/><path d="M1859.34 697.188 1859.34 761.229" stroke="#000000" stroke-width="2.93439" stroke-linejoin="round" stroke-miterlimit="10" fill="none" transform="matrix(1 0 0 1.00008 252.181 1971)"/><path d="M1851.49 761.229 1867.21 761.229" stroke="#000000" stroke-width="2.93439" stroke-linejoin="round" stroke-miterlimit="10" fill="none" transform="matrix(1 0 0 1.00008 252.181 1971)"/><path d="M302.265 148.252 317.99 148.252" stroke="#000000" stroke-width="2.93439" stroke-linejoin="round" stroke-miterlimit="10" fill="none" transform="matrix(1 0 0 1.00008 252.181 1971)"/><path d="M310.134 148.252 310.134 213.502" stroke="#000000" stroke-width="2.93439" stroke-linejoin="round" stroke-miterlimit="10" fill="none" transform="matrix(1 0 0 1.00008 252.181 1971)"/><path d="M302.265 213.502 317.99 213.502" stroke="#000000" stroke-width="2.93439" stroke-linejoin="round" stroke-miterlimit="10" fill="none" transform="matrix(1 0 0 1.00008 252.181 1971)"/><path d="M277.798 391.847 293.523 391.847" stroke="#000000" stroke-width="2.93439" stroke-linejoin="round" stroke-miterlimit="10" fill="none" transform="matrix(1 0 0 1.00008 252.181 1971)"/><path d="M285.654 391.847 285.654 475.964" stroke="#000000" stroke-width="2.93439" stroke-linejoin="round" stroke-miterlimit="10" fill="none" transform="matrix(1 0 0 1.00008 252.181 1971)"/><path d="M277.798 475.964 293.523 475.964" stroke="#000000" stroke-width="2.93439" stroke-linejoin="round" stroke-miterlimit="10" fill="none" transform="matrix(1 0 0 1.00008 252.181 1971)"/><path d="M379.319 343.182 395.043 343.182" stroke="#000000" stroke-width="2.93439" stroke-linejoin="round" stroke-miterlimit="10" fill="none" transform="matrix(1 0 0 1.00008 252.181 1971)"/><path d="M387.188 343.182 387.188 361.458" stroke="#000000" stroke-width="2.93439" stroke-linejoin="round" stroke-miterlimit="10" fill="none" transform="matrix(1 0 0 1.00008 252.181 1971)"/><path d="M379.319 361.458 395.043 361.458" stroke="#000000" stroke-width="2.93439" stroke-linejoin="round" stroke-miterlimit="10" fill="none" transform="matrix(1 0 0 1.00008 252.181 1971)"/><path d="M1113.25 869.517 1128.97 869.517" stroke="#000000" stroke-width="2.93439" stroke-linejoin="round" stroke-miterlimit="10" fill="none" transform="matrix(1 0 0 1.00008 252.181 1971)"/><path d="M1121.12 869.517 1121.12 979.431" stroke="#000000" stroke-width="2.93439" stroke-linejoin="round" stroke-miterlimit="10" fill="none" transform="matrix(1 0 0 1.00008 252.181 1971)"/><path d="M1113.25 979.431 1128.97 979.431" stroke="#000000" stroke-width="2.93439" stroke-linejoin="round" stroke-miterlimit="10" fill="none" transform="matrix(1 0 0 1.00008 252.181 1971)"/><path d="M244.039 452.907 259.763 452.907" stroke="#000000" stroke-width="2.93439" stroke-linejoin="round" stroke-miterlimit="10" fill="none" transform="matrix(1 0 0 1.00008 252.181 1971)"/><path d="M251.908 452.907 251.908 540.784" stroke="#000000" stroke-width="2.93439" stroke-linejoin="round" stroke-miterlimit="10" fill="none" transform="matrix(1 0 0 1.00008 252.181 1971)"/><path d="M244.039 540.784 259.763 540.784" stroke="#000000" stroke-width="2.93439" stroke-linejoin="round" stroke-miterlimit="10" fill="none" transform="matrix(1 0 0 1.00008 252.181 1971)"/><path d="M267.149 80.3301 282.874 80.3301" stroke="#000000" stroke-width="2.93439" stroke-linejoin="round" stroke-miterlimit="10" fill="none" transform="matrix(1 0 0 1.00008 252.181 1971)"/><path d="M275.005 80.3301 275.005 99.3316" stroke="#000000" stroke-width="2.93439" stroke-linejoin="round" stroke-miterlimit="10" fill="none" transform="matrix(1 0 0 1.00008 252.181 1971)"/><path d="M267.149 99.3316 282.874 99.3316" stroke="#000000" stroke-width="2.93439" stroke-linejoin="round" stroke-miterlimit="10" fill="none" transform="matrix(1 0 0 1.00008 252.181 1971)"/><path d="M303.648 286.043 319.387 286.043" stroke="#000000" stroke-width="2.93439" stroke-linejoin="round" stroke-miterlimit="10" fill="none" transform="matrix(1 0 0 1.00008 252.181 1971)"/><path d="M311.517 286.043 311.517 336.36" stroke="#000000" stroke-width="2.93439" stroke-linejoin="round" stroke-miterlimit="10" fill="none" transform="matrix(1 0 0 1.00008 252.181 1971)"/><path d="M303.648 336.36 319.387 336.36" stroke="#000000" stroke-width="2.93439" stroke-linejoin="round" stroke-miterlimit="10" fill="none" transform="matrix(1 0 0 1.00008 252.181 1971)"/><path d="M1101.83 739.313 1117.56 739.313" stroke="#000000" stroke-width="2.93439" stroke-linejoin="round" stroke-miterlimit="10" fill="none" transform="matrix(1 0 0 1.00008 252.181 1971)"/><path d="M1109.69 739.313 1109.69 817.602" stroke="#000000" stroke-width="2.93439" stroke-linejoin="round" stroke-miterlimit="10" fill="none" transform="matrix(1 0 0 1.00008 252.181 1971)"/><path d="M1101.83 817.602 1117.56 817.602" stroke="#000000" stroke-width="2.93439" stroke-linejoin="round" stroke-miterlimit="10" fill="none" transform="matrix(1 0 0 1.00008 252.181 1971)"/><path d="M282.606 104.824 298.331 104.824" stroke="#000000" stroke-width="2.93439" stroke-linejoin="round" stroke-miterlimit="10" fill="none" transform="matrix(1 0 0 1.00008 252.181 1971)"/><path d="M290.475 104.824 290.475 188.189" stroke="#000000" stroke-width="2.93439" stroke-linejoin="round" stroke-miterlimit="10" fill="none" transform="matrix(1 0 0 1.00008 252.181 1971)"/><path d="M282.606 188.189 298.331 188.189" stroke="#000000" stroke-width="2.93439" stroke-linejoin="round" stroke-miterlimit="10" fill="none" transform="matrix(1 0 0 1.00008 252.181 1971)"/><path d="M1049.72 650.456 1065.45 650.456" stroke="#000000" stroke-width="2.93439" stroke-linejoin="round" stroke-miterlimit="10" fill="none" transform="matrix(1 0 0 1.00008 252.181 1971)"/><path d="M1057.59 650.456 1057.59 680.899" stroke="#000000" stroke-width="2.93439" stroke-linejoin="round" stroke-miterlimit="10" fill="none" transform="matrix(1 0 0 1.00008 252.181 1971)"/><path d="M1049.72 680.899 1065.45 680.899" stroke="#000000" stroke-width="2.93439" stroke-linejoin="round" stroke-miterlimit="10" fill="none" transform="matrix(1 0 0 1.00008 252.181 1971)"/><path d="M991.006 757.281 1006.73 757.281" stroke="#000000" stroke-width="2.93439" stroke-linejoin="round" stroke-miterlimit="10" fill="none" transform="matrix(1 0 0 1.00008 252.181 1971)"/><path d="M998.862 757.281 998.862 811.345" stroke="#000000" stroke-width="2.93439" stroke-linejoin="round" stroke-miterlimit="10" fill="none" transform="matrix(1 0 0 1.00008 252.181 1971)"/><path d="M991.006 811.345 1006.73 811.345" stroke="#000000" stroke-width="2.93439" stroke-linejoin="round" stroke-miterlimit="10" fill="none" transform="matrix(1 0 0 1.00008 252.181 1971)"/><path d="M1029.71 718.432 1045.45 718.432" stroke="#000000" stroke-width="2.93439" stroke-linejoin="round" stroke-miterlimit="10" fill="none" transform="matrix(1 0 0 1.00008 252.181 1971)"/><path d="M1037.58 718.432 1037.58 811.989" stroke="#000000" stroke-width="2.93439" stroke-linejoin="round" stroke-miterlimit="10" fill="none" transform="matrix(1 0 0 1.00008 252.181 1971)"/><path d="M1029.71 811.989 1045.45 811.989" stroke="#000000" stroke-width="2.93439" stroke-linejoin="round" stroke-miterlimit="10" fill="none" transform="matrix(1 0 0 1.00008 252.181 1971)"/><path d="M1347.8 529.531 1363.54 529.531" stroke="#000000" stroke-width="2.93439" stroke-linejoin="round" stroke-miterlimit="10" fill="none" transform="matrix(1 0 0 1.00008 252.181 1971)"/><path d="M1355.67 529.531 1355.67 682.067" stroke="#000000" stroke-width="2.93439" stroke-linejoin="round" stroke-miterlimit="10" fill="none" transform="matrix(1 0 0 1.00008 252.181 1971)"/><path d="M1347.8 682.067 1363.54 682.067" stroke="#000000" stroke-width="2.93439" stroke-linejoin="round" stroke-miterlimit="10" fill="none" transform="matrix(1 0 0 1.00008 252.181 1971)"/><path d="M199.617 249.934 261.093 264.517 322.569 279.987 384.032 296.356 445.508 313.612 506.971 331.768 568.447 350.769 629.924 370.603 691.387 391.243 752.863 412.608 814.339 434.658 875.802 457.312 937.278 480.476 998.741 504.084 1060.22 528.014 1121.69 552.172 1183.16 576.437 1244.63 600.716 1306.11 624.901 1367.57 648.858 1429.05 672.492 1490.51 695.724 1551.99 718.432 1613.46 740.549 1674.93 761.994 1736.4 782.701 1797.88 802.629 1859.34 821.725" stroke="#000000" stroke-width="5.50198" stroke-linejoin="round" stroke-miterlimit="10" fill="none" transform="matrix(1 0 0 1.00008 252.181 1971)"/><path d="M551.809 811.747C551.809 825.592 531.035 825.592 531.035 811.747 531.035 797.889 551.809 797.889 551.809 811.747" stroke="#000000" stroke-width="2.43619" stroke-linecap="round" stroke-linejoin="round" stroke-miterlimit="10" stroke-opacity="0.94902" fill="#A9A9A9" fill-opacity="0.94902" transform="matrix(1 0 0 1.00008 252.181 1971)"/><path d="M220.216 204.438C220.216 218.282 199.442 218.282 199.442 204.438 199.442 190.579 220.216 190.579 220.216 204.438" stroke="#000000" stroke-width="2.43619" stroke-linecap="round" stroke-linejoin="round" stroke-miterlimit="10" stroke-opacity="0.94902" fill="#A9A9A9" fill-opacity="0.94902" transform="matrix(1 0 0 1.00008 252.181 1971)"/><path d="M1323.65 422.962C1323.65 436.807 1302.86 436.807 1302.86 422.962 1302.86 409.117 1323.65 409.117 1323.65 422.962" stroke="#000000" stroke-width="2.43619" stroke-linecap="round" stroke-linejoin="round" stroke-miterlimit="10" stroke-opacity="0.94902" fill="#A9A9A9" fill-opacity="0.94902" transform="matrix(1 0 0 1.00008 252.181 1971)"/><path d="M567.534 613.527C567.534 627.372 546.76 627.372 546.76 613.527 546.76 599.669 567.534 599.669 567.534 613.527" stroke="#000000" stroke-width="2.43619" stroke-linecap="round" stroke-linejoin="round" stroke-miterlimit="10" stroke-opacity="0.94902" fill="#A9A9A9" fill-opacity="0.94902" transform="matrix(1 0 0 1.00008 252.181 1971)"/><path d="M889.58 297.847C889.58 311.705 868.806 311.705 868.806 297.847 868.806 284.002 889.58 284.002 889.58 297.847" stroke="#000000" stroke-width="2.43619" stroke-linecap="round" stroke-linejoin="round" stroke-miterlimit="10" stroke-opacity="0.94902" fill="#A9A9A9" fill-opacity="0.94902" transform="matrix(1 0 0 1.00008 252.181 1971)"/><path d="M406.404 448.315C406.404 462.173 385.63 462.173 385.63 448.315 385.63 434.47 406.404 434.47 406.404 448.315" stroke="#000000" stroke-width="2.43619" stroke-linecap="round" stroke-linejoin="round" stroke-miterlimit="10" stroke-opacity="0.94902" fill="#A9A9A9" fill-opacity="0.94902" transform="matrix(1 0 0 1.00008 252.181 1971)"/><path d="M1179.25 559.652C1179.25 573.51 1158.46 573.51 1158.46 559.652 1158.46 545.807 1179.25 545.807 1179.25 559.652" stroke="#000000" stroke-width="2.43619" stroke-linecap="round" stroke-linejoin="round" stroke-miterlimit="10" stroke-opacity="0.94902" fill="#A9A9A9" fill-opacity="0.94902" transform="matrix(1 0 0 1.00008 252.181 1971)"/><path d="M1122.71 524.63C1122.71 538.488 1101.94 538.488 1101.94 524.63 1101.94 510.785 1122.71 510.785 1122.71 524.63" stroke="#000000" stroke-width="2.43619" stroke-linecap="round" stroke-linejoin="round" stroke-miterlimit="10" stroke-opacity="0.94902" fill="#A9A9A9" fill-opacity="0.94902" transform="matrix(1 0 0 1.00008 252.181 1971)"/><path d="M1350.61 609.593C1350.61 623.438 1329.82 623.438 1329.82 609.593 1329.82 595.734 1350.61 595.734 1350.61 609.593" stroke="#000000" stroke-width="2.43619" stroke-linecap="round" stroke-linejoin="round" stroke-miterlimit="10" stroke-opacity="0.94902" fill="#A9A9A9" fill-opacity="0.94902" transform="matrix(1 0 0 1.00008 252.181 1971)"/><path d="M210.01 191.559C210.01 205.418 189.236 205.418 189.236 191.559 189.236 177.715 210.01 177.715 210.01 191.559" stroke="#000000" stroke-width="2.43619" stroke-linecap="round" stroke-linejoin="round" stroke-miterlimit="10" stroke-opacity="0.94902" fill="#A9A9A9" fill-opacity="0.94902" transform="matrix(1 0 0 1.00008 252.181 1971)"/><path d="M1699.46 292.65C1699.46 306.509 1678.69 306.509 1678.69 292.65 1678.69 278.805 1699.46 278.805 1699.46 292.65" stroke="#000000" stroke-width="2.43619" stroke-linecap="round" stroke-linejoin="round" stroke-miterlimit="10" stroke-opacity="0.94902" fill="#A9A9A9" fill-opacity="0.94902" transform="matrix(1 0 0 1.00008 252.181 1971)"/><path d="M451.068 88.4007C451.068 102.246 430.294 102.246 430.294 88.4007 430.294 74.5423 451.068 74.5423 451.068 88.4007" stroke="#000000" stroke-width="2.43619" stroke-linecap="round" stroke-linejoin="round" stroke-miterlimit="10" stroke-opacity="0.94902" fill="#A9A9A9" fill-opacity="0.94902" transform="matrix(1 0 0 1.00008 252.181 1971)"/><path d="M832.709 325.765C832.709 339.61 811.935 339.61 811.935 325.765 811.935 311.907 832.709 311.907 832.709 325.765" stroke="#000000" stroke-width="2.43619" stroke-linecap="round" stroke-linejoin="round" stroke-miterlimit="10" stroke-opacity="0.94902" fill="#A9A9A9" fill-opacity="0.94902" transform="matrix(1 0 0 1.00008 252.181 1971)"/><path d="M838.726 749.546C838.726 763.404 817.951 763.404 817.951 749.546 817.951 735.701 838.726 735.701 838.726 749.546" stroke="#000000" stroke-width="2.43619" stroke-linecap="round" stroke-linejoin="round" stroke-miterlimit="10" stroke-opacity="0.94902" fill="#A9A9A9" fill-opacity="0.94902" transform="matrix(1 0 0 1.00008 252.181 1971)"/><path d="M1869.74 725.146C1869.74 739.004 1848.96 739.004 1848.96 725.146 1848.96 711.301 1869.74 711.301 1869.74 725.146" stroke="#000000" stroke-width="2.43619" stroke-linecap="round" stroke-linejoin="round" stroke-miterlimit="10" stroke-opacity="0.94902" fill="#A9A9A9" fill-opacity="0.94902" transform="matrix(1 0 0 1.00008 252.181 1971)"/><path d="M320.515 180.991C320.515 194.836 299.741 194.836 299.741 180.991 299.741 167.133 320.515 167.133 320.515 180.991" stroke="#000000" stroke-width="2.43619" stroke-linecap="round" stroke-linejoin="round" stroke-miterlimit="10" stroke-opacity="0.94902" fill="#A9A9A9" fill-opacity="0.94902" transform="matrix(1 0 0 1.00008 252.181 1971)"/><path d="M296.048 432.751C296.048 446.596 275.274 446.596 275.274 432.751 275.274 418.906 296.048 418.906 296.048 432.751" stroke="#000000" stroke-width="2.43619" stroke-linecap="round" stroke-linejoin="round" stroke-miterlimit="10" stroke-opacity="0.94902" fill="#A9A9A9" fill-opacity="0.94902" transform="matrix(1 0 0 1.00008 252.181 1971)"/><path d="M397.568 352.045C397.568 365.89 376.794 365.89 376.794 352.045 376.794 338.187 397.568 338.187 397.568 352.045" stroke="#000000" stroke-width="2.43619" stroke-linecap="round" stroke-linejoin="round" stroke-miterlimit="10" stroke-opacity="0.94902" fill="#A9A9A9" fill-opacity="0.94902" transform="matrix(1 0 0 1.00008 252.181 1971)"/><path d="M1131.5 927.341C1131.5 941.199 1110.72 941.199 1110.72 927.341 1110.72 913.496 1131.5 913.496 1131.5 927.341" stroke="#000000" stroke-width="2.43619" stroke-linecap="round" stroke-linejoin="round" stroke-miterlimit="10" stroke-opacity="0.94902" fill="#A9A9A9" fill-opacity="0.94902" transform="matrix(1 0 0 1.00008 252.181 1971)"/><path d="M262.288 493.851C262.288 507.696 241.514 507.696 241.514 493.851 241.514 479.993 262.288 479.993 262.288 493.851" stroke="#000000" stroke-width="2.43619" stroke-linecap="round" stroke-linejoin="round" stroke-miterlimit="10" stroke-opacity="0.94902" fill="#A9A9A9" fill-opacity="0.94902" transform="matrix(1 0 0 1.00008 252.181 1971)"/><path d="M285.399 89.0184C285.399 102.877 264.625 102.877 264.625 89.0184 264.625 75.1735 285.399 75.1735 285.399 89.0184" stroke="#000000" stroke-width="2.43619" stroke-linecap="round" stroke-linejoin="round" stroke-miterlimit="10" stroke-opacity="0.94902" fill="#A9A9A9" fill-opacity="0.94902" transform="matrix(1 0 0 1.00008 252.181 1971)"/><path d="M321.911 310.564C321.911 324.409 301.124 324.409 301.124 310.564 301.124 296.706 321.911 296.706 321.911 310.564" stroke="#000000" stroke-width="2.43619" stroke-linecap="round" stroke-linejoin="round" stroke-miterlimit="10" stroke-opacity="0.94902" fill="#A9A9A9" fill-opacity="0.94902" transform="matrix(1 0 0 1.00008 252.181 1971)"/><path d="M1120.08 775.007C1120.08 788.865 1099.31 788.865 1099.31 775.007 1099.31 761.162 1120.08 761.162 1120.08 775.007" stroke="#000000" stroke-width="2.43619" stroke-linecap="round" stroke-linejoin="round" stroke-miterlimit="10" stroke-opacity="0.94902" fill="#A9A9A9" fill-opacity="0.94902" transform="matrix(1 0 0 1.00008 252.181 1971)"/><path d="M300.855 141.35C300.855 155.195 280.081 155.195 280.081 141.35 280.081 127.505 300.855 127.505 300.855 141.35" stroke="#000000" stroke-width="2.43619" stroke-linecap="round" stroke-linejoin="round" stroke-miterlimit="10" stroke-opacity="0.94902" fill="#A9A9A9" fill-opacity="0.94902" transform="matrix(1 0 0 1.00008 252.181 1971)"/><path d="M1067.97 662.448C1067.97 676.293 1047.19 676.293 1047.19 662.448 1047.19 648.589 1067.97 648.589 1067.97 662.448" stroke="#000000" stroke-width="2.43619" stroke-linecap="round" stroke-linejoin="round" stroke-miterlimit="10" stroke-opacity="0.94902" fill="#A9A9A9" fill-opacity="0.94902" transform="matrix(1 0 0 1.00008 252.181 1971)"/><path d="M1009.26 783.265C1009.26 797.124 988.482 797.124 988.482 783.265 988.482 769.42 1009.26 769.42 1009.26 783.265" stroke="#000000" stroke-width="2.43619" stroke-linecap="round" stroke-linejoin="round" stroke-miterlimit="10" stroke-opacity="0.94902" fill="#A9A9A9" fill-opacity="0.94902" transform="matrix(1 0 0 1.00008 252.181 1971)"/><path d="M1047.97 749.17C1047.97 763.028 1027.2 763.028 1027.2 749.17 1027.2 735.325 1047.97 735.325 1047.97 749.17" stroke="#000000" stroke-width="2.43619" stroke-linecap="round" stroke-linejoin="round" stroke-miterlimit="10" stroke-opacity="0.94902" fill="#A9A9A9" fill-opacity="0.94902" transform="matrix(1 0 0 1.00008 252.181 1971)"/><path d="M1366.07 604.92C1366.07 618.778 1345.28 618.778 1345.28 604.92 1345.28 591.075 1366.07 591.075 1366.07 604.92" stroke="#000000" stroke-width="2.43619" stroke-linecap="round" stroke-linejoin="round" stroke-miterlimit="10" stroke-opacity="0.94902" fill="#A9A9A9" fill-opacity="0.94902" transform="matrix(1 0 0 1.00008 252.181 1971)"/><g><path d="M107.98 1135.62 1950.98 1135.62 1950.98 18.8404 107.98 18.8404Z" stroke="#000000" stroke-width="5.50198" stroke-linecap="round" stroke-linejoin="round" stroke-miterlimit="10" fill="none" transform="matrix(1 0 0 1.00008 252.181 1971)"/></g><path d="M10.3132-27.3944C7.46632-27.3944 4.99545-26.159 3.38402-23.9567 1.82629-21.8618 1.07429-18.4778 1.07429-13.2138 1.07429-8.4869 1.71886-5.15659 3.00801-3.11544 4.56573-0.537145 7.19775 0.859432 10.3132 0.859432 13.2138 0.859432 15.6309-0.322287 17.2961-2.52458 18.8001-4.61945 19.5521-8.05718 19.5521-13.1063 19.5521-17.9944 18.9612-21.3247 17.6721-23.4195 16.0606-25.9978 13.4823-27.3944 10.3132-27.3944ZM10.3132-23.0972C11.7098-23.0972 12.7841-22.3452 13.4286-20.9487 13.9658-19.8207 14.2344-16.9201 14.2344-13.2138 14.2344-10.152 13.9658-7.19775 13.5898-6.12346 12.9452-4.51202 11.8172-3.65259 10.3132-3.65259 8.91661-3.65259 7.84232-4.40459 7.19775-5.74745 6.71432-6.87546 6.39203-9.66862 6.39203-13.2675 6.39203-16.4366 6.6606-19.4984 7.09032-20.5727 7.62746-22.1841 8.80918-23.0972 10.3132-23.0972Z" fill="#4D4D4D" transform="matrix(1 0 0 1.00008 271.021 3068.04)"/><path d="M8.11089-5.5326 2.41715-5.5326 2.41715 0 8.11089 0Z" fill="#4D4D4D" transform="matrix(1 0 0 1.00008 291.648 3068.04)"/><path d="M10.3132-27.3944C7.46632-27.3944 4.99545-26.159 3.38402-23.9567 1.82629-21.8618 1.07429-18.4778 1.07429-13.2138 1.07429-8.4869 1.71886-5.15659 3.00801-3.11544 4.56573-0.537145 7.19775 0.859432 10.3132 0.859432 13.2138 0.859432 15.6309-0.322287 17.2961-2.52458 18.8001-4.61945 19.5521-8.05718 19.5521-13.1063 19.5521-17.9944 18.9612-21.3247 17.6721-23.4195 16.0606-25.9978 13.4823-27.3944 10.3132-27.3944ZM10.3132-23.0972C11.7098-23.0972 12.7841-22.3452 13.4286-20.9487 13.9658-19.8207 14.2344-16.9201 14.2344-13.2138 14.2344-10.152 13.9658-7.19775 13.5898-6.12346 12.9452-4.51202 11.8172-3.65259 10.3132-3.65259 8.91661-3.65259 7.84232-4.40459 7.19775-5.74745 6.71432-6.87546 6.39203-9.66862 6.39203-13.2675 6.39203-16.4366 6.6606-19.4984 7.09032-20.5727 7.62746-22.1841 8.80918-23.0972 10.3132-23.0972Z" fill="#4D4D4D" transform="matrix(1 0 0 1.00008 301.961 3068.04)"/><path d="M10.3132-27.3944C7.46632-27.3944 4.99545-26.159 3.38402-23.9567 1.82629-21.8618 1.07429-18.4778 1.07429-13.2138 1.07429-8.4869 1.71886-5.15659 3.00801-3.11544 4.56573-0.537145 7.19775 0.859432 10.3132 0.859432 13.2138 0.859432 15.6309-0.322287 17.2961-2.52458 18.8001-4.61945 19.5521-8.05718 19.5521-13.1063 19.5521-17.9944 18.9612-21.3247 17.6721-23.4195 16.0606-25.9978 13.4823-27.3944 10.3132-27.3944ZM10.3132-23.0972C11.7098-23.0972 12.7841-22.3452 13.4286-20.9487 13.9658-19.8207 14.2344-16.9201 14.2344-13.2138 14.2344-10.152 13.9658-7.19775 13.5898-6.12346 12.9452-4.51202 11.8172-3.65259 10.3132-3.65259 8.91661-3.65259 7.84232-4.40459 7.19775-5.74745 6.71432-6.87546 6.39203-9.66862 6.39203-13.2675 6.39203-16.4366 6.6606-19.4984 7.09032-20.5727 7.62746-22.1841 8.80918-23.0972 10.3132-23.0972Z" fill="#4D4D4D" transform="matrix(1 0 0 1.00008 322.587 3068.04)"/><path d="M10.3132-27.3944C7.46632-27.3944 4.99545-26.159 3.38402-23.9567 1.82629-21.8618 1.07429-18.4778 1.07429-13.2138 1.07429-8.4869 1.71886-5.15659 3.00801-3.11544 4.56573-0.537145 7.19775 0.859432 10.3132 0.859432 13.2138 0.859432 15.6309-0.322287 17.2961-2.52458 18.8001-4.61945 19.5521-8.05718 19.5521-13.1063 19.5521-17.9944 18.9612-21.3247 17.6721-23.4195 16.0606-25.9978 13.4823-27.3944 10.3132-27.3944ZM10.3132-23.0972C11.7098-23.0972 12.7841-22.3452 13.4286-20.9487 13.9658-19.8207 14.2344-16.9201 14.2344-13.2138 14.2344-10.152 13.9658-7.19775 13.5898-6.12346 12.9452-4.51202 11.8172-3.65259 10.3132-3.65259 8.91661-3.65259 7.84232-4.40459 7.19775-5.74745 6.71432-6.87546 6.39203-9.66862 6.39203-13.2675 6.39203-16.4366 6.6606-19.4984 7.09032-20.5727 7.62746-22.1841 8.80918-23.0972 10.3132-23.0972Z" fill="#4D4D4D" transform="matrix(1 0 0 1.00008 271.021 2814.46)"/><path d="M8.11089-5.5326 2.41715-5.5326 2.41715 0 8.11089 0Z" fill="#4D4D4D" transform="matrix(1 0 0 1.00008 291.648 2814.46)"/><path d="M19.3372-4.72688 8.00346-4.72688C8.70175-6.17717 9.50747-6.98289 13.4823-9.77604 18.1018-13.2138 19.4984-15.2012 19.4984-18.8538 19.4984-24.0641 15.8995-27.3944 10.2595-27.3944 4.72688-27.3944 1.45029-24.0641 1.45029-18.4241L1.45029-17.4572 6.55317-17.4572 6.55317-18.3167C6.55317-21.3247 8.00346-23.0435 10.4206-23.0435 12.7303-23.0435 14.1806-21.4321 14.1806-18.7464 14.1806-15.7921 13.2675-14.6641 7.30518-10.4206 2.73944-7.35889 1.34286-4.99545 1.12801 0L19.3372 0Z" fill="#4D4D4D" transform="matrix(1 0 0 1.00008 301.961 2814.46)"/><path d="M18.4778-26.8036 4.13602-26.8036 1.77258-11.8709 6.55317-11.8709C7.09032-13.2138 8.32575-13.9121 9.93719-13.9121 12.6229-13.9121 14.2344-11.9783 14.2344-8.75547 14.2344-5.58631 12.6229-3.65259 9.93719-3.65259 7.62746-3.65259 6.33831-4.83431 6.23089-6.98289L1.02058-6.98289C1.07429-2.30972 4.67316 0.859432 9.88347 0.859432 15.6309 0.859432 19.5521-3.06173 19.5521-8.8629 19.5521-14.3955 16.1681-18.1018 11.1726-18.1018 9.40004-18.1018 8.11089-17.6721 6.55317-16.4904L7.4126-22.0767 18.4778-22.0767Z" fill="#4D4D4D" transform="matrix(1 0 0 1.00008 322.587 2814.46)"/><path d="M10.3132-27.3944C7.46632-27.3944 4.99545-26.159 3.38402-23.9567 1.82629-21.8618 1.07429-18.4778 1.07429-13.2138 1.07429-8.4869 1.71886-5.15659 3.00801-3.11544 4.56573-0.537145 7.19775 0.859432 10.3132 0.859432 13.2138 0.859432 15.6309-0.322287 17.2961-2.52458 18.8001-4.61945 19.5521-8.05718 19.5521-13.1063 19.5521-17.9944 18.9612-21.3247 17.6721-23.4195 16.0606-25.9978 13.4823-27.3944 10.3132-27.3944ZM10.3132-23.0972C11.7098-23.0972 12.7841-22.3452 13.4286-20.9487 13.9658-19.8207 14.2344-16.9201 14.2344-13.2138 14.2344-10.152 13.9658-7.19775 13.5898-6.12346 12.9452-4.51202 11.8172-3.65259 10.3132-3.65259 8.91661-3.65259 7.84232-4.40459 7.19775-5.74745 6.71432-6.87546 6.39203-9.66862 6.39203-13.2675 6.39203-16.4366 6.6606-19.4984 7.09032-20.5727 7.62746-22.1841 8.80918-23.0972 10.3132-23.0972Z" fill="#4D4D4D" transform="matrix(1 0 0 1.00008 271.021 2560.88)"/><path d="M8.11089-5.5326 2.41715-5.5326 2.41715 0 8.11089 0Z" fill="#4D4D4D" transform="matrix(1 0 0 1.00008 291.648 2560.88)"/><path d="M18.4778-26.8036 4.13602-26.8036 1.77258-11.8709 6.55317-11.8709C7.09032-13.2138 8.32575-13.9121 9.93719-13.9121 12.6229-13.9121 14.2344-11.9783 14.2344-8.75547 14.2344-5.58631 12.6229-3.65259 9.93719-3.65259 7.62746-3.65259 6.33831-4.83431 6.23089-6.98289L1.02058-6.98289C1.07429-2.30972 4.67316 0.859432 9.88347 0.859432 15.6309 0.859432 19.5521-3.06173 19.5521-8.8629 19.5521-14.3955 16.1681-18.1018 11.1726-18.1018 9.40004-18.1018 8.11089-17.6721 6.55317-16.4904L7.4126-22.0767 18.4778-22.0767Z" fill="#4D4D4D" transform="matrix(1 0 0 1.00008 301.961 2560.88)"/><path d="M10.3132-27.3944C7.46632-27.3944 4.99545-26.159 3.38402-23.9567 1.82629-21.8618 1.07429-18.4778 1.07429-13.2138 1.07429-8.4869 1.71886-5.15659 3.00801-3.11544 4.56573-0.537145 7.19775 0.859432 10.3132 0.859432 13.2138 0.859432 15.6309-0.322287 17.2961-2.52458 18.8001-4.61945 19.5521-8.05718 19.5521-13.1063 19.5521-17.9944 18.9612-21.3247 17.6721-23.4195 16.0606-25.9978 13.4823-27.3944 10.3132-27.3944ZM10.3132-23.0972C11.7098-23.0972 12.7841-22.3452 13.4286-20.9487 13.9658-19.8207 14.2344-16.9201 14.2344-13.2138 14.2344-10.152 13.9658-7.19775 13.5898-6.12346 12.9452-4.51202 11.8172-3.65259 10.3132-3.65259 8.91661-3.65259 7.84232-4.40459 7.19775-5.74745 6.71432-6.87546 6.39203-9.66862 6.39203-13.2675 6.39203-16.4366 6.6606-19.4984 7.09032-20.5727 7.62746-22.1841 8.80918-23.0972 10.3132-23.0972Z" fill="#4D4D4D" transform="matrix(1 0 0 1.00008 322.587 2560.88)"/><path d="M10.3132-27.3944C7.46632-27.3944 4.99545-26.159 3.38402-23.9567 1.82629-21.8618 1.07429-18.4778 1.07429-13.2138 1.07429-8.4869 1.71886-5.15659 3.00801-3.11544 4.56573-0.537145 7.19775 0.859432 10.3132 0.859432 13.2138 0.859432 15.6309-0.322287 17.2961-2.52458 18.8001-4.61945 19.5521-8.05718 19.5521-13.1063 19.5521-17.9944 18.9612-21.3247 17.6721-23.4195 16.0606-25.9978 13.4823-27.3944 10.3132-27.3944ZM10.3132-23.0972C11.7098-23.0972 12.7841-22.3452 13.4286-20.9487 13.9658-19.8207 14.2344-16.9201 14.2344-13.2138 14.2344-10.152 13.9658-7.19775 13.5898-6.12346 12.9452-4.51202 11.8172-3.65259 10.3132-3.65259 8.91661-3.65259 7.84232-4.40459 7.19775-5.74745 6.71432-6.87546 6.39203-9.66862 6.39203-13.2675 6.39203-16.4366 6.6606-19.4984 7.09032-20.5727 7.62746-22.1841 8.80918-23.0972 10.3132-23.0972Z" fill="#4D4D4D" transform="matrix(1 0 0 1.00008 271.021 2307.29)"/><path d="M8.11089-5.5326 2.41715-5.5326 2.41715 0 8.11089 0Z" fill="#4D4D4D" transform="matrix(1 0 0 1.00008 291.648 2307.29)"/><path d="M19.9818-26.8036 1.07429-26.8036 1.07429-22.0767 14.4492-22.0767C12.8378-20.3578 9.6149-15.4698 8.54061-13.1063 6.71432-9.2389 5.74745-5.69374 5.04917 0L10.3669 0C10.8503-8.4869 13.5898-14.9864 19.9818-22.6675Z" fill="#4D4D4D" transform="matrix(1 0 0 1.00008 301.961 2307.29)"/><path d="M18.4778-26.8036 4.13602-26.8036 1.77258-11.8709 6.55317-11.8709C7.09032-13.2138 8.32575-13.9121 9.93719-13.9121 12.6229-13.9121 14.2344-11.9783 14.2344-8.75547 14.2344-5.58631 12.6229-3.65259 9.93719-3.65259 7.62746-3.65259 6.33831-4.83431 6.23089-6.98289L1.02058-6.98289C1.07429-2.30972 4.67316 0.859432 9.88347 0.859432 15.6309 0.859432 19.5521-3.06173 19.5521-8.8629 19.5521-14.3955 16.1681-18.1018 11.1726-18.1018 9.40004-18.1018 8.11089-17.6721 6.55317-16.4904L7.4126-22.0767 18.4778-22.0767Z" fill="#4D4D4D" transform="matrix(1 0 0 1.00008 322.587 2307.29)"/><path d="M9.02404-18.4778 9.02404 0 14.2881 0 14.2881-26.8036 10.7966-26.8036C9.93719-23.6344 7.19775-22.023 2.5783-22.023L2.5783-18.4778Z" fill="#4D4D4D" transform="matrix(1 0 0 1.00008 271.021 2053.71)"/><path d="M8.11089-5.5326 2.41715-5.5326 2.41715 0 8.11089 0Z" fill="#4D4D4D" transform="matrix(1 0 0 1.00008 291.648 2053.71)"/><path d="M10.3132-27.3944C7.46632-27.3944 4.99545-26.159 3.38402-23.9567 1.82629-21.8618 1.07429-18.4778 1.07429-13.2138 1.07429-8.4869 1.71886-5.15659 3.00801-3.11544 4.56573-0.537145 7.19775 0.859432 10.3132 0.859432 13.2138 0.859432 15.6309-0.322287 17.2961-2.52458 18.8001-4.61945 19.5521-8.05718 19.5521-13.1063 19.5521-17.9944 18.9612-21.3247 17.6721-23.4195 16.0606-25.9978 13.4823-27.3944 10.3132-27.3944ZM10.3132-23.0972C11.7098-23.0972 12.7841-22.3452 13.4286-20.9487 13.9658-19.8207 14.2344-16.9201 14.2344-13.2138 14.2344-10.152 13.9658-7.19775 13.5898-6.12346 12.9452-4.51202 11.8172-3.65259 10.3132-3.65259 8.91661-3.65259 7.84232-4.40459 7.19775-5.74745 6.71432-6.87546 6.39203-9.66862 6.39203-13.2675 6.39203-16.4366 6.6606-19.4984 7.09032-20.5727 7.62746-22.1841 8.80918-23.0972 10.3132-23.0972Z" fill="#4D4D4D" transform="matrix(1 0 0 1.00008 301.961 2053.71)"/><path d="M10.3132-27.3944C7.46632-27.3944 4.99545-26.159 3.38402-23.9567 1.82629-21.8618 1.07429-18.4778 1.07429-13.2138 1.07429-8.4869 1.71886-5.15659 3.00801-3.11544 4.56573-0.537145 7.19775 0.859432 10.3132 0.859432 13.2138 0.859432 15.6309-0.322287 17.2961-2.52458 18.8001-4.61945 19.5521-8.05718 19.5521-13.1063 19.5521-17.9944 18.9612-21.3247 17.6721-23.4195 16.0606-25.9978 13.4823-27.3944 10.3132-27.3944ZM10.3132-23.0972C11.7098-23.0972 12.7841-22.3452 13.4286-20.9487 13.9658-19.8207 14.2344-16.9201 14.2344-13.2138 14.2344-10.152 13.9658-7.19775 13.5898-6.12346 12.9452-4.51202 11.8172-3.65259 10.3132-3.65259 8.91661-3.65259 7.84232-4.40459 7.19775-5.74745 6.71432-6.87546 6.39203-9.66862 6.39203-13.2675 6.39203-16.4366 6.6606-19.4984 7.09032-20.5727 7.62746-22.1841 8.80918-23.0972 10.3132-23.0972Z" fill="#4D4D4D" transform="matrix(1 0 0 1.00008 322.587 2053.71)"/><path d="M98.5662 1084.86 107.98 1084.86" stroke="#333333" stroke-width="3.66798" stroke-linejoin="round" stroke-miterlimit="10" fill="none" transform="matrix(1 0 0 1.00008 252.181 1971)"/><path d="M98.5662 831.299 107.98 831.299" stroke="#333333" stroke-width="3.66798" stroke-linejoin="round" stroke-miterlimit="10" fill="none" transform="matrix(1 0 0 1.00008 252.181 1971)"/><path d="M98.5662 577.74 107.98 577.74" stroke="#333333" stroke-width="3.66798" stroke-linejoin="round" stroke-miterlimit="10" fill="none" transform="matrix(1 0 0 1.00008 252.181 1971)"/><path d="M98.5662 324.167 107.98 324.167" stroke="#333333" stroke-width="3.66798" stroke-linejoin="round" stroke-miterlimit="10" fill="none" transform="matrix(1 0 0 1.00008 252.181 1971)"/><path d="M98.5662 70.6077 107.98 70.6077" stroke="#333333" stroke-width="3.66798" stroke-linejoin="round" stroke-miterlimit="10" fill="none" transform="matrix(1 0 0 1.00008 252.181 1971)"/><path d="M294.57 1145.03 294.57 1135.62" stroke="#333333" stroke-width="3.66798" stroke-linejoin="round" stroke-miterlimit="10" fill="none" transform="matrix(1 0 0 1.00008 252.181 1971)"/><path d="M818.891 1145.03 818.891 1135.62" stroke="#333333" stroke-width="3.66798" stroke-linejoin="round" stroke-miterlimit="10" fill="none" transform="matrix(1 0 0 1.00008 252.181 1971)"/><path d="M1343.21 1145.03 1343.21 1135.62" stroke="#333333" stroke-width="3.66798" stroke-linejoin="round" stroke-miterlimit="10" fill="none" transform="matrix(1 0 0 1.00008 252.181 1971)"/><path d="M1867.53 1145.03 1867.53 1135.62" stroke="#333333" stroke-width="3.66798" stroke-linejoin="round" stroke-miterlimit="10" fill="none" transform="matrix(1 0 0 1.00008 252.181 1971)"/><path d="M19.7132-10.3132 16.9201-10.3132 16.9201-26.8036 10.6892-26.8036 0.913147-10.4206 0.913147-5.96231 11.6561-5.96231 11.6561 0 16.9201 0 16.9201-5.96231 19.7132-5.96231ZM11.6561-10.3132 4.67316-10.3132 11.6561-21.8081Z" fill="#4D4D4D" transform="matrix(1 0 0 1.00008 505.499 3151.22)"/><path d="M10.3132-27.3944C7.46632-27.3944 4.99545-26.159 3.38402-23.9567 1.82629-21.8618 1.07429-18.4778 1.07429-13.2138 1.07429-8.4869 1.71886-5.15659 3.00801-3.11544 4.56573-0.537145 7.19775 0.859432 10.3132 0.859432 13.2138 0.859432 15.6309-0.322287 17.2961-2.52458 18.8001-4.61945 19.5521-8.05718 19.5521-13.1063 19.5521-17.9944 18.9612-21.3247 17.6721-23.4195 16.0606-25.9978 13.4823-27.3944 10.3132-27.3944ZM10.3132-23.0972C11.7098-23.0972 12.7841-22.3452 13.4286-20.9487 13.9658-19.8207 14.2344-16.9201 14.2344-13.2138 14.2344-10.152 13.9658-7.19775 13.5898-6.12346 12.9452-4.51202 11.8172-3.65259 10.3132-3.65259 8.91661-3.65259 7.84232-4.40459 7.19775-5.74745 6.71432-6.87546 6.39203-9.66862 6.39203-13.2675 6.39203-16.4366 6.6606-19.4984 7.09032-20.5727 7.62746-22.1841 8.80918-23.0972 10.3132-23.0972Z" fill="#4D4D4D" transform="matrix(1 0 0 1.00008 526.125 3151.22)"/><path d="M10.3132-27.3944C7.46632-27.3944 4.99545-26.159 3.38402-23.9567 1.82629-21.8618 1.07429-18.4778 1.07429-13.2138 1.07429-8.4869 1.71886-5.15659 3.00801-3.11544 4.56573-0.537145 7.19775 0.859432 10.3132 0.859432 13.2138 0.859432 15.6309-0.322287 17.2961-2.52458 18.8001-4.61945 19.5521-8.05718 19.5521-13.1063 19.5521-17.9944 18.9612-21.3247 17.6721-23.4195 16.0606-25.9978 13.4823-27.3944 10.3132-27.3944ZM10.3132-23.0972C11.7098-23.0972 12.7841-22.3452 13.4286-20.9487 13.9658-19.8207 14.2344-16.9201 14.2344-13.2138 14.2344-10.152 13.9658-7.19775 13.5898-6.12346 12.9452-4.51202 11.8172-3.65259 10.3132-3.65259 8.91661-3.65259 7.84232-4.40459 7.19775-5.74745 6.71432-6.87546 6.39203-9.66862 6.39203-13.2675 6.39203-16.4366 6.6606-19.4984 7.09032-20.5727 7.62746-22.1841 8.80918-23.0972 10.3132-23.0972Z" fill="#4D4D4D" transform="matrix(1 0 0 1.00008 546.751 3151.22)"/><path d="M10.3132-27.3944C7.46632-27.3944 4.99545-26.159 3.38402-23.9567 1.82629-21.8618 1.07429-18.4778 1.07429-13.2138 1.07429-8.4869 1.71886-5.15659 3.00801-3.11544 4.56573-0.537145 7.19775 0.859432 10.3132 0.859432 13.2138 0.859432 15.6309-0.322287 17.2961-2.52458 18.8001-4.61945 19.5521-8.05718 19.5521-13.1063 19.5521-17.9944 18.9612-21.3247 17.6721-23.4195 16.0606-25.9978 13.4823-27.3944 10.3132-27.3944ZM10.3132-23.0972C11.7098-23.0972 12.7841-22.3452 13.4286-20.9487 13.9658-19.8207 14.2344-16.9201 14.2344-13.2138 14.2344-10.152 13.9658-7.19775 13.5898-6.12346 12.9452-4.51202 11.8172-3.65259 10.3132-3.65259 8.91661-3.65259 7.84232-4.40459 7.19775-5.74745 6.71432-6.87546 6.39203-9.66862 6.39203-13.2675 6.39203-16.4366 6.6606-19.4984 7.09032-20.5727 7.62746-22.1841 8.80918-23.0972 10.3132-23.0972Z" fill="#4D4D4D" transform="matrix(1 0 0 1.00008 567.378 3151.22)"/><path d="M15.4698-14.6104C16.3829-15.0938 16.8126-15.3624 17.1886-15.7384 18.3167-16.7589 18.9612-18.3704 18.9612-20.1429 18.9612-24.3327 15.3086-27.3944 10.3669-27.3944 5.37145-27.3944 1.71886-24.3327 1.71886-20.0892 1.71886-17.5109 2.79316-15.8995 5.21031-14.6104 2.09487-12.8915 0.805718-10.904 0.805718-7.73489 0.805718-2.63201 4.72688 0.859432 10.3669 0.859432 15.9532 0.859432 19.8744-2.63201 19.8744-7.73489 19.8744-10.904 18.5852-12.8915 15.4698-14.6104ZM10.4206-23.0972C12.7303-23.0972 14.3955-21.647 14.3955-19.6058 14.3955-17.5647 12.7303-16.0606 10.4206-16.0606 8.00346-16.0606 6.39203-17.5109 6.39203-19.6058 6.39203-21.647 8.00346-23.0972 10.4206-23.0972ZM10.3132-12.4618C12.9452-12.4618 14.5566-10.7429 14.5566-7.94975 14.5566-5.37145 12.8915-3.65259 10.3132-3.65259 7.73489-3.65259 6.12346-5.37145 6.12346-8.00346 6.12346-10.7429 7.73489-12.4618 10.3132-12.4618Z" fill="#4D4D4D" transform="matrix(1 0 0 1.00008 1029.82 3151.22)"/><path d="M10.3132-27.3944C7.46632-27.3944 4.99545-26.159 3.38402-23.9567 1.82629-21.8618 1.07429-18.4778 1.07429-13.2138 1.07429-8.4869 1.71886-5.15659 3.00801-3.11544 4.56573-0.537145 7.19775 0.859432 10.3132 0.859432 13.2138 0.859432 15.6309-0.322287 17.2961-2.52458 18.8001-4.61945 19.5521-8.05718 19.5521-13.1063 19.5521-17.9944 18.9612-21.3247 17.6721-23.4195 16.0606-25.9978 13.4823-27.3944 10.3132-27.3944ZM10.3132-23.0972C11.7098-23.0972 12.7841-22.3452 13.4286-20.9487 13.9658-19.8207 14.2344-16.9201 14.2344-13.2138 14.2344-10.152 13.9658-7.19775 13.5898-6.12346 12.9452-4.51202 11.8172-3.65259 10.3132-3.65259 8.91661-3.65259 7.84232-4.40459 7.19775-5.74745 6.71432-6.87546 6.39203-9.66862 6.39203-13.2675 6.39203-16.4366 6.6606-19.4984 7.09032-20.5727 7.62746-22.1841 8.80918-23.0972 10.3132-23.0972Z" fill="#4D4D4D" transform="matrix(1 0 0 1.00008 1050.45 3151.22)"/><path d="M10.3132-27.3944C7.46632-27.3944 4.99545-26.159 3.38402-23.9567 1.82629-21.8618 1.07429-18.4778 1.07429-13.2138 1.07429-8.4869 1.71886-5.15659 3.00801-3.11544 4.56573-0.537145 7.19775 0.859432 10.3132 0.859432 13.2138 0.859432 15.6309-0.322287 17.2961-2.52458 18.8001-4.61945 19.5521-8.05718 19.5521-13.1063 19.5521-17.9944 18.9612-21.3247 17.6721-23.4195 16.0606-25.9978 13.4823-27.3944 10.3132-27.3944ZM10.3132-23.0972C11.7098-23.0972 12.7841-22.3452 13.4286-20.9487 13.9658-19.8207 14.2344-16.9201 14.2344-13.2138 14.2344-10.152 13.9658-7.19775 13.5898-6.12346 12.9452-4.51202 11.8172-3.65259 10.3132-3.65259 8.91661-3.65259 7.84232-4.40459 7.19775-5.74745 6.71432-6.87546 6.39203-9.66862 6.39203-13.2675 6.39203-16.4366 6.6606-19.4984 7.09032-20.5727 7.62746-22.1841 8.80918-23.0972 10.3132-23.0972Z" fill="#4D4D4D" transform="matrix(1 0 0 1.00008 1071.07 3151.22)"/><path d="M10.3132-27.3944C7.46632-27.3944 4.99545-26.159 3.38402-23.9567 1.82629-21.8618 1.07429-18.4778 1.07429-13.2138 1.07429-8.4869 1.71886-5.15659 3.00801-3.11544 4.56573-0.537145 7.19775 0.859432 10.3132 0.859432 13.2138 0.859432 15.6309-0.322287 17.2961-2.52458 18.8001-4.61945 19.5521-8.05718 19.5521-13.1063 19.5521-17.9944 18.9612-21.3247 17.6721-23.4195 16.0606-25.9978 13.4823-27.3944 10.3132-27.3944ZM10.3132-23.0972C11.7098-23.0972 12.7841-22.3452 13.4286-20.9487 13.9658-19.8207 14.2344-16.9201 14.2344-13.2138 14.2344-10.152 13.9658-7.19775 13.5898-6.12346 12.9452-4.51202 11.8172-3.65259 10.3132-3.65259 8.91661-3.65259 7.84232-4.40459 7.19775-5.74745 6.71432-6.87546 6.39203-9.66862 6.39203-13.2675 6.39203-16.4366 6.6606-19.4984 7.09032-20.5727 7.62746-22.1841 8.80918-23.0972 10.3132-23.0972Z" fill="#4D4D4D" transform="matrix(1 0 0 1.00008 1091.7 3151.22)"/><path d="M9.02404-18.4778 9.02404 0 14.2881 0 14.2881-26.8036 10.7966-26.8036C9.93719-23.6344 7.19775-22.023 2.5783-22.023L2.5783-18.4778Z" fill="#4D4D4D" transform="matrix(1 0 0 1.00008 1543.83 3151.22)"/><path d="M19.3372-4.72688 8.00346-4.72688C8.70175-6.17717 9.50747-6.98289 13.4823-9.77604 18.1018-13.2138 19.4984-15.2012 19.4984-18.8538 19.4984-24.0641 15.8995-27.3944 10.2595-27.3944 4.72688-27.3944 1.45029-24.0641 1.45029-18.4241L1.45029-17.4572 6.55317-17.4572 6.55317-18.3167C6.55317-21.3247 8.00346-23.0435 10.4206-23.0435 12.7303-23.0435 14.1806-21.4321 14.1806-18.7464 14.1806-15.7921 13.2675-14.6641 7.30518-10.4206 2.73944-7.35889 1.34286-4.99545 1.12801 0L19.3372 0Z" fill="#4D4D4D" transform="matrix(1 0 0 1.00008 1564.45 3151.22)"/><path d="M10.3132-27.3944C7.46632-27.3944 4.99545-26.159 3.38402-23.9567 1.82629-21.8618 1.07429-18.4778 1.07429-13.2138 1.07429-8.4869 1.71886-5.15659 3.00801-3.11544 4.56573-0.537145 7.19775 0.859432 10.3132 0.859432 13.2138 0.859432 15.6309-0.322287 17.2961-2.52458 18.8001-4.61945 19.5521-8.05718 19.5521-13.1063 19.5521-17.9944 18.9612-21.3247 17.6721-23.4195 16.0606-25.9978 13.4823-27.3944 10.3132-27.3944ZM10.3132-23.0972C11.7098-23.0972 12.7841-22.3452 13.4286-20.9487 13.9658-19.8207 14.2344-16.9201 14.2344-13.2138 14.2344-10.152 13.9658-7.19775 13.5898-6.12346 12.9452-4.51202 11.8172-3.65259 10.3132-3.65259 8.91661-3.65259 7.84232-4.40459 7.19775-5.74745 6.71432-6.87546 6.39203-9.66862 6.39203-13.2675 6.39203-16.4366 6.6606-19.4984 7.09032-20.5727 7.62746-22.1841 8.80918-23.0972 10.3132-23.0972Z" fill="#4D4D4D" transform="matrix(1 0 0 1.00008 1585.08 3151.22)"/><path d="M10.3132-27.3944C7.46632-27.3944 4.99545-26.159 3.38402-23.9567 1.82629-21.8618 1.07429-18.4778 1.07429-13.2138 1.07429-8.4869 1.71886-5.15659 3.00801-3.11544 4.56573-0.537145 7.19775 0.859432 10.3132 0.859432 13.2138 0.859432 15.6309-0.322287 17.2961-2.52458 18.8001-4.61945 19.5521-8.05718 19.5521-13.1063 19.5521-17.9944 18.9612-21.3247 17.6721-23.4195 16.0606-25.9978 13.4823-27.3944 10.3132-27.3944ZM10.3132-23.0972C11.7098-23.0972 12.7841-22.3452 13.4286-20.9487 13.9658-19.8207 14.2344-16.9201 14.2344-13.2138 14.2344-10.152 13.9658-7.19775 13.5898-6.12346 12.9452-4.51202 11.8172-3.65259 10.3132-3.65259 8.91661-3.65259 7.84232-4.40459 7.19775-5.74745 6.71432-6.87546 6.39203-9.66862 6.39203-13.2675 6.39203-16.4366 6.6606-19.4984 7.09032-20.5727 7.62746-22.1841 8.80918-23.0972 10.3132-23.0972Z" fill="#4D4D4D" transform="matrix(1 0 0 1.00008 1605.71 3151.22)"/><path d="M10.3132-27.3944C7.46632-27.3944 4.99545-26.159 3.38402-23.9567 1.82629-21.8618 1.07429-18.4778 1.07429-13.2138 1.07429-8.4869 1.71886-5.15659 3.00801-3.11544 4.56573-0.537145 7.19775 0.859432 10.3132 0.859432 13.2138 0.859432 15.6309-0.322287 17.2961-2.52458 18.8001-4.61945 19.5521-8.05718 19.5521-13.1063 19.5521-17.9944 18.9612-21.3247 17.6721-23.4195 16.0606-25.9978 13.4823-27.3944 10.3132-27.3944ZM10.3132-23.0972C11.7098-23.0972 12.7841-22.3452 13.4286-20.9487 13.9658-19.8207 14.2344-16.9201 14.2344-13.2138 14.2344-10.152 13.9658-7.19775 13.5898-6.12346 12.9452-4.51202 11.8172-3.65259 10.3132-3.65259 8.91661-3.65259 7.84232-4.40459 7.19775-5.74745 6.71432-6.87546 6.39203-9.66862 6.39203-13.2675 6.39203-16.4366 6.6606-19.4984 7.09032-20.5727 7.62746-22.1841 8.80918-23.0972 10.3132-23.0972Z" fill="#4D4D4D" transform="matrix(1 0 0 1.00008 1626.33 3151.22)"/><path d="M9.02404-18.4778 9.02404 0 14.2881 0 14.2881-26.8036 10.7966-26.8036C9.93719-23.6344 7.19775-22.023 2.5783-22.023L2.5783-18.4778Z" fill="#4D4D4D" transform="matrix(1 0 0 1.00008 2068.15 3151.22)"/><path d="M19.1761-20.7338C18.9075-22.4527 18.5852-23.3121 17.8869-24.3327 16.4904-26.2664 14.0195-27.3944 11.1189-27.3944 7.78861-27.3944 5.04917-25.8904 3.43773-23.2047 1.82629-20.6264 1.23543-17.6184 1.23543-12.7303 1.23543-8.11089 1.77258-5.26402 3.11544-3.11544 4.67316-0.59086 7.46632 0.859432 10.6892 0.859432 16.0069 0.859432 19.6058-3.11544 19.6058-8.97033 19.6058-14.1269 16.4366-17.6721 11.8172-17.6721 9.66862-17.6721 8.16461-17.0275 6.49946-15.2549L6.55317-15.8458C6.60689-18.3167 6.71432-19.1224 7.09032-20.1429 7.84232-22.1304 9.13147-23.0972 10.9578-23.0972 12.6766-23.0972 13.5898-22.399 14.2344-20.7338ZM10.528-13.4823C12.9989-13.4823 14.6104-11.5486 14.6104-8.59432 14.6104-5.74745 12.8378-3.65259 10.528-3.65259 8.11089-3.65259 6.44574-5.64003 6.44574-8.4869 6.44574-11.4412 8.11089-13.4823 10.528-13.4823Z" fill="#4D4D4D" transform="matrix(1 0 0 1.00008 2088.77 3151.22)"/><path d="M10.3132-27.3944C7.46632-27.3944 4.99545-26.159 3.38402-23.9567 1.82629-21.8618 1.07429-18.4778 1.07429-13.2138 1.07429-8.4869 1.71886-5.15659 3.00801-3.11544 4.56573-0.537145 7.19775 0.859432 10.3132 0.859432 13.2138 0.859432 15.6309-0.322287 17.2961-2.52458 18.8001-4.61945 19.5521-8.05718 19.5521-13.1063 19.5521-17.9944 18.9612-21.3247 17.6721-23.4195 16.0606-25.9978 13.4823-27.3944 10.3132-27.3944ZM10.3132-23.0972C11.7098-23.0972 12.7841-22.3452 13.4286-20.9487 13.9658-19.8207 14.2344-16.9201 14.2344-13.2138 14.2344-10.152 13.9658-7.19775 13.5898-6.12346 12.9452-4.51202 11.8172-3.65259 10.3132-3.65259 8.91661-3.65259 7.84232-4.40459 7.19775-5.74745 6.71432-6.87546 6.39203-9.66862 6.39203-13.2675 6.39203-16.4366 6.6606-19.4984 7.09032-20.5727 7.62746-22.1841 8.80918-23.0972 10.3132-23.0972Z" fill="#4D4D4D" transform="matrix(1 0 0 1.00008 2109.4 3151.22)"/><path d="M10.3132-27.3944C7.46632-27.3944 4.99545-26.159 3.38402-23.9567 1.82629-21.8618 1.07429-18.4778 1.07429-13.2138 1.07429-8.4869 1.71886-5.15659 3.00801-3.11544 4.56573-0.537145 7.19775 0.859432 10.3132 0.859432 13.2138 0.859432 15.6309-0.322287 17.2961-2.52458 18.8001-4.61945 19.5521-8.05718 19.5521-13.1063 19.5521-17.9944 18.9612-21.3247 17.6721-23.4195 16.0606-25.9978 13.4823-27.3944 10.3132-27.3944ZM10.3132-23.0972C11.7098-23.0972 12.7841-22.3452 13.4286-20.9487 13.9658-19.8207 14.2344-16.9201 14.2344-13.2138 14.2344-10.152 13.9658-7.19775 13.5898-6.12346 12.9452-4.51202 11.8172-3.65259 10.3132-3.65259 8.91661-3.65259 7.84232-4.40459 7.19775-5.74745 6.71432-6.87546 6.39203-9.66862 6.39203-13.2675 6.39203-16.4366 6.6606-19.4984 7.09032-20.5727 7.62746-22.1841 8.80918-23.0972 10.3132-23.0972Z" fill="#4D4D4D" transform="matrix(1 0 0 1.00008 2130.03 3151.22)"/><path d="M10.3132-27.3944C7.46632-27.3944 4.99545-26.159 3.38402-23.9567 1.82629-21.8618 1.07429-18.4778 1.07429-13.2138 1.07429-8.4869 1.71886-5.15659 3.00801-3.11544 4.56573-0.537145 7.19775 0.859432 10.3132 0.859432 13.2138 0.859432 15.6309-0.322287 17.2961-2.52458 18.8001-4.61945 19.5521-8.05718 19.5521-13.1063 19.5521-17.9944 18.9612-21.3247 17.6721-23.4195 16.0606-25.9978 13.4823-27.3944 10.3132-27.3944ZM10.3132-23.0972C11.7098-23.0972 12.7841-22.3452 13.4286-20.9487 13.9658-19.8207 14.2344-16.9201 14.2344-13.2138 14.2344-10.152 13.9658-7.19775 13.5898-6.12346 12.9452-4.51202 11.8172-3.65259 10.3132-3.65259 8.91661-3.65259 7.84232-4.40459 7.19775-5.74745 6.71432-6.87546 6.39203-9.66862 6.39203-13.2675 6.39203-16.4366 6.6606-19.4984 7.09032-20.5727 7.62746-22.1841 8.80918-23.0972 10.3132-23.0972Z" fill="#4D4D4D" transform="matrix(1 0 0 1.00008 2150.65 3151.22)"/></g></g></g><text font-family="Cambria Math,Cambria Math_MSFontService,sans-serif" font-weight="400" font-size="41" transform="matrix(-1.83697e-16 -1 1 -1.83697e-16 245.162 2597)"></text><text font-family="Cambria Math,Cambria Math_MSFontService,sans-serif" font-weight="400" font-size="41" transform="matrix(-1.83697e-16 -1 1 -1.83697e-16 245.162 2564)"> </text><text font-family="Cambria Math,Cambria Math_MSFontService,sans-serif" font-weight="400" font-size="41" transform="matrix(-1.83697e-16 -1 1 -1.83697e-16 245.162 2555)">(</text><text font-family="Cambria Math,Cambria Math_MSFontService,sans-serif" font-weight="400" font-size="41" transform="matrix(-1.83697e-16 -1 1 -1.83697e-16 245.162 2538)">%</text><text font-family="Cambria Math,Cambria Math_MSFontService,sans-serif" font-weight="400" font-size="41" transform="matrix(-1.83697e-16 -1 1 -1.83697e-16 245.162 2501)">)</text><text font-family="Arial,Arial_MSFontService,sans-serif" font-weight="400" font-size="37" transform="matrix(1 0 0 1 290.211 3067)">00</text><text font-family="Arial,Arial_MSFontService,sans-serif" font-weight="400" font-size="37" transform="matrix(1 0 0 1 290.211 2814)">25</text><text font-family="Arial,Arial_MSFontService,sans-serif" font-weight="400" font-size="37" transform="matrix(1 0 0 1 290.211 2561)">50</text><text font-family="Arial,Arial_MSFontService,sans-serif" font-weight="400" font-size="37" transform="matrix(1 0 0 1 290.211 2308)">75</text><text font-family="Arial,Arial_MSFontService,sans-serif" font-weight="400" font-size="37" transform="matrix(1 0 0 1 269.586 2055)">100</text><text font-family="Arial,Arial_MSFontService,sans-serif" font-weight="400" font-size="37" transform="matrix(1 0 0 1 506.282 3163)">4000</text><text font-family="Arial,Arial_MSFontService,sans-serif" font-weight="400" font-size="37" transform="matrix(1 0 0 1 1031.05 3163)">8000</text><text font-family="Arial,Arial_MSFontService,sans-serif" font-weight="400" font-size="37" transform="matrix(1 0 0 1 1545.5 3163)">12000</text><text font-family="Arial,Arial_MSFontService,sans-serif" font-weight="400" font-size="37" transform="matrix(1 0 0 1 2070.27 3163)">16000</text><text font-family="Arial,Arial_MSFontService,sans-serif" font-weight="700" font-size="48" transform="matrix(1 0 0 1 913.515 3251)">CVDR </text><text font-family="Arial,Arial_MSFontService,sans-serif" font-weight="700" font-size="48" transform="matrix(1 0 0 1 1063.62 3251)">(Rate per 10</text><text font-family="Arial,Arial_MSFontService,sans-serif" font-weight="700" font-size="32" transform="matrix(1 0 0 1 1339.76 3237)">5</text><text font-family="Arial,Arial_MSFontService,sans-serif" font-weight="700" font-size="48" transform="matrix(1 0 0 1 1383.88 3251)">individuals)</text></g></svg>