<svg width="1988" height="1248" xmlns="http://www.w3.org/2000/svg" xmlns:xlink="http://www.w3.org/1999/xlink" xml:space="preserve" overflow="hidden"><defs><clipPath id="clip0"><rect x="276" y="332" width="1988" height="1248"/></clipPath><clipPath id="clip1"><rect x="440" y="332" width="1824" height="1103"/></clipPath><clipPath id="clip2"><rect x="440" y="332" width="1824" height="1103"/></clipPath><clipPath id="clip3"><rect x="293" y="332" width="1971" height="1210"/></clipPath></defs><g clip-path="url(#clip0)" transform="translate(-276 -332)"><g clip-path="url(#clip1)"><g clip-path="url(#clip2)"><g clip-path="url(#clip3)"><path d="M-196.967-120.999 2166.64-120.999 2166.64 1330.99-196.967 1330.99Z" fill="#FFFFFF" transform="matrix(1.00023 0 0 1 293.876 332)"/><g><path d="M158.648 915.389 1950.84 915.389" stroke="#EBEBEB" stroke-width="1.83386" stroke-linejoin="round" stroke-miterlimit="10" fill="none" transform="matrix(1.00023 0 0 1 293.876 332)"/></g><g><path d="M158.648 673.356 1950.84 673.356" stroke="#EBEBEB" stroke-width="1.83386" stroke-linejoin="round" stroke-miterlimit="10" fill="none" transform="matrix(1.00023 0 0 1 293.876 332)"/></g><g><path d="M158.648 431.309 1950.84 431.309" stroke="#EBEBEB" stroke-width="1.83386" stroke-linejoin="round" stroke-miterlimit="10" fill="none" transform="matrix(1.00023 0 0 1 293.876 332)"/></g><g><path d="M158.648 189.276 1950.84 189.276" stroke="#EBEBEB" stroke-width="1.83386" stroke-linejoin="round" stroke-miterlimit="10" fill="none" transform="matrix(1.00023 0 0 1 293.876 332)"/></g><g><path d="M231.372 1084.86 231.372 18.839" stroke="#EBEBEB" stroke-width="1.83386" stroke-linejoin="round" stroke-miterlimit="10" fill="none" transform="matrix(1.00023 0 0 1 293.876 332)"/></g><g><path d="M621.431 1084.86 621.431 18.839" stroke="#EBEBEB" stroke-width="1.83386" stroke-linejoin="round" stroke-miterlimit="10" fill="none" transform="matrix(1.00023 0 0 1 293.876 332)"/></g><g><path d="M1011.48 1084.86 1011.48 18.839" stroke="#EBEBEB" stroke-width="1.83386" stroke-linejoin="round" stroke-miterlimit="10" fill="none" transform="matrix(1.00023 0 0 1 293.876 332)"/></g><g><path d="M1401.54 1084.86 1401.54 18.839" stroke="#EBEBEB" stroke-width="1.83386" stroke-linejoin="round" stroke-miterlimit="10" fill="none" transform="matrix(1.00023 0 0 1 293.876 332)"/></g><g><path d="M1791.6 1084.86 1791.6 18.839" stroke="#EBEBEB" stroke-width="1.83386" stroke-linejoin="round" stroke-miterlimit="10" fill="none" transform="matrix(1.00023 0 0 1 293.876 332)"/></g><g><path d="M158.648 1036.41 1950.84 1036.41" stroke="#EBEBEB" stroke-width="3.66771" stroke-linejoin="round" stroke-miterlimit="10" fill="none" transform="matrix(1.00023 0 0 1 293.876 332)"/></g><g><path d="M158.648 794.366 1950.84 794.366" stroke="#EBEBEB" stroke-width="3.66771" stroke-linejoin="round" stroke-miterlimit="10" fill="none" transform="matrix(1.00023 0 0 1 293.876 332)"/></g><g><path d="M158.648 552.333 1950.84 552.333" stroke="#EBEBEB" stroke-width="3.66771" stroke-linejoin="round" stroke-miterlimit="10" fill="none" transform="matrix(1.00023 0 0 1 293.876 332)"/></g><g><path d="M158.648 310.299 1950.84 310.299" stroke="#EBEBEB" stroke-width="3.66771" stroke-linejoin="round" stroke-miterlimit="10" fill="none" transform="matrix(1.00023 0 0 1 293.876 332)"/></g><g><path d="M158.648 68.2661 1950.84 68.2661" stroke="#EBEBEB" stroke-width="3.66771" stroke-linejoin="round" stroke-miterlimit="10" fill="none" transform="matrix(1.00023 0 0 1 293.876 332)"/></g><g><path d="M426.395 1084.86 426.395 18.839" stroke="#EBEBEB" stroke-width="3.66771" stroke-linejoin="round" stroke-miterlimit="10" fill="none" transform="matrix(1.00023 0 0 1 293.876 332)"/></g><g><path d="M816.454 1084.86 816.454 18.839" stroke="#EBEBEB" stroke-width="3.66771" stroke-linejoin="round" stroke-miterlimit="10" fill="none" transform="matrix(1.00023 0 0 1 293.876 332)"/></g><g><path d="M1206.51 1084.86 1206.51 18.839" stroke="#EBEBEB" stroke-width="3.66771" stroke-linejoin="round" stroke-miterlimit="10" fill="none" transform="matrix(1.00023 0 0 1 293.876 332)"/></g><g><path d="M1596.56 1084.86 1596.56 18.839" stroke="#EBEBEB" stroke-width="3.66771" stroke-linejoin="round" stroke-miterlimit="10" fill="none" transform="matrix(1.00023 0 0 1 293.876 332)"/></g><path d="M249.862 85.2118 309.48 87.1186 369.099 89.2133 428.718 91.5228 488.337 94.0606 547.955 96.8402 607.587 99.9017 667.206 103.232 726.825 106.871 786.444 110.832 846.062 115.155 905.681 119.842 965.313 124.931 1024.93 130.436 1084.55 136.385 1144.17 142.79 1203.79 149.678 1263.42 157.077 1323.04 165.012 1382.66 173.485 1442.28 182.509 1501.9 192.123 1561.51 202.314 1621.15 213.11 1680.77 224.497 1740.38 236.501 1800 249.096 1859.62 262.282" stroke="#000000" stroke-width="3.66771" stroke-linejoin="round" stroke-miterlimit="10" stroke-dasharray="3.66771 11.0031" fill="none" transform="matrix(1.00023 0 0 1 293.876 332)"/><path d="M249.862 617.537 309.48 638.391 369.099 659.109 428.718 679.586 488.337 699.768 547.955 719.574 607.587 738.937 667.206 757.776 726.825 776.051 786.444 793.695 846.062 810.681 905.681 826.941 965.313 842.477 1024.93 857.261 1084.55 871.266 1144.17 884.506 1203.79 896.953 1263.42 908.649 1323.04 919.579 1382.66 929.77 1442.28 939.25 1501.9 948.045 1561.51 956.169 1621.15 963.662 1680.77 970.564 1740.38 976.888 1800 982.689 1859.62 987.993" stroke="#000000" stroke-width="3.66771" stroke-linejoin="round" stroke-miterlimit="10" stroke-dasharray="3.66771 11.0031" fill="none" transform="matrix(1.00023 0 0 1 293.876 332)"/><path d="M249.862 138.761 309.48 147.892 369.099 157.99 428.718 169.094 488.337 181.273 547.955 194.499 607.587 208.786 667.206 224.081 726.825 240.315 786.444 257.354 846.062 275.065 905.681 293.273 965.313 311.79 1024.93 330.468 1084.55 349.119 1144.17 367.622 1203.79 385.897 1263.42 403.89 1323.04 421.588 1382.66 438.977 1442.28 456.083 1501.9 472.908 1561.51 489.478 1621.15 505.806 1680.77 521.892 1740.38 537.777 1800 553.434 1859.62 568.889" stroke="#000000" stroke-width="3.66771" stroke-linejoin="round" stroke-miterlimit="10" stroke-dasharray="14.6709 14.6709" fill="none" transform="matrix(1.00023 0 0 1 293.876 332)"/><path d="M249.862 290.239 309.48 301.558 369.099 313.468 428.718 326.01 488.337 339.249 547.955 353.228 607.587 368.038 667.206 383.775 726.825 400.52 786.444 418.379 846.062 437.446 905.681 457.816 965.313 479.541 1024.93 502.637 1084.55 527.035 1144.17 552.615 1203.79 579.201 1263.42 606.54 1323.04 634.322 1382.66 662.265 1442.28 690.02 1501.9 717.318 1561.51 743.865 1621.15 769.431 1680.77 793.815 1740.38 816.871 1800 838.503 1859.62 858.631" stroke="#000000" stroke-width="3.66771" stroke-linejoin="round" stroke-miterlimit="10" stroke-dasharray="14.6709 14.6709" fill="none" transform="matrix(1.00023 0 0 1 293.876 332)"/><path d="M771.512 775.715C771.512 789.559 750.74 789.559 750.74 775.715 750.74 761.858 771.512 761.858 771.512 775.715" stroke="#000000" stroke-width="2.43601" stroke-linecap="round" stroke-linejoin="round" stroke-miterlimit="10" stroke-opacity="0.94902" fill="#A9A9A9" fill-opacity="0.94902" transform="matrix(1.00023 0 0 1 293.876 332)"/><path d="M260.241 196.003C260.241 209.847 239.469 209.847 239.469 196.003 239.469 182.146 260.241 182.146 260.241 196.003" stroke="#000000" stroke-width="2.43601" stroke-linecap="round" stroke-linejoin="round" stroke-miterlimit="10" stroke-opacity="0.94902" fill="#A9A9A9" fill-opacity="0.94902" transform="matrix(1.00023 0 0 1 293.876 332)"/><path d="M1452.36 404.588C1452.36 418.446 1431.59 418.446 1431.59 404.588 1431.59 390.744 1452.36 390.744 1452.36 404.588" stroke="#000000" stroke-width="2.43601" stroke-linecap="round" stroke-linejoin="round" stroke-miterlimit="10" stroke-opacity="0.94902" fill="#A9A9A9" fill-opacity="0.94902" transform="matrix(1.00023 0 0 1 293.876 332)"/><path d="M1013.72 586.493C1013.72 600.35 992.947 600.35 992.947 586.493 992.947 572.649 1013.72 572.649 1013.72 586.493" stroke="#000000" stroke-width="2.43601" stroke-linecap="round" stroke-linejoin="round" stroke-miterlimit="10" stroke-opacity="0.94902" fill="#A9A9A9" fill-opacity="0.94902" transform="matrix(1.00023 0 0 1 293.876 332)"/><path d="M1029.54 285.176C1029.54 299.02 1008.77 299.02 1008.77 285.176 1008.77 271.319 1029.54 271.319 1029.54 285.176" stroke="#000000" stroke-width="2.43601" stroke-linecap="round" stroke-linejoin="round" stroke-miterlimit="10" stroke-opacity="0.94902" fill="#A9A9A9" fill-opacity="0.94902" transform="matrix(1.00023 0 0 1 293.876 332)"/><path d="M707.664 428.798C707.664 442.656 686.891 442.656 686.891 428.798 686.891 414.954 707.664 414.954 707.664 428.798" stroke="#000000" stroke-width="2.43601" stroke-linecap="round" stroke-linejoin="round" stroke-miterlimit="10" stroke-opacity="0.94902" fill="#A9A9A9" fill-opacity="0.94902" transform="matrix(1.00023 0 0 1 293.876 332)"/><path d="M1610.61 535.078C1610.61 548.922 1589.83 548.922 1589.83 535.078 1589.83 521.234 1610.61 521.234 1610.61 535.078" stroke="#000000" stroke-width="2.43601" stroke-linecap="round" stroke-linejoin="round" stroke-miterlimit="10" stroke-opacity="0.94902" fill="#A9A9A9" fill-opacity="0.94902" transform="matrix(1.00023 0 0 1 293.876 332)"/><path d="M1685.71 501.643C1685.71 515.501 1664.93 515.501 1664.93 501.643 1664.93 487.799 1685.71 487.799 1685.71 501.643" stroke="#000000" stroke-width="2.43601" stroke-linecap="round" stroke-linejoin="round" stroke-miterlimit="10" stroke-opacity="0.94902" fill="#A9A9A9" fill-opacity="0.94902" transform="matrix(1.00023 0 0 1 293.876 332)"/><path d="M1760.15 582.746C1760.15 596.59 1739.38 596.59 1739.38 582.746 1739.38 568.889 1760.15 568.889 1760.15 582.746" stroke="#000000" stroke-width="2.43601" stroke-linecap="round" stroke-linejoin="round" stroke-miterlimit="10" stroke-opacity="0.94902" fill="#A9A9A9" fill-opacity="0.94902" transform="matrix(1.00023 0 0 1 293.876 332)"/><path d="M310.944 183.717C310.944 197.561 290.158 197.561 290.158 183.717 290.158 169.86 310.944 169.86 310.944 183.717" stroke="#000000" stroke-width="2.43601" stroke-linecap="round" stroke-linejoin="round" stroke-miterlimit="10" stroke-opacity="0.94902" fill="#A9A9A9" fill-opacity="0.94902" transform="matrix(1.00023 0 0 1 293.876 332)"/><path d="M1614.55 280.208C1614.55 294.052 1593.78 294.052 1593.78 280.208 1593.78 266.364 1614.55 266.364 1614.55 280.208" stroke="#000000" stroke-width="2.43601" stroke-linecap="round" stroke-linejoin="round" stroke-miterlimit="10" stroke-opacity="0.94902" fill="#A9A9A9" fill-opacity="0.94902" transform="matrix(1.00023 0 0 1 293.876 332)"/><path d="M567.251 85.2387C567.251 99.0826 546.465 99.0826 546.465 85.2387 546.465 71.3814 567.251 71.3814 567.251 85.2387" stroke="#000000" stroke-width="2.43601" stroke-linecap="round" stroke-linejoin="round" stroke-miterlimit="10" stroke-opacity="0.94902" fill="#A9A9A9" fill-opacity="0.94902" transform="matrix(1.00023 0 0 1 293.876 332)"/><path d="M601.209 311.817C601.209 325.661 580.437 325.661 580.437 311.817 580.437 297.959 601.209 297.959 601.209 311.817" stroke="#000000" stroke-width="2.43601" stroke-linecap="round" stroke-linejoin="round" stroke-miterlimit="10" stroke-opacity="0.94902" fill="#A9A9A9" fill-opacity="0.94902" transform="matrix(1.00023 0 0 1 293.876 332)"/><path d="M1181.35 716.351C1181.35 730.195 1160.58 730.195 1160.58 716.351 1160.58 702.494 1181.35 702.494 1181.35 716.351" stroke="#000000" stroke-width="2.43601" stroke-linecap="round" stroke-linejoin="round" stroke-miterlimit="10" stroke-opacity="0.94902" fill="#A9A9A9" fill-opacity="0.94902" transform="matrix(1.00023 0 0 1 293.876 332)"/><path d="M1870.01 693.054C1870.01 706.898 1849.24 706.898 1849.24 693.054 1849.24 679.197 1870.01 679.197 1870.01 693.054" stroke="#000000" stroke-width="2.43601" stroke-linecap="round" stroke-linejoin="round" stroke-miterlimit="10" stroke-opacity="0.94902" fill="#A9A9A9" fill-opacity="0.94902" transform="matrix(1.00023 0 0 1 293.876 332)"/><path d="M265.397 173.619C265.397 187.463 244.625 187.463 244.625 173.619 244.625 159.776 265.397 159.776 265.397 173.619" stroke="#000000" stroke-width="2.43601" stroke-linecap="round" stroke-linejoin="round" stroke-miterlimit="10" stroke-opacity="0.94902" fill="#A9A9A9" fill-opacity="0.94902" transform="matrix(1.00023 0 0 1 293.876 332)"/><path d="M388.73 413.934C388.73 427.791 367.958 427.791 367.958 413.934 367.958 400.09 388.73 400.09 388.73 413.934" stroke="#000000" stroke-width="2.43601" stroke-linecap="round" stroke-linejoin="round" stroke-miterlimit="10" stroke-opacity="0.94902" fill="#A9A9A9" fill-opacity="0.94902" transform="matrix(1.00023 0 0 1 293.876 332)"/><path d="M672.47 336.9C672.47 350.743 651.697 350.743 651.697 336.9 651.697 323.042 672.47 323.042 672.47 336.9" stroke="#000000" stroke-width="2.43601" stroke-linecap="round" stroke-linejoin="round" stroke-miterlimit="10" stroke-opacity="0.94902" fill="#A9A9A9" fill-opacity="0.94902" transform="matrix(1.00023 0 0 1 293.876 332)"/><path d="M1579.41 886.063C1579.41 899.907 1558.64 899.907 1558.64 886.063 1558.64 872.206 1579.41 872.206 1579.41 886.063" stroke="#000000" stroke-width="2.43601" stroke-linecap="round" stroke-linejoin="round" stroke-miterlimit="10" stroke-opacity="0.94902" fill="#A9A9A9" fill-opacity="0.94902" transform="matrix(1.00023 0 0 1 293.876 332)"/><path d="M280.96 472.264C280.96 486.108 260.187 486.108 260.187 472.264 260.187 458.406 280.96 458.406 280.96 472.264" stroke="#000000" stroke-width="2.43601" stroke-linecap="round" stroke-linejoin="round" stroke-miterlimit="10" stroke-opacity="0.94902" fill="#A9A9A9" fill-opacity="0.94902" transform="matrix(1.00023 0 0 1 293.876 332)"/><path d="M372.362 85.8295C372.362 99.6868 351.589 99.6868 351.589 85.8295 351.589 71.9856 372.362 71.9856 372.362 85.8295" stroke="#000000" stroke-width="2.43601" stroke-linecap="round" stroke-linejoin="round" stroke-miterlimit="10" stroke-opacity="0.94902" fill="#A9A9A9" fill-opacity="0.94902" transform="matrix(1.00023 0 0 1 293.876 332)"/><path d="M690.517 297.301C690.517 311.159 669.744 311.159 669.744 297.301 669.744 283.458 690.517 283.458 690.517 297.301" stroke="#000000" stroke-width="2.43601" stroke-linecap="round" stroke-linejoin="round" stroke-miterlimit="10" stroke-opacity="0.94902" fill="#A9A9A9" fill-opacity="0.94902" transform="matrix(1.00023 0 0 1 293.876 332)"/><path d="M1786.12 740.642C1786.12 754.499 1765.35 754.499 1765.35 740.642 1765.35 726.798 1786.12 726.798 1786.12 740.642" stroke="#000000" stroke-width="2.43601" stroke-linecap="round" stroke-linejoin="round" stroke-miterlimit="10" stroke-opacity="0.94902" fill="#A9A9A9" fill-opacity="0.94902" transform="matrix(1.00023 0 0 1 293.876 332)"/><path d="M294.267 135.78C294.267 149.624 273.494 149.624 273.494 135.78 273.494 121.936 294.267 121.936 294.267 135.78" stroke="#000000" stroke-width="2.43601" stroke-linecap="round" stroke-linejoin="round" stroke-miterlimit="10" stroke-opacity="0.94902" fill="#A9A9A9" fill-opacity="0.94902" transform="matrix(1.00023 0 0 1 293.876 332)"/><path d="M1581.4 633.194C1581.4 647.038 1560.63 647.038 1560.63 633.194 1560.63 619.35 1581.4 619.35 1581.4 633.194" stroke="#000000" stroke-width="2.43601" stroke-linecap="round" stroke-linejoin="round" stroke-miterlimit="10" stroke-opacity="0.94902" fill="#A9A9A9" fill-opacity="0.94902" transform="matrix(1.00023 0 0 1 293.876 332)"/><path d="M1507.55 748.524C1507.55 762.381 1486.78 762.381 1486.78 748.524 1486.78 734.68 1507.55 734.68 1507.55 748.524" stroke="#000000" stroke-width="2.43601" stroke-linecap="round" stroke-linejoin="round" stroke-miterlimit="10" stroke-opacity="0.94902" fill="#A9A9A9" fill-opacity="0.94902" transform="matrix(1.00023 0 0 1 293.876 332)"/><path d="M1507.29 715.989C1507.29 729.833 1486.52 729.833 1486.52 715.989 1486.52 702.132 1507.29 702.132 1507.29 715.989" stroke="#000000" stroke-width="2.43601" stroke-linecap="round" stroke-linejoin="round" stroke-miterlimit="10" stroke-opacity="0.94902" fill="#A9A9A9" fill-opacity="0.94902" transform="matrix(1.00023 0 0 1 293.876 332)"/><path d="M1312.34 578.288C1312.34 592.146 1291.56 592.146 1291.56 578.288 1291.56 564.444 1312.34 564.444 1312.34 578.288" stroke="#000000" stroke-width="2.43601" stroke-linecap="round" stroke-linejoin="round" stroke-miterlimit="10" stroke-opacity="0.94902" fill="#A9A9A9" fill-opacity="0.94902" transform="matrix(1.00023 0 0 1 293.876 332)"/><path d="M751.371 753.291 770.881 753.291" stroke="#000000" stroke-width="2.93417" stroke-linejoin="round" stroke-miterlimit="10" fill="none" transform="matrix(1.00023 0 0 1 293.876 332)"/><path d="M761.119 753.291 761.119 806.8" stroke="#000000" stroke-width="2.93417" stroke-linejoin="round" stroke-miterlimit="10" fill="none" transform="matrix(1.00023 0 0 1 293.876 332)"/><path d="M751.371 806.8 770.881 806.8" stroke="#000000" stroke-width="2.93417" stroke-linejoin="round" stroke-miterlimit="10" fill="none" transform="matrix(1.00023 0 0 1 293.876 332)"/><path d="M240.1 161.333 259.61 161.333" stroke="#000000" stroke-width="2.93417" stroke-linejoin="round" stroke-miterlimit="10" fill="none" transform="matrix(1.00023 0 0 1 293.876 332)"/><path d="M249.862 161.333 249.862 230.955" stroke="#000000" stroke-width="2.93417" stroke-linejoin="round" stroke-miterlimit="10" fill="none" transform="matrix(1.00023 0 0 1 293.876 332)"/><path d="M240.1 230.955 259.61 230.955" stroke="#000000" stroke-width="2.93417" stroke-linejoin="round" stroke-miterlimit="10" fill="none" transform="matrix(1.00023 0 0 1 293.876 332)"/><path d="M1432.23 346.876 1451.73 346.876" stroke="#000000" stroke-width="2.93417" stroke-linejoin="round" stroke-miterlimit="10" fill="none" transform="matrix(1.00023 0 0 1 293.876 332)"/><path d="M1441.98 346.876 1441.98 522.966" stroke="#000000" stroke-width="2.93417" stroke-linejoin="round" stroke-miterlimit="10" fill="none" transform="matrix(1.00023 0 0 1 293.876 332)"/><path d="M1432.23 522.966 1451.73 522.966" stroke="#000000" stroke-width="2.93417" stroke-linejoin="round" stroke-miterlimit="10" fill="none" transform="matrix(1.00023 0 0 1 293.876 332)"/><path d="M993.578 558.617 1013.09 558.617" stroke="#000000" stroke-width="2.93417" stroke-linejoin="round" stroke-miterlimit="10" fill="none" transform="matrix(1.00023 0 0 1 293.876 332)"/><path d="M1003.34 558.617 1003.34 615.698" stroke="#000000" stroke-width="2.93417" stroke-linejoin="round" stroke-miterlimit="10" fill="none" transform="matrix(1.00023 0 0 1 293.876 332)"/><path d="M993.578 615.698 1013.09 615.698" stroke="#000000" stroke-width="2.93417" stroke-linejoin="round" stroke-miterlimit="10" fill="none" transform="matrix(1.00023 0 0 1 293.876 332)"/><path d="M1009.4 267.009 1028.89 267.009" stroke="#000000" stroke-width="2.93417" stroke-linejoin="round" stroke-miterlimit="10" fill="none" transform="matrix(1.00023 0 0 1 293.876 332)"/><path d="M1019.14 267.009 1019.14 312.609" stroke="#000000" stroke-width="2.93417" stroke-linejoin="round" stroke-miterlimit="10" fill="none" transform="matrix(1.00023 0 0 1 293.876 332)"/><path d="M1009.4 312.609 1028.89 312.609" stroke="#000000" stroke-width="2.93417" stroke-linejoin="round" stroke-miterlimit="10" fill="none" transform="matrix(1.00023 0 0 1 293.876 332)"/><path d="M687.522 407.999 707.033 407.999" stroke="#000000" stroke-width="2.93417" stroke-linejoin="round" stroke-miterlimit="10" fill="none" transform="matrix(1.00023 0 0 1 293.876 332)"/><path d="M697.271 407.999 697.271 449.638" stroke="#000000" stroke-width="2.93417" stroke-linejoin="round" stroke-miterlimit="10" fill="none" transform="matrix(1.00023 0 0 1 293.876 332)"/><path d="M687.522 449.638 707.033 449.638" stroke="#000000" stroke-width="2.93417" stroke-linejoin="round" stroke-miterlimit="10" fill="none" transform="matrix(1.00023 0 0 1 293.876 332)"/><path d="M1590.48 502.624 1609.97 502.624" stroke="#000000" stroke-width="2.93417" stroke-linejoin="round" stroke-miterlimit="10" fill="none" transform="matrix(1.00023 0 0 1 293.876 332)"/><path d="M1600.23 502.624 1600.23 572.971" stroke="#000000" stroke-width="2.93417" stroke-linejoin="round" stroke-miterlimit="10" fill="none" transform="matrix(1.00023 0 0 1 293.876 332)"/><path d="M1590.48 572.971 1609.97 572.971" stroke="#000000" stroke-width="2.93417" stroke-linejoin="round" stroke-miterlimit="10" fill="none" transform="matrix(1.00023 0 0 1 293.876 332)"/><path d="M1665.56 454.969 1685.08 454.969" stroke="#000000" stroke-width="2.93417" stroke-linejoin="round" stroke-miterlimit="10" fill="none" transform="matrix(1.00023 0 0 1 293.876 332)"/><path d="M1675.33 454.969 1675.33 586.452" stroke="#000000" stroke-width="2.93417" stroke-linejoin="round" stroke-miterlimit="10" fill="none" transform="matrix(1.00023 0 0 1 293.876 332)"/><path d="M1665.56 586.452 1685.08 586.452" stroke="#000000" stroke-width="2.93417" stroke-linejoin="round" stroke-miterlimit="10" fill="none" transform="matrix(1.00023 0 0 1 293.876 332)"/><path d="M1740.01 543.336 1759.5 543.336" stroke="#000000" stroke-width="2.93417" stroke-linejoin="round" stroke-miterlimit="10" fill="none" transform="matrix(1.00023 0 0 1 293.876 332)"/><path d="M1749.76 543.336 1749.76 623.137" stroke="#000000" stroke-width="2.93417" stroke-linejoin="round" stroke-miterlimit="10" fill="none" transform="matrix(1.00023 0 0 1 293.876 332)"/><path d="M1740.01 623.137 1759.5 623.137" stroke="#000000" stroke-width="2.93417" stroke-linejoin="round" stroke-miterlimit="10" fill="none" transform="matrix(1.00023 0 0 1 293.876 332)"/><path d="M290.802 120.419 310.299 120.419" stroke="#000000" stroke-width="2.93417" stroke-linejoin="round" stroke-miterlimit="10" fill="none" transform="matrix(1.00023 0 0 1 293.876 332)"/><path d="M300.551 120.419 300.551 271.118" stroke="#000000" stroke-width="2.93417" stroke-linejoin="round" stroke-miterlimit="10" fill="none" transform="matrix(1.00023 0 0 1 293.876 332)"/><path d="M290.802 271.118 310.299 271.118" stroke="#000000" stroke-width="2.93417" stroke-linejoin="round" stroke-miterlimit="10" fill="none" transform="matrix(1.00023 0 0 1 293.876 332)"/><path d="M1594.41 205.376 1613.92 205.376" stroke="#000000" stroke-width="2.93417" stroke-linejoin="round" stroke-miterlimit="10" fill="none" transform="matrix(1.00023 0 0 1 293.876 332)"/><path d="M1604.17 205.376 1604.17 361.029" stroke="#000000" stroke-width="2.93417" stroke-linejoin="round" stroke-miterlimit="10" fill="none" transform="matrix(1.00023 0 0 1 293.876 332)"/><path d="M1594.41 361.029 1613.92 361.029" stroke="#000000" stroke-width="2.93417" stroke-linejoin="round" stroke-miterlimit="10" fill="none" transform="matrix(1.00023 0 0 1 293.876 332)"/><path d="M547.109 82.9828 566.606 82.9828" stroke="#000000" stroke-width="2.93417" stroke-linejoin="round" stroke-miterlimit="10" fill="none" transform="matrix(1.00023 0 0 1 293.876 332)"/><path d="M556.858 82.9828 556.858 87.5348" stroke="#000000" stroke-width="2.93417" stroke-linejoin="round" stroke-miterlimit="10" fill="none" transform="matrix(1.00023 0 0 1 293.876 332)"/><path d="M547.109 87.5348 566.606 87.5348" stroke="#000000" stroke-width="2.93417" stroke-linejoin="round" stroke-miterlimit="10" fill="none" transform="matrix(1.00023 0 0 1 293.876 332)"/><path d="M581.068 265.8 600.565 265.8" stroke="#000000" stroke-width="2.93417" stroke-linejoin="round" stroke-miterlimit="10" fill="none" transform="matrix(1.00023 0 0 1 293.876 332)"/><path d="M590.816 265.8 590.816 357.269" stroke="#000000" stroke-width="2.93417" stroke-linejoin="round" stroke-miterlimit="10" fill="none" transform="matrix(1.00023 0 0 1 293.876 332)"/><path d="M581.068 357.269 600.565 357.269" stroke="#000000" stroke-width="2.93417" stroke-linejoin="round" stroke-miterlimit="10" fill="none" transform="matrix(1.00023 0 0 1 293.876 332)"/><path d="M1161.21 639.72 1180.72 639.72" stroke="#000000" stroke-width="2.93417" stroke-linejoin="round" stroke-miterlimit="10" fill="none" transform="matrix(1.00023 0 0 1 293.876 332)"/><path d="M1170.96 639.72 1170.96 793.534" stroke="#000000" stroke-width="2.93417" stroke-linejoin="round" stroke-miterlimit="10" fill="none" transform="matrix(1.00023 0 0 1 293.876 332)"/><path d="M1161.21 793.534 1180.72 793.534" stroke="#000000" stroke-width="2.93417" stroke-linejoin="round" stroke-miterlimit="10" fill="none" transform="matrix(1.00023 0 0 1 293.876 332)"/><path d="M1849.87 666.36 1869.37 666.36" stroke="#000000" stroke-width="2.93417" stroke-linejoin="round" stroke-miterlimit="10" fill="none" transform="matrix(1.00023 0 0 1 293.876 332)"/><path d="M1859.62 666.36 1859.62 727.496" stroke="#000000" stroke-width="2.93417" stroke-linejoin="round" stroke-miterlimit="10" fill="none" transform="matrix(1.00023 0 0 1 293.876 332)"/><path d="M1849.87 727.496 1869.37 727.496" stroke="#000000" stroke-width="2.93417" stroke-linejoin="round" stroke-miterlimit="10" fill="none" transform="matrix(1.00023 0 0 1 293.876 332)"/><path d="M245.256 142.373 264.766 142.373" stroke="#000000" stroke-width="2.93417" stroke-linejoin="round" stroke-miterlimit="10" fill="none" transform="matrix(1.00023 0 0 1 293.876 332)"/><path d="M255.018 142.373 255.018 204.651" stroke="#000000" stroke-width="2.93417" stroke-linejoin="round" stroke-miterlimit="10" fill="none" transform="matrix(1.00023 0 0 1 293.876 332)"/><path d="M245.256 204.651 264.766 204.651" stroke="#000000" stroke-width="2.93417" stroke-linejoin="round" stroke-miterlimit="10" fill="none" transform="matrix(1.00023 0 0 1 293.876 332)"/><path d="M368.589 374.9 388.099 374.9" stroke="#000000" stroke-width="2.93417" stroke-linejoin="round" stroke-miterlimit="10" fill="none" transform="matrix(1.00023 0 0 1 293.876 332)"/><path d="M378.337 374.9 378.337 455.184" stroke="#000000" stroke-width="2.93417" stroke-linejoin="round" stroke-miterlimit="10" fill="none" transform="matrix(1.00023 0 0 1 293.876 332)"/><path d="M368.589 455.184 388.099 455.184" stroke="#000000" stroke-width="2.93417" stroke-linejoin="round" stroke-miterlimit="10" fill="none" transform="matrix(1.00023 0 0 1 293.876 332)"/><path d="M652.342 328.44 671.839 328.44" stroke="#000000" stroke-width="2.93417" stroke-linejoin="round" stroke-miterlimit="10" fill="none" transform="matrix(1.00023 0 0 1 293.876 332)"/><path d="M662.09 328.44 662.09 345.883" stroke="#000000" stroke-width="2.93417" stroke-linejoin="round" stroke-miterlimit="10" fill="none" transform="matrix(1.00023 0 0 1 293.876 332)"/><path d="M652.342 345.883 671.839 345.883" stroke="#000000" stroke-width="2.93417" stroke-linejoin="round" stroke-miterlimit="10" fill="none" transform="matrix(1.00023 0 0 1 293.876 332)"/><path d="M1559.29 830.862 1578.78 830.862" stroke="#000000" stroke-width="2.93417" stroke-linejoin="round" stroke-miterlimit="10" fill="none" transform="matrix(1.00023 0 0 1 293.876 332)"/><path d="M1569.03 830.862 1569.03 935.773" stroke="#000000" stroke-width="2.93417" stroke-linejoin="round" stroke-miterlimit="10" fill="none" transform="matrix(1.00023 0 0 1 293.876 332)"/><path d="M1559.29 935.773 1578.78 935.773" stroke="#000000" stroke-width="2.93417" stroke-linejoin="round" stroke-miterlimit="10" fill="none" transform="matrix(1.00023 0 0 1 293.876 332)"/><path d="M260.819 433.189 280.329 433.189" stroke="#000000" stroke-width="2.93417" stroke-linejoin="round" stroke-miterlimit="10" fill="none" transform="matrix(1.00023 0 0 1 293.876 332)"/><path d="M270.567 433.189 270.567 517.058" stroke="#000000" stroke-width="2.93417" stroke-linejoin="round" stroke-miterlimit="10" fill="none" transform="matrix(1.00023 0 0 1 293.876 332)"/><path d="M260.819 517.058 280.329 517.058" stroke="#000000" stroke-width="2.93417" stroke-linejoin="round" stroke-miterlimit="10" fill="none" transform="matrix(1.00023 0 0 1 293.876 332)"/><path d="M352.221 77.5312 371.731 77.5312" stroke="#000000" stroke-width="2.93417" stroke-linejoin="round" stroke-miterlimit="10" fill="none" transform="matrix(1.00023 0 0 1 293.876 332)"/><path d="M361.969 77.5312 361.969 95.672" stroke="#000000" stroke-width="2.93417" stroke-linejoin="round" stroke-miterlimit="10" fill="none" transform="matrix(1.00023 0 0 1 293.876 332)"/><path d="M352.221 95.672 371.731 95.672" stroke="#000000" stroke-width="2.93417" stroke-linejoin="round" stroke-miterlimit="10" fill="none" transform="matrix(1.00023 0 0 1 293.876 332)"/><path d="M670.375 273.897 689.885 273.897" stroke="#000000" stroke-width="2.93417" stroke-linejoin="round" stroke-miterlimit="10" fill="none" transform="matrix(1.00023 0 0 1 293.876 332)"/><path d="M680.137 273.897 680.137 321.928" stroke="#000000" stroke-width="2.93417" stroke-linejoin="round" stroke-miterlimit="10" fill="none" transform="matrix(1.00023 0 0 1 293.876 332)"/><path d="M670.375 321.928 689.885 321.928" stroke="#000000" stroke-width="2.93417" stroke-linejoin="round" stroke-miterlimit="10" fill="none" transform="matrix(1.00023 0 0 1 293.876 332)"/><path d="M1765.98 706.563 1785.49 706.563" stroke="#000000" stroke-width="2.93417" stroke-linejoin="round" stroke-miterlimit="10" fill="none" transform="matrix(1.00023 0 0 1 293.876 332)"/><path d="M1775.74 706.563 1775.74 781.301" stroke="#000000" stroke-width="2.93417" stroke-linejoin="round" stroke-miterlimit="10" fill="none" transform="matrix(1.00023 0 0 1 293.876 332)"/><path d="M1765.98 781.301 1785.49 781.301" stroke="#000000" stroke-width="2.93417" stroke-linejoin="round" stroke-miterlimit="10" fill="none" transform="matrix(1.00023 0 0 1 293.876 332)"/><path d="M274.125 100.922 293.636 100.922" stroke="#000000" stroke-width="2.93417" stroke-linejoin="round" stroke-miterlimit="10" fill="none" transform="matrix(1.00023 0 0 1 293.876 332)"/><path d="M283.874 100.922 283.874 180.494" stroke="#000000" stroke-width="2.93417" stroke-linejoin="round" stroke-miterlimit="10" fill="none" transform="matrix(1.00023 0 0 1 293.876 332)"/><path d="M274.125 180.494 293.636 180.494" stroke="#000000" stroke-width="2.93417" stroke-linejoin="round" stroke-miterlimit="10" fill="none" transform="matrix(1.00023 0 0 1 293.876 332)"/><path d="M1561.26 621.754 1580.77 621.754" stroke="#000000" stroke-width="2.93417" stroke-linejoin="round" stroke-miterlimit="10" fill="none" transform="matrix(1.00023 0 0 1 293.876 332)"/><path d="M1571.02 621.754 1571.02 650.811" stroke="#000000" stroke-width="2.93417" stroke-linejoin="round" stroke-miterlimit="10" fill="none" transform="matrix(1.00023 0 0 1 293.876 332)"/><path d="M1561.26 650.811 1580.77 650.811" stroke="#000000" stroke-width="2.93417" stroke-linejoin="round" stroke-miterlimit="10" fill="none" transform="matrix(1.00023 0 0 1 293.876 332)"/><path d="M1487.42 723.723 1506.92 723.723" stroke="#000000" stroke-width="2.93417" stroke-linejoin="round" stroke-miterlimit="10" fill="none" transform="matrix(1.00023 0 0 1 293.876 332)"/><path d="M1497.17 723.723 1497.17 775.326" stroke="#000000" stroke-width="2.93417" stroke-linejoin="round" stroke-miterlimit="10" fill="none" transform="matrix(1.00023 0 0 1 293.876 332)"/><path d="M1487.42 775.326 1506.92 775.326" stroke="#000000" stroke-width="2.93417" stroke-linejoin="round" stroke-miterlimit="10" fill="none" transform="matrix(1.00023 0 0 1 293.876 332)"/><path d="M1487.15 686.636 1506.66 686.636" stroke="#000000" stroke-width="2.93417" stroke-linejoin="round" stroke-miterlimit="10" fill="none" transform="matrix(1.00023 0 0 1 293.876 332)"/><path d="M1496.9 686.636 1496.9 775.943" stroke="#000000" stroke-width="2.93417" stroke-linejoin="round" stroke-miterlimit="10" fill="none" transform="matrix(1.00023 0 0 1 293.876 332)"/><path d="M1487.15 775.943 1506.66 775.943" stroke="#000000" stroke-width="2.93417" stroke-linejoin="round" stroke-miterlimit="10" fill="none" transform="matrix(1.00023 0 0 1 293.876 332)"/><path d="M1292.2 506.316 1311.69 506.316" stroke="#000000" stroke-width="2.93417" stroke-linejoin="round" stroke-miterlimit="10" fill="none" transform="matrix(1.00023 0 0 1 293.876 332)"/><path d="M1301.94 506.316 1301.94 651.926" stroke="#000000" stroke-width="2.93417" stroke-linejoin="round" stroke-miterlimit="10" fill="none" transform="matrix(1.00023 0 0 1 293.876 332)"/><path d="M1292.2 651.926 1311.69 651.926" stroke="#000000" stroke-width="2.93417" stroke-linejoin="round" stroke-miterlimit="10" fill="none" transform="matrix(1.00023 0 0 1 293.876 332)"/><path d="M249.862 196.634 309.48 207.994 369.099 220.187 428.718 233.225 488.337 247.136 547.955 261.946 607.587 277.657 667.206 294.267 726.825 311.763 786.444 330.145 846.062 349.374 905.681 369.408 965.313 390.207 1024.93 411.705 1084.55 433.82 1144.17 456.486 1203.79 479.582 1263.42 503.04 1323.04 526.713 1382.66 550.52 1442.28 574.341 1501.9 598.054 1561.51 621.539 1621.15 644.701 1680.77 667.434 1740.38 689.644 1800 711.235 1859.62 732.142" stroke="#000000" stroke-width="5.50157" stroke-linejoin="round" stroke-miterlimit="10" fill="none" transform="matrix(1.00023 0 0 1 293.876 332)"/><g><path d="M158.648 1084.86 1950.85 1084.86 1950.85 18.8256 158.648 18.8256Z" stroke="#000000" stroke-width="5.50157" stroke-linecap="round" stroke-linejoin="round" stroke-miterlimit="10" fill="none" transform="matrix(1.00023 0 0 1 293.876 332)"/></g><path d="M10.4199-27.3387C7.89545-27.3387 5.63961-26.2108 4.24314-24.3309 2.47069-21.9139 1.61132-18.3153 1.61132-13.2128 1.61132-4.02829 4.67282 0.859369 10.4199 0.859369 16.0595 0.859369 19.1747-4.02829 19.1747-12.998 19.1747-18.3153 18.3153-21.8602 16.5429-24.3309 15.1464-26.2645 12.9442-27.3387 10.4199-27.3387ZM10.4199-24.3846C13.9647-24.3846 15.7909-20.7323 15.7909-13.3202 15.7909-5.53219 14.0185-1.87987 10.3124-1.87987 6.82124-1.87987 5.04879-5.69332 5.04879-13.2128 5.04879-20.7323 6.82124-24.3846 10.4199-24.3846Z" transform="matrix(1.00023 0 0 1 363.393 1380.51)"/><path d="M7.19722-3.92087 3.27635-3.92087 3.27635 0 7.19722 0Z" transform="matrix(1.00023 0 0 1 384.023 1380.51)"/><path d="M10.4199-27.3387C7.89545-27.3387 5.63961-26.2108 4.24314-24.3309 2.47069-21.9139 1.61132-18.3153 1.61132-13.2128 1.61132-4.02829 4.67282 0.859369 10.4199 0.859369 16.0595 0.859369 19.1747-4.02829 19.1747-12.998 19.1747-18.3153 18.3153-21.8602 16.5429-24.3309 15.1464-26.2645 12.9442-27.3387 10.4199-27.3387ZM10.4199-24.3846C13.9647-24.3846 15.7909-20.7323 15.7909-13.3202 15.7909-5.53219 14.0185-1.87987 10.3124-1.87987 6.82124-1.87987 5.04879-5.69332 5.04879-13.2128 5.04879-20.7323 6.82124-24.3846 10.4199-24.3846Z" transform="matrix(1.00023 0 0 1 394.338 1380.51)"/><path d="M10.4199-27.3387C7.89545-27.3387 5.63961-26.2108 4.24314-24.3309 2.47069-21.9139 1.61132-18.3153 1.61132-13.2128 1.61132-4.02829 4.67282 0.859369 10.4199 0.859369 16.0595 0.859369 19.1747-4.02829 19.1747-12.998 19.1747-18.3153 18.3153-21.8602 16.5429-24.3309 15.1464-26.2645 12.9442-27.3387 10.4199-27.3387ZM10.4199-24.3846C13.9647-24.3846 15.7909-20.7323 15.7909-13.3202 15.7909-5.53219 14.0185-1.87987 10.3124-1.87987 6.82124-1.87987 5.04879-5.69332 5.04879-13.2128 5.04879-20.7323 6.82124-24.3846 10.4199-24.3846Z" transform="matrix(1.00023 0 0 1 414.967 1380.51)"/><path d="M10.4199-27.3387C7.89545-27.3387 5.63961-26.2108 4.24314-24.3309 2.47069-21.9139 1.61132-18.3153 1.61132-13.2128 1.61132-4.02829 4.67282 0.859369 10.4199 0.859369 16.0595 0.859369 19.1747-4.02829 19.1747-12.998 19.1747-18.3153 18.3153-21.8602 16.5429-24.3309 15.1464-26.2645 12.9442-27.3387 10.4199-27.3387ZM10.4199-24.3846C13.9647-24.3846 15.7909-20.7323 15.7909-13.3202 15.7909-5.53219 14.0185-1.87987 10.3124-1.87987 6.82124-1.87987 5.04879-5.69332 5.04879-13.2128 5.04879-20.7323 6.82124-24.3846 10.4199-24.3846Z" transform="matrix(1.00023 0 0 1 363.393 1138.46)"/><path d="M7.19722-3.92087 3.27635-3.92087 3.27635 0 7.19722 0Z" transform="matrix(1.00023 0 0 1 384.023 1138.46)"/><path d="M19.121-3.27635 5.04879-3.27635C5.37106-5.53219 6.55269-6.98237 9.88275-9.02338L13.6425-11.1181C17.4022-13.2128 19.3358-16.0058 19.3358-19.3358 19.3358-21.6454 18.4227-23.7401 16.8114-25.244 15.2538-26.6404 13.2665-27.3387 10.7421-27.3387 7.35835-27.3387 4.78024-26.1033 3.33006-23.7938 2.36327-22.3436 1.98729-20.6249 1.87987-17.8856L5.20993-17.8856C5.31735-19.7118 5.53219-20.8397 6.01558-21.7528 6.87495-23.4178 8.6474-24.4383 10.6347-24.4383 13.6425-24.4383 15.8983-22.2362 15.8983-19.2821 15.8983-17.08 14.663-15.2001 12.2997-13.8573L8.80853-11.8163C3.22263-8.59369 1.61132-6.01558 1.28905-0.0537106L19.121-0.0537106Z" transform="matrix(1.00023 0 0 1 394.338 1138.46)"/><path d="M17.993-26.8016 4.13571-26.8016 2.14842-12.1923 5.20993-12.1923C6.76753-14.0722 8.05659-14.7167 10.1513-14.7167 13.7499-14.7167 16.0058-12.246 16.0058-8.27143 16.0058-4.40427 13.7499-2.09471 10.1513-2.09471 7.19722-2.09471 5.42477-3.5449 4.67282-6.55269L1.34276-6.55269C1.77245-4.40427 2.14842-3.33006 2.95408-2.36327 4.45798-0.322263 7.19722 0.859369 10.205 0.859369 15.6298 0.859369 19.3895-3.0615 19.3895-8.75482 19.3895-14.0185 15.8983-17.6708 10.7421-17.6708 8.86224-17.6708 7.35835-17.1874 5.80074-16.0058L6.82124-23.5252 17.993-23.5252Z" transform="matrix(1.00023 0 0 1 414.967 1138.46)"/><path d="M10.4199-27.3387C7.89545-27.3387 5.63961-26.2108 4.24314-24.3309 2.47069-21.9139 1.61132-18.3153 1.61132-13.2128 1.61132-4.02829 4.67282 0.859369 10.4199 0.859369 16.0595 0.859369 19.1747-4.02829 19.1747-12.998 19.1747-18.3153 18.3153-21.8602 16.5429-24.3309 15.1464-26.2645 12.9442-27.3387 10.4199-27.3387ZM10.4199-24.3846C13.9647-24.3846 15.7909-20.7323 15.7909-13.3202 15.7909-5.53219 14.0185-1.87987 10.3124-1.87987 6.82124-1.87987 5.04879-5.69332 5.04879-13.2128 5.04879-20.7323 6.82124-24.3846 10.4199-24.3846Z" transform="matrix(1.00023 0 0 1 363.393 896.428)"/><path d="M7.19722-3.92087 3.27635-3.92087 3.27635 0 7.19722 0Z" transform="matrix(1.00023 0 0 1 384.023 896.428)"/><path d="M17.993-26.8016 4.13571-26.8016 2.14842-12.1923 5.20993-12.1923C6.76753-14.0722 8.05659-14.7167 10.1513-14.7167 13.7499-14.7167 16.0058-12.246 16.0058-8.27143 16.0058-4.40427 13.7499-2.09471 10.1513-2.09471 7.19722-2.09471 5.42477-3.5449 4.67282-6.55269L1.34276-6.55269C1.77245-4.40427 2.14842-3.33006 2.95408-2.36327 4.45798-0.322263 7.19722 0.859369 10.205 0.859369 15.6298 0.859369 19.3895-3.0615 19.3895-8.75482 19.3895-14.0185 15.8983-17.6708 10.7421-17.6708 8.86224-17.6708 7.35835-17.1874 5.80074-16.0058L6.82124-23.5252 17.993-23.5252Z" transform="matrix(1.00023 0 0 1 394.338 896.428)"/><path d="M10.4199-27.3387C7.89545-27.3387 5.63961-26.2108 4.24314-24.3309 2.47069-21.9139 1.61132-18.3153 1.61132-13.2128 1.61132-4.02829 4.67282 0.859369 10.4199 0.859369 16.0595 0.859369 19.1747-4.02829 19.1747-12.998 19.1747-18.3153 18.3153-21.8602 16.5429-24.3309 15.1464-26.2645 12.9442-27.3387 10.4199-27.3387ZM10.4199-24.3846C13.9647-24.3846 15.7909-20.7323 15.7909-13.3202 15.7909-5.53219 14.0185-1.87987 10.3124-1.87987 6.82124-1.87987 5.04879-5.69332 5.04879-13.2128 5.04879-20.7323 6.82124-24.3846 10.4199-24.3846Z" transform="matrix(1.00023 0 0 1 414.967 896.428)"/><path d="M10.4199-27.3387C7.89545-27.3387 5.63961-26.2108 4.24314-24.3309 2.47069-21.9139 1.61132-18.3153 1.61132-13.2128 1.61132-4.02829 4.67282 0.859369 10.4199 0.859369 16.0595 0.859369 19.1747-4.02829 19.1747-12.998 19.1747-18.3153 18.3153-21.8602 16.5429-24.3309 15.1464-26.2645 12.9442-27.3387 10.4199-27.3387ZM10.4199-24.3846C13.9647-24.3846 15.7909-20.7323 15.7909-13.3202 15.7909-5.53219 14.0185-1.87987 10.3124-1.87987 6.82124-1.87987 5.04879-5.69332 5.04879-13.2128 5.04879-20.7323 6.82124-24.3846 10.4199-24.3846Z" transform="matrix(1.00023 0 0 1 363.393 654.394)"/><path d="M7.19722-3.92087 3.27635-3.92087 3.27635 0 7.19722 0Z" transform="matrix(1.00023 0 0 1 384.023 654.394)"/><path d="M19.6581-26.8016 1.71874-26.8016 1.71874-23.5252 16.2206-23.5252C9.82904-14.3944 7.19722-8.80853 5.20993 0L8.75482 0C10.2587-8.59369 13.5888-15.952 19.6581-24.0086Z" transform="matrix(1.00023 0 0 1 394.338 654.394)"/><path d="M17.993-26.8016 4.13571-26.8016 2.14842-12.1923 5.20993-12.1923C6.76753-14.0722 8.05659-14.7167 10.1513-14.7167 13.7499-14.7167 16.0058-12.246 16.0058-8.27143 16.0058-4.40427 13.7499-2.09471 10.1513-2.09471 7.19722-2.09471 5.42477-3.5449 4.67282-6.55269L1.34276-6.55269C1.77245-4.40427 2.14842-3.33006 2.95408-2.36327 4.45798-0.322263 7.19722 0.859369 10.205 0.859369 15.6298 0.859369 19.3895-3.0615 19.3895-8.75482 19.3895-14.0185 15.8983-17.6708 10.7421-17.6708 8.86224-17.6708 7.35835-17.1874 5.80074-16.0058L6.82124-23.5252 17.993-23.5252Z" transform="matrix(1.00023 0 0 1 414.967 654.394)"/><path d="M9.77532-19.4969 9.77532 0 13.1054 0 13.1054-27.3387 10.9032-27.3387C9.77532-23.1493 9.02338-22.5584 3.86716-21.9139L3.86716-19.4969Z" transform="matrix(1.00023 0 0 1 363.393 412.361)"/><path d="M7.19722-3.92087 3.27635-3.92087 3.27635 0 7.19722 0Z" transform="matrix(1.00023 0 0 1 384.023 412.361)"/><path d="M10.4199-27.3387C7.89545-27.3387 5.63961-26.2108 4.24314-24.3309 2.47069-21.9139 1.61132-18.3153 1.61132-13.2128 1.61132-4.02829 4.67282 0.859369 10.4199 0.859369 16.0595 0.859369 19.1747-4.02829 19.1747-12.998 19.1747-18.3153 18.3153-21.8602 16.5429-24.3309 15.1464-26.2645 12.9442-27.3387 10.4199-27.3387ZM10.4199-24.3846C13.9647-24.3846 15.7909-20.7323 15.7909-13.3202 15.7909-5.53219 14.0185-1.87987 10.3124-1.87987 6.82124-1.87987 5.04879-5.69332 5.04879-13.2128 5.04879-20.7323 6.82124-24.3846 10.4199-24.3846Z" transform="matrix(1.00023 0 0 1 394.338 412.361)"/><path d="M10.4199-27.3387C7.89545-27.3387 5.63961-26.2108 4.24314-24.3309 2.47069-21.9139 1.61132-18.3153 1.61132-13.2128 1.61132-4.02829 4.67282 0.859369 10.4199 0.859369 16.0595 0.859369 19.1747-4.02829 19.1747-12.998 19.1747-18.3153 18.3153-21.8602 16.5429-24.3309 15.1464-26.2645 12.9442-27.3387 10.4199-27.3387ZM10.4199-24.3846C13.9647-24.3846 15.7909-20.7323 15.7909-13.3202 15.7909-5.53219 14.0185-1.87987 10.3124-1.87987 6.82124-1.87987 5.04879-5.69332 5.04879-13.2128 5.04879-20.7323 6.82124-24.3846 10.4199-24.3846Z" transform="matrix(1.00023 0 0 1 414.967 412.361)"/><path d="M149.221 1036.41 158.648 1036.41" stroke="#333333" stroke-width="3.66771" stroke-linejoin="round" stroke-miterlimit="10" fill="none" transform="matrix(1.00023 0 0 1 293.876 332)"/><path d="M149.221 794.366 158.648 794.366" stroke="#333333" stroke-width="3.66771" stroke-linejoin="round" stroke-miterlimit="10" fill="none" transform="matrix(1.00023 0 0 1 293.876 332)"/><path d="M149.221 552.333 158.648 552.333" stroke="#333333" stroke-width="3.66771" stroke-linejoin="round" stroke-miterlimit="10" fill="none" transform="matrix(1.00023 0 0 1 293.876 332)"/><path d="M149.221 310.299 158.648 310.299" stroke="#333333" stroke-width="3.66771" stroke-linejoin="round" stroke-miterlimit="10" fill="none" transform="matrix(1.00023 0 0 1 293.876 332)"/><path d="M149.221 68.2661 158.648 68.2661" stroke="#333333" stroke-width="3.66771" stroke-linejoin="round" stroke-miterlimit="10" fill="none" transform="matrix(1.00023 0 0 1 293.876 332)"/><path d="M426.395 1094.29 426.395 1084.86" stroke="#333333" stroke-width="3.66771" stroke-linejoin="round" stroke-miterlimit="10" fill="none" transform="matrix(1.00023 0 0 1 293.876 332)"/><path d="M816.454 1094.29 816.454 1084.86" stroke="#333333" stroke-width="3.66771" stroke-linejoin="round" stroke-miterlimit="10" fill="none" transform="matrix(1.00023 0 0 1 293.876 332)"/><path d="M1206.51 1094.29 1206.51 1084.86" stroke="#333333" stroke-width="3.66771" stroke-linejoin="round" stroke-miterlimit="10" fill="none" transform="matrix(1.00023 0 0 1 293.876 332)"/><path d="M1596.56 1094.29 1596.56 1084.86" stroke="#333333" stroke-width="3.66771" stroke-linejoin="round" stroke-miterlimit="10" fill="none" transform="matrix(1.00023 0 0 1 293.876 332)"/><path d="M17.993-26.8016 4.13571-26.8016 2.14842-12.1923 5.20993-12.1923C6.76753-14.0722 8.05659-14.7167 10.1513-14.7167 13.7499-14.7167 16.0058-12.246 16.0058-8.27143 16.0058-4.40427 13.7499-2.09471 10.1513-2.09471 7.19722-2.09471 5.42477-3.5449 4.67282-6.55269L1.34276-6.55269C1.77245-4.40427 2.14842-3.33006 2.95408-2.36327 4.45798-0.322263 7.19722 0.859369 10.205 0.859369 15.6298 0.859369 19.3895-3.0615 19.3895-8.75482 19.3895-14.0185 15.8983-17.6708 10.7421-17.6708 8.86224-17.6708 7.35835-17.1874 5.80074-16.0058L6.82124-23.5252 17.993-23.5252Z" transform="matrix(1.00023 0 0 1 710.053 1461.38)"/><path d="M9.77532-19.4969 9.77532 0 13.1054 0 13.1054-27.3387 10.9032-27.3387C9.77532-23.1493 9.02338-22.5584 3.86716-21.9139L3.86716-19.4969Z" transform="matrix(1.00023 0 0 1 1089.89 1461.38)"/><path d="M10.4199-27.3387C7.89545-27.3387 5.63961-26.2108 4.24314-24.3309 2.47069-21.9139 1.61132-18.3153 1.61132-13.2128 1.61132-4.02829 4.67282 0.859369 10.4199 0.859369 16.0595 0.859369 19.1747-4.02829 19.1747-12.998 19.1747-18.3153 18.3153-21.8602 16.5429-24.3309 15.1464-26.2645 12.9442-27.3387 10.4199-27.3387ZM10.4199-24.3846C13.9647-24.3846 15.7909-20.7323 15.7909-13.3202 15.7909-5.53219 14.0185-1.87987 10.3124-1.87987 6.82124-1.87987 5.04879-5.69332 5.04879-13.2128 5.04879-20.7323 6.82124-24.3846 10.4199-24.3846Z" transform="matrix(1.00023 0 0 1 1110.52 1461.38)"/><path d="M9.77532-19.4969 9.77532 0 13.1054 0 13.1054-27.3387 10.9032-27.3387C9.77532-23.1493 9.02338-22.5584 3.86716-21.9139L3.86716-19.4969Z" transform="matrix(1.00023 0 0 1 1480.04 1461.38)"/><path d="M17.993-26.8016 4.13571-26.8016 2.14842-12.1923 5.20993-12.1923C6.76753-14.0722 8.05659-14.7167 10.1513-14.7167 13.7499-14.7167 16.0058-12.246 16.0058-8.27143 16.0058-4.40427 13.7499-2.09471 10.1513-2.09471 7.19722-2.09471 5.42477-3.5449 4.67282-6.55269L1.34276-6.55269C1.77245-4.40427 2.14842-3.33006 2.95408-2.36327 4.45798-0.322263 7.19722 0.859369 10.205 0.859369 15.6298 0.859369 19.3895-3.0615 19.3895-8.75482 19.3895-14.0185 15.8983-17.6708 10.7421-17.6708 8.86224-17.6708 7.35835-17.1874 5.80074-16.0058L6.82124-23.5252 17.993-23.5252Z" transform="matrix(1.00023 0 0 1 1500.67 1461.38)"/><path d="M19.121-3.27635 5.04879-3.27635C5.37106-5.53219 6.55269-6.98237 9.88275-9.02338L13.6425-11.1181C17.4022-13.2128 19.3358-16.0058 19.3358-19.3358 19.3358-21.6454 18.4227-23.7401 16.8114-25.244 15.2538-26.6404 13.2665-27.3387 10.7421-27.3387 7.35835-27.3387 4.78024-26.1033 3.33006-23.7938 2.36327-22.3436 1.98729-20.6249 1.87987-17.8856L5.20993-17.8856C5.31735-19.7118 5.53219-20.8397 6.01558-21.7528 6.87495-23.4178 8.6474-24.4383 10.6347-24.4383 13.6425-24.4383 15.8983-22.2362 15.8983-19.2821 15.8983-17.08 14.663-15.2001 12.2997-13.8573L8.80853-11.8163C3.22263-8.59369 1.61132-6.01558 1.28905-0.0537106L19.121-0.0537106Z" transform="matrix(1.00023 0 0 1 1870.17 1461.38)"/><path d="M10.4199-27.3387C7.89545-27.3387 5.63961-26.2108 4.24314-24.3309 2.47069-21.9139 1.61132-18.3153 1.61132-13.2128 1.61132-4.02829 4.67282 0.859369 10.4199 0.859369 16.0595 0.859369 19.1747-4.02829 19.1747-12.998 19.1747-18.3153 18.3153-21.8602 16.5429-24.3309 15.1464-26.2645 12.9442-27.3387 10.4199-27.3387ZM10.4199-24.3846C13.9647-24.3846 15.7909-20.7323 15.7909-13.3202 15.7909-5.53219 14.0185-1.87987 10.3124-1.87987 6.82124-1.87987 5.04879-5.69332 5.04879-13.2128 5.04879-20.7323 6.82124-24.3846 10.4199-24.3846Z" transform="matrix(1.00023 0 0 1 1890.8 1461.38)"/><path d="M17.9393-8.27143 20.7323 0 24.7069 0 14.9853-27.5535 10.4736-27.5535 0.644527 0 4.40427 0 7.30464-8.27143ZM16.9188-11.2255 8.16401-11.2255 12.7294-23.7938Z" transform="matrix(1.00023 0 0 1 1213.05 1509.47)"/><path d="M15.2538-19.8192 15.2538-16.9188C13.6962-19.3358 11.9237-20.3563 9.45306-20.3563 4.67282-20.3563 1.34276-15.8983 1.34276-9.56048 1.34276-6.23043 2.09471-3.81345 3.81345-1.82616 5.31735-0.0537106 7.19722 0.859369 9.23822 0.859369 11.6015 0.859369 13.3202-0.214842 14.9853-2.68553L14.9853-1.66503C14.9853 3.65232 13.4814 5.5859 9.56048 5.5859 6.87495 5.5859 5.47848 4.51169 5.15622 2.25584L1.98729 2.25584C2.25584 5.96187 5.15622 8.21772 9.50677 8.21772 12.4071 8.21772 14.8241 7.30464 16.1132 5.69332 17.6171 3.86716 18.2079 1.39647 18.2079-3.27635L18.2079-19.8192ZM9.77532-17.4559C13.1054-17.4559 14.9853-14.663 14.9853-9.6679 14.9853-4.83395 13.0517-2.041 9.77532-2.041 6.49898-2.041 4.61911-4.88766 4.61911-9.77532 4.61911-14.6093 6.49898-17.4559 9.77532-17.4559Z" transform="matrix(1.00023 0 0 1 1237.11 1509.47)"/><path d="M19.3895-8.86224C19.3895-11.87 19.1747-13.6962 18.5839-15.1464 17.2948-18.4227 14.287-20.3563 10.581-20.3563 5.04879-20.3563 1.5039-16.1669 1.5039-9.6679 1.5039-3.11521 4.94137 0.859369 10.5273 0.859369 15.039 0.859369 18.2079-1.71874 18.9598-6.01558L15.7909-6.01558C14.9315-3.38377 13.1591-2.041 10.6347-2.041 8.6474-2.041 6.92866-2.95408 5.85445-4.61911 5.1025-5.74703 4.83395-6.87495 4.78024-8.86224ZM4.88766-11.4404C5.15622-15.0927 7.35835-17.4559 10.5273-17.4559 13.7499-17.4559 16.0058-14.9853 16.0058-11.4404Z" transform="matrix(1.00023 0 0 1 1257.74 1509.47)"/><path d="M20.3563-10.0976 1.87987-17.9393 1.87987-14.9315 16.8114-8.75482 1.87987-2.63182 1.87987 0.322263 20.3563-7.46577Z" transform="matrix(1.00023 0 0 1 1288.69 1509.47)"/><path d="M20.1952-13.3739 1.87987-13.3739 1.87987-10.6884 20.1952-10.6884ZM20.1952-6.82124 1.87987-6.82124 1.87987-4.18942 20.1952-4.18942Z" transform="matrix(1.00023 0 0 1 1309.32 1509.47)"/><path d="M18.8524-20.2489C18.2079-24.7069 15.3075-27.3387 11.2255-27.3387 8.27143-27.3387 5.63961-25.8885 4.02829-23.4178 2.36327-20.7323 1.61132-17.4559 1.61132-12.4609 1.61132-7.84174 2.25584-4.94137 3.92087-2.5244 5.31735-0.322263 7.68061 0.859369 10.6347 0.859369 15.7372 0.859369 19.3895-2.95408 19.3895-8.27143 19.3895-13.3202 16.0058-16.8651 11.1718-16.8651 8.53998-16.8651 6.44527-15.8983 5.04879-13.8573 5.04879-20.6249 7.19722-24.3846 11.0107-24.3846 13.3739-24.3846 14.9853-22.8807 15.5224-20.2489ZM10.7958-13.911C13.9647-13.911 16.0058-11.6552 16.0058-8.00288 16.0058-4.5654 13.7499-2.09471 10.6884-2.09471 7.57319-2.09471 5.20993-4.67282 5.20993-8.16401 5.20993-11.5478 7.46577-13.911 10.7958-13.911Z" transform="matrix(1.00023 0 0 1 1340.26 1509.47)"/><path d="M17.993-26.8016 4.13571-26.8016 2.14842-12.1923 5.20993-12.1923C6.76753-14.0722 8.05659-14.7167 10.1513-14.7167 13.7499-14.7167 16.0058-12.246 16.0058-8.27143 16.0058-4.40427 13.7499-2.09471 10.1513-2.09471 7.19722-2.09471 5.42477-3.5449 4.67282-6.55269L1.34276-6.55269C1.77245-4.40427 2.14842-3.33006 2.95408-2.36327 4.45798-0.322263 7.19722 0.859369 10.205 0.859369 15.6298 0.859369 19.3895-3.0615 19.3895-8.75482 19.3895-14.0185 15.8983-17.6708 10.7421-17.6708 8.86224-17.6708 7.35835-17.1874 5.80074-16.0058L6.82124-23.5252 17.993-23.5252Z" transform="matrix(1.00023 0 0 1 1360.89 1509.47)"/><path d="M14.663-19.8192 9.18451-4.40427 4.13571-19.8192 0.751948-19.8192 7.46577 0.0537106 6.23043 3.22263C5.69332 4.61911 5.04879 5.15622 3.70603 5.15622 3.16892 5.15622 2.73924 5.04879 2.041 4.94137L2.041 7.73432C2.68553 8.1103 3.33006 8.21772 4.13571 8.21772 5.15622 8.21772 6.28414 7.89545 7.0898 7.30464 8.1103 6.55269 8.6474 5.74703 9.23822 4.13571L18.1005-19.8192Z" transform="matrix(1.00023 0 0 1 1391.84 1509.47)"/><path d="M19.3895-8.86224C19.3895-11.87 19.1747-13.6962 18.5839-15.1464 17.2948-18.4227 14.287-20.3563 10.581-20.3563 5.04879-20.3563 1.5039-16.1669 1.5039-9.6679 1.5039-3.11521 4.94137 0.859369 10.5273 0.859369 15.039 0.859369 18.2079-1.71874 18.9598-6.01558L15.7909-6.01558C14.9315-3.38377 13.1591-2.041 10.6347-2.041 8.6474-2.041 6.92866-2.95408 5.85445-4.61911 5.1025-5.74703 4.83395-6.87495 4.78024-8.86224ZM4.88766-11.4404C5.15622-15.0927 7.35835-17.4559 10.5273-17.4559 13.7499-17.4559 16.0058-14.9853 16.0058-11.4404Z" transform="matrix(1.00023 0 0 1 1409.03 1509.47)"/><path d="M20.2489-1.82616C19.8729-1.77245 19.7118-1.77245 19.5506-1.77245 18.4764-1.77245 17.8319-2.36327 17.8319-3.33006L17.8319-14.9853C17.8319-18.4764 15.2538-20.3563 10.4199-20.3563 7.46577-20.3563 5.15622-19.5506 3.81345-18.1005 2.90037-17.08 2.5244-15.8983 2.47069-13.9647L5.63961-13.9647C5.90816-16.3817 7.35835-17.4559 10.2587-17.4559 13.1591-17.4559 14.7167-16.4354 14.7167-14.5019L14.7167-13.6962C14.663-12.3534 13.9647-11.8163 11.4404-11.4941 6.98237-10.9032 6.28414-10.7958 5.04879-10.2587 2.73924-9.29193 1.61132-7.57319 1.61132-4.99508 1.61132-1.39647 4.082 0.859369 8.1103 0.859369 10.581 0.859369 12.5683 0 14.8241-2.041 15.039 0 16.0058 0.859369 18.1005 0.859369 18.745 0.859369 19.1747 0.805659 20.2489 0.537106ZM14.7167-6.23043C14.7167-5.15622 14.3944-4.51169 13.4814-3.65232 12.1923-2.47069 10.6347-1.87987 8.75482-1.87987 6.33785-1.87987 4.88766-3.0615 4.88766-5.04879 4.88766-7.14351 6.23043-8.21772 9.6679-8.70111 12.998-9.1308 13.6425-9.29193 14.7167-9.77532Z" transform="matrix(1.00023 0 0 1 1429.66 1509.47)"/><path d="M2.63182-19.8192 2.63182 0 5.80074 0 5.80074-10.2587C5.80074-15.039 7.78803-17.1874 12.1386-17.08L12.1386-20.2489C11.6015-20.3563 11.2792-20.3563 10.9032-20.3563 8.86224-20.3563 7.35835-19.1747 5.53219-16.2206L5.53219-19.8192Z" transform="matrix(1.00023 0 0 1 1450.29 1509.47)"/><path d="M16.5429-14.287C16.5429-18.2079 13.9647-20.3563 9.39935-20.3563 4.78024-20.3563 1.77245-17.993 1.77245-14.3407 1.77245-11.2255 3.38377-9.77532 8.05659-8.6474L11.0107-7.89545C13.2128-7.35835 14.0722-6.55269 14.0722-5.15622 14.0722-3.27635 12.1923-2.041 9.45306-2.041 7.73432-2.041 6.33785-2.5244 5.53219-3.38377 5.04879-3.92087 4.78024-4.51169 4.61911-5.90816L1.28905-5.90816C1.45019-1.34276 4.02829 0.859369 9.18451 0.859369 14.1796 0.859369 17.3485-1.61132 17.3485-5.42477 17.3485-8.37885 15.6835-9.99017 11.7626-10.9032L8.75482-11.6552C6.17672-12.246 5.04879-13.1054 5.04879-14.5019 5.04879-16.328 6.71382-17.4559 9.23822-17.4559 11.8163-17.4559 13.1591-16.3817 13.2128-14.287Z" transform="matrix(1.00023 0 0 1 1464.04 1509.47)"/><path d="M8.21772-2.041 8.21772-5.20993-2.09471-5.20993C-0.0537106-6.87495 0.859369-8.75482 0.859369-11.2792 0.859369-16.4354-3.27635-19.7655-9.56048-19.7655-16.2206-19.7655-20.3563-16.5429-20.3563-11.2792-20.3563-8.59369-19.1747-6.44527-16.8114-4.94137L-19.8192-4.94137-19.8192-2.041ZM-17.4559-10.7421C-17.4559-14.2333-14.3944-16.4891-9.6679-16.4891-5.15622-16.4891-2.09471-14.1796-2.09471-10.7421-2.09471-7.35835-5.1025-5.20993-9.77532-5.20993-14.3944-5.20993-17.4559-7.35835-17.4559-10.7421Z" transform="matrix(1.00023 0 0 1 340.289 907.912)"/><path d="M-14.287-16.5429C-18.2079-16.5429-20.3563-13.9647-20.3563-9.39935-20.3563-4.78024-17.993-1.77245-14.3407-1.77245-11.2255-1.77245-9.77532-3.38377-8.6474-8.05659L-7.89545-11.0107C-7.35835-13.2128-6.55269-14.0722-5.15622-14.0722-3.27635-14.0722-2.041-12.1923-2.041-9.45306-2.041-7.73432-2.5244-6.33785-3.38377-5.53219-3.92087-5.04879-4.51169-4.78024-5.90816-4.61911L-5.90816-1.28905C-1.34276-1.45019 0.859369-4.02829 0.859369-9.18451 0.859369-14.1796-1.61132-17.3485-5.42477-17.3485-8.37885-17.3485-9.99017-15.6835-10.9032-11.7626L-11.6552-8.75482C-12.246-6.17672-13.1054-5.04879-14.5019-5.04879-16.328-5.04879-17.4559-6.71382-17.4559-9.23822-17.4559-11.8163-16.3817-13.1591-14.287-13.2128Z" transform="matrix(1.00023 0 0 1 340.289 887.287)"/><path d="M-19.8192-5.69332-19.8192-2.5244 0-2.5244 0-5.69332ZM-27.5535-5.69332-27.5535-2.47069-23.5789-2.47069-23.5789-5.69332Z" transform="matrix(1.00023 0 0 1 340.289 866.662)"/></g></g></g><text font-family="Arial,Arial_MSFontService,sans-serif" font-weight="700" font-size="48" transform="matrix(1 0 0 1 1183.07 1539)">Age</text><text font-family="Arial,Arial_MSFontService,sans-serif" font-weight="700" font-size="48" transform="matrix(1 0 0 1 1287.34 1539)"> 65 years</text><text font-family="Cambria Math,Cambria Math_MSFontService,sans-serif" font-weight="400" font-size="41" transform="matrix(-1.83697e-16 -1 1 -1.83697e-16 330.511 932)"></text><text font-family="Cambria Math,Cambria Math_MSFontService,sans-serif" font-weight="400" font-size="41" transform="matrix(-1.83697e-16 -1 1 -1.83697e-16 330.511 900)"> </text><text font-family="Cambria Math,Cambria Math_MSFontService,sans-serif" font-weight="400" font-size="41" transform="matrix(-1.83697e-16 -1 1 -1.83697e-16 330.511 891)">(</text><text font-family="Cambria Math,Cambria Math_MSFontService,sans-serif" font-weight="400" font-size="41" transform="matrix(-1.83697e-16 -1 1 -1.83697e-16 330.511 874)">%</text><text font-family="Cambria Math,Cambria Math_MSFontService,sans-serif" font-weight="400" font-size="41" transform="matrix(-1.83697e-16 -1 1 -1.83697e-16 330.511 837)">)</text><text font-family="Arial,Arial_MSFontService,sans-serif" font-weight="400" font-size="37" transform="matrix(1 0 0 1 373.516 1381)">00</text><text font-family="Arial,Arial_MSFontService,sans-serif" font-weight="400" font-size="37" transform="matrix(1 0 0 1 373.516 1139)">25</text><text font-family="Arial,Arial_MSFontService,sans-serif" font-weight="400" font-size="37" transform="matrix(1 0 0 1 373.516 897)">50</text><text font-family="Arial,Arial_MSFontService,sans-serif" font-weight="400" font-size="37" transform="matrix(1 0 0 1 373.516 655)">75</text><text font-family="Arial,Arial_MSFontService,sans-serif" font-weight="400" font-size="37" transform="matrix(1 0 0 1 352.891 413)">100</text><text font-family="Arial,Arial_MSFontService,sans-serif" font-weight="400" font-size="37" transform="matrix(1 0 0 1 711.503 1471)">5</text><text font-family="Arial,Arial_MSFontService,sans-serif" font-weight="400" font-size="37" transform="matrix(1 0 0 1 1090.77 1471)">1</text><text font-family="Arial,Arial_MSFontService,sans-serif" font-weight="400" font-size="37" transform="matrix(1 0 0 1 1111.4 1471)">0</text><text font-family="Arial,Arial_MSFontService,sans-serif" font-weight="400" font-size="37" transform="matrix(1 0 0 1 1480.36 1471)">15</text><text font-family="Arial,Arial_MSFontService,sans-serif" font-weight="400" font-size="37" transform="matrix(1 0 0 1 1869.94 1471)">20</text></g></svg>