<svg width="1989" height="1312" xmlns="http://www.w3.org/2000/svg" xmlns:xlink="http://www.w3.org/1999/xlink" xml:space="preserve" overflow="hidden"><defs><clipPath id="clip0"><rect x="298" y="1886" width="1989" height="1312"/></clipPath><clipPath id="clip1"><rect x="447" y="1886" width="1840" height="1213"/></clipPath><clipPath id="clip2"><rect x="447" y="1886" width="1840" height="1213"/></clipPath><clipPath id="clip3"><rect x="359" y="1886" width="1928" height="1213"/></clipPath></defs><g clip-path="url(#clip0)" transform="translate(-298 -1886)"><text font-family="Arial,Arial_MSFontService,sans-serif" font-weight="700" font-size="48" transform="matrix(1 0 0 1 1212.29 3158)">SMA (years)</text><g clip-path="url(#clip1)"><g clip-path="url(#clip2)"><g clip-path="url(#clip3)"><path d="M-192.743-118.74 2120.17-118.74 2120.17 1306.15-192.743 1306.15Z" fill="#FFFFFF" transform="matrix(1 0 0 1.02156 359.569 1886)"/><g><path d="M105.656 940.287 1909 940.287" stroke="#EBEBEB" stroke-width="1.79453" stroke-linejoin="round" stroke-miterlimit="10" fill="none" transform="matrix(1 0 0 1.02156 359.569 1886)"/></g><g><path d="M105.656 691.422 1909 691.422" stroke="#EBEBEB" stroke-width="1.79453" stroke-linejoin="round" stroke-miterlimit="10" fill="none" transform="matrix(1 0 0 1.02156 359.569 1886)"/></g><g><path d="M105.656 442.557 1909 442.557" stroke="#EBEBEB" stroke-width="1.79453" stroke-linejoin="round" stroke-miterlimit="10" fill="none" transform="matrix(1 0 0 1.02156 359.569 1886)"/></g><g><path d="M105.656 193.679 1909 193.679" stroke="#EBEBEB" stroke-width="1.79453" stroke-linejoin="round" stroke-miterlimit="10" fill="none" transform="matrix(1 0 0 1.02156 359.569 1886)"/></g><g><path d="M293.882 1114.55 293.882 18.4349" stroke="#EBEBEB" stroke-width="1.79453" stroke-linejoin="round" stroke-miterlimit="10" fill="none" transform="matrix(1 0 0 1.02156 359.569 1886)"/></g><g><path d="M597.474 1114.55 597.474 18.4349" stroke="#EBEBEB" stroke-width="1.79453" stroke-linejoin="round" stroke-miterlimit="10" fill="none" transform="matrix(1 0 0 1.02156 359.569 1886)"/></g><g><path d="M901.065 1114.55 901.065 18.4349" stroke="#EBEBEB" stroke-width="1.79453" stroke-linejoin="round" stroke-miterlimit="10" fill="none" transform="matrix(1 0 0 1.02156 359.569 1886)"/></g><g><path d="M1204.67 1114.55 1204.67 18.4349" stroke="#EBEBEB" stroke-width="1.79453" stroke-linejoin="round" stroke-miterlimit="10" fill="none" transform="matrix(1 0 0 1.02156 359.569 1886)"/></g><g><path d="M1508.26 1114.55 1508.26 18.4349" stroke="#EBEBEB" stroke-width="1.79453" stroke-linejoin="round" stroke-miterlimit="10" fill="none" transform="matrix(1 0 0 1.02156 359.569 1886)"/></g><g><path d="M1811.85 1114.55 1811.85 18.4349" stroke="#EBEBEB" stroke-width="1.79453" stroke-linejoin="round" stroke-miterlimit="10" fill="none" transform="matrix(1 0 0 1.02156 359.569 1886)"/></g><g><path d="M105.656 1064.72 1909 1064.72" stroke="#EBEBEB" stroke-width="3.58905" stroke-linejoin="round" stroke-miterlimit="10" fill="none" transform="matrix(1 0 0 1.02156 359.569 1886)"/></g><g><path d="M105.656 815.855 1909 815.855" stroke="#EBEBEB" stroke-width="3.58905" stroke-linejoin="round" stroke-miterlimit="10" fill="none" transform="matrix(1 0 0 1.02156 359.569 1886)"/></g><g><path d="M105.656 566.99 1909 566.99" stroke="#EBEBEB" stroke-width="3.58905" stroke-linejoin="round" stroke-miterlimit="10" fill="none" transform="matrix(1 0 0 1.02156 359.569 1886)"/></g><g><path d="M105.656 318.111 1909 318.111" stroke="#EBEBEB" stroke-width="3.58905" stroke-linejoin="round" stroke-miterlimit="10" fill="none" transform="matrix(1 0 0 1.02156 359.569 1886)"/></g><g><path d="M105.656 69.246 1909 69.246" stroke="#EBEBEB" stroke-width="3.58905" stroke-linejoin="round" stroke-miterlimit="10" fill="none" transform="matrix(1 0 0 1.02156 359.569 1886)"/></g><g><path d="M142.092 1114.55 142.092 18.4349" stroke="#EBEBEB" stroke-width="3.58905" stroke-linejoin="round" stroke-miterlimit="10" fill="none" transform="matrix(1 0 0 1.02156 359.569 1886)"/></g><g><path d="M445.684 1114.55 445.684 18.4349" stroke="#EBEBEB" stroke-width="3.58905" stroke-linejoin="round" stroke-miterlimit="10" fill="none" transform="matrix(1 0 0 1.02156 359.569 1886)"/></g><g><path d="M749.276 1114.55 749.276 18.4349" stroke="#EBEBEB" stroke-width="3.58905" stroke-linejoin="round" stroke-miterlimit="10" fill="none" transform="matrix(1 0 0 1.02156 359.569 1886)"/></g><g><path d="M1052.87 1114.55 1052.87 18.4349" stroke="#EBEBEB" stroke-width="3.58905" stroke-linejoin="round" stroke-miterlimit="10" fill="none" transform="matrix(1 0 0 1.02156 359.569 1886)"/></g><g><path d="M1356.46 1114.55 1356.46 18.4349" stroke="#EBEBEB" stroke-width="3.58905" stroke-linejoin="round" stroke-miterlimit="10" fill="none" transform="matrix(1 0 0 1.02156 359.569 1886)"/></g><g><path d="M1660.05 1114.55 1660.05 18.4349" stroke="#EBEBEB" stroke-width="3.58905" stroke-linejoin="round" stroke-miterlimit="10" fill="none" transform="matrix(1 0 0 1.02156 359.569 1886)"/></g><path d="M202.811 80.9534 262.399 82.3331 322.001 83.8573 381.589 85.5523 441.19 87.4182 500.779 89.4679 560.367 91.728 619.969 94.2114 679.557 96.9313 739.158 99.914 798.747 103.159 858.348 106.72 917.937 110.583 977.538 114.788 1037.13 119.348 1096.71 124.288 1156.32 129.623 1215.9 135.365 1275.51 141.554 1335.09 148.189 1394.7 155.311 1454.28 162.906 1513.87 171.013 1573.47 179.645 1633.06 188.804 1692.66 198.488 1752.25 208.724 1811.85 219.511" stroke="#000000" stroke-width="3.58905" stroke-linejoin="round" stroke-miterlimit="10" stroke-dasharray="3.58905 10.7672" fill="none" transform="matrix(1 0 0 1.02156 359.569 1886)"/><path d="M202.811 616.776 262.399 637.379 322.001 657.942 381.589 678.414 441.19 698.701 500.779 718.753 560.367 738.475 619.969 757.83 679.557 776.712 739.158 795.094 798.747 812.911 858.348 830.111 917.937 846.654 977.538 862.5 1037.13 877.637 1096.71 892.025 1156.32 905.664 1215.9 918.554 1275.51 930.682 1335.09 942.061 1394.7 952.704 1454.28 962.612 1513.87 971.836 1573.47 980.376 1633.06 988.26 1692.66 995.539 1752.25 1002.21 1811.85 1008.35" stroke="#000000" stroke-width="3.58905" stroke-linejoin="round" stroke-miterlimit="10" stroke-dasharray="3.58905 10.7672" fill="none" transform="matrix(1 0 0 1.02156 359.569 1886)"/><path d="M202.811 118.73 262.399 125.72 322.001 133.578 381.589 142.381 441.19 152.21 500.779 163.103 560.367 175.125 619.969 188.304 679.557 202.627 739.158 218.066 798.747 234.543 858.348 251.927 917.937 270.059 977.538 288.731 1037.13 307.718 1096.71 326.783 1156.32 345.731 1215.9 364.389 1275.51 382.64 1335.09 400.444 1394.7 417.776 1454.28 434.673 1513.87 451.15 1573.47 467.259 1633.06 483.027 1692.66 498.519 1752.25 513.748 1811.85 528.727" stroke="#000000" stroke-width="3.58905" stroke-linejoin="round" stroke-miterlimit="10" stroke-dasharray="14.3562 14.3562" fill="none" transform="matrix(1 0 0 1.02156 359.569 1886)"/><path d="M202.811 285.748 262.399 295.642 322.001 305.983 381.589 316.823 441.19 328.189 500.779 340.133 560.367 352.721 619.969 366.018 679.557 380.13 739.158 395.136 798.747 411.166 858.348 428.366 917.937 446.854 977.538 466.786 1037.13 488.257 1096.71 511.343 1156.32 536.019 1215.9 562.194 1275.51 589.682 1335.09 618.182 1394.7 647.378 1454.28 676.89 1513.87 706.349 1573.47 735.374 1633.06 763.638 1692.66 790.85 1752.25 816.788 1811.85 841.267" stroke="#000000" stroke-width="3.58905" stroke-linejoin="round" stroke-miterlimit="10" stroke-dasharray="14.3562 14.3562" fill="none" transform="matrix(1 0 0 1.02156 359.569 1886)"/><path d="M1238.06 773.611 1268.42 773.611" stroke="#000000" stroke-width="2.87124" stroke-linejoin="round" stroke-miterlimit="10" fill="none" transform="matrix(1 0 0 1.02156 359.569 1886)"/><path d="M1253.23 773.611 1253.23 828.626" stroke="#000000" stroke-width="2.87124" stroke-linejoin="round" stroke-miterlimit="10" fill="none" transform="matrix(1 0 0 1.02156 359.569 1886)"/><path d="M1238.06 828.626 1268.42 828.626" stroke="#000000" stroke-width="2.87124" stroke-linejoin="round" stroke-miterlimit="10" fill="none" transform="matrix(1 0 0 1.02156 359.569 1886)"/><path d="M187.634 164.955 217.987 164.955" stroke="#000000" stroke-width="2.87124" stroke-linejoin="round" stroke-miterlimit="10" fill="none" transform="matrix(1 0 0 1.02156 359.569 1886)"/><path d="M202.811 164.955 202.811 236.54" stroke="#000000" stroke-width="2.87124" stroke-linejoin="round" stroke-miterlimit="10" fill="none" transform="matrix(1 0 0 1.02156 359.569 1886)"/><path d="M187.634 236.54 217.987 236.54" stroke="#000000" stroke-width="2.87124" stroke-linejoin="round" stroke-miterlimit="10" fill="none" transform="matrix(1 0 0 1.02156 359.569 1886)"/><path d="M1699.52 355.73 1729.88 355.73" stroke="#000000" stroke-width="2.87124" stroke-linejoin="round" stroke-miterlimit="10" fill="none" transform="matrix(1 0 0 1.02156 359.569 1886)"/><path d="M1714.7 355.73 1714.7 536.795" stroke="#000000" stroke-width="2.87124" stroke-linejoin="round" stroke-miterlimit="10" fill="none" transform="matrix(1 0 0 1.02156 359.569 1886)"/><path d="M1699.52 536.795 1729.88 536.795" stroke="#000000" stroke-width="2.87124" stroke-linejoin="round" stroke-miterlimit="10" fill="none" transform="matrix(1 0 0 1.02156 359.569 1886)"/><path d="M1134.83 573.441 1165.2 573.441" stroke="#000000" stroke-width="2.87124" stroke-linejoin="round" stroke-miterlimit="10" fill="none" transform="matrix(1 0 0 1.02156 359.569 1886)"/><path d="M1150.02 573.441 1150.02 632.136" stroke="#000000" stroke-width="2.87124" stroke-linejoin="round" stroke-miterlimit="10" fill="none" transform="matrix(1 0 0 1.02156 359.569 1886)"/><path d="M1134.83 632.136 1165.2 632.136" stroke="#000000" stroke-width="2.87124" stroke-linejoin="round" stroke-miterlimit="10" fill="none" transform="matrix(1 0 0 1.02156 359.569 1886)"/><path d="M1153.06 273.607 1183.41 273.607" stroke="#000000" stroke-width="2.87124" stroke-linejoin="round" stroke-miterlimit="10" fill="none" transform="matrix(1 0 0 1.02156 359.569 1886)"/><path d="M1168.23 273.607 1168.23 320.489" stroke="#000000" stroke-width="2.87124" stroke-linejoin="round" stroke-miterlimit="10" fill="none" transform="matrix(1 0 0 1.02156 359.569 1886)"/><path d="M1153.06 320.489 1183.41 320.489" stroke="#000000" stroke-width="2.87124" stroke-linejoin="round" stroke-miterlimit="10" fill="none" transform="matrix(1 0 0 1.02156 359.569 1886)"/><path d="M1159.13 418.577 1189.48 418.577" stroke="#000000" stroke-width="2.87124" stroke-linejoin="round" stroke-miterlimit="10" fill="none" transform="matrix(1 0 0 1.02156 359.569 1886)"/><path d="M1174.3 418.577 1174.3 461.386" stroke="#000000" stroke-width="2.87124" stroke-linejoin="round" stroke-miterlimit="10" fill="none" transform="matrix(1 0 0 1.02156 359.569 1886)"/><path d="M1159.13 461.386 1189.48 461.386" stroke="#000000" stroke-width="2.87124" stroke-linejoin="round" stroke-miterlimit="10" fill="none" transform="matrix(1 0 0 1.02156 359.569 1886)"/><path d="M1742.02 515.863 1772.38 515.863" stroke="#000000" stroke-width="2.87124" stroke-linejoin="round" stroke-miterlimit="10" fill="none" transform="matrix(1 0 0 1.02156 359.569 1886)"/><path d="M1757.21 515.863 1757.21 588.21" stroke="#000000" stroke-width="2.87124" stroke-linejoin="round" stroke-miterlimit="10" fill="none" transform="matrix(1 0 0 1.02156 359.569 1886)"/><path d="M1742.02 588.21 1772.38 588.21" stroke="#000000" stroke-width="2.87124" stroke-linejoin="round" stroke-miterlimit="10" fill="none" transform="matrix(1 0 0 1.02156 359.569 1886)"/><path d="M1711.66 466.878 1742.02 466.878" stroke="#000000" stroke-width="2.87124" stroke-linejoin="round" stroke-miterlimit="10" fill="none" transform="matrix(1 0 0 1.02156 359.569 1886)"/><path d="M1726.84 466.878 1726.84 602.059" stroke="#000000" stroke-width="2.87124" stroke-linejoin="round" stroke-miterlimit="10" fill="none" transform="matrix(1 0 0 1.02156 359.569 1886)"/><path d="M1711.66 602.059 1742.02 602.059" stroke="#000000" stroke-width="2.87124" stroke-linejoin="round" stroke-miterlimit="10" fill="none" transform="matrix(1 0 0 1.02156 359.569 1886)"/><path d="M1395.93 557.739 1426.28 557.739" stroke="#000000" stroke-width="2.87124" stroke-linejoin="round" stroke-miterlimit="10" fill="none" transform="matrix(1 0 0 1.02156 359.569 1886)"/><path d="M1411.11 557.739 1411.11 639.783" stroke="#000000" stroke-width="2.87124" stroke-linejoin="round" stroke-miterlimit="10" fill="none" transform="matrix(1 0 0 1.02156 359.569 1886)"/><path d="M1395.93 639.783 1426.28 639.783" stroke="#000000" stroke-width="2.87124" stroke-linejoin="round" stroke-miterlimit="10" fill="none" transform="matrix(1 0 0 1.02156 359.569 1886)"/><path d="M533.72 122.882 564.086 122.882" stroke="#000000" stroke-width="2.87124" stroke-linejoin="round" stroke-miterlimit="10" fill="none" transform="matrix(1 0 0 1.02156 359.569 1886)"/><path d="M548.909 122.882 548.909 277.838" stroke="#000000" stroke-width="2.87124" stroke-linejoin="round" stroke-miterlimit="10" fill="none" transform="matrix(1 0 0 1.02156 359.569 1886)"/><path d="M533.72 277.838 564.086 277.838" stroke="#000000" stroke-width="2.87124" stroke-linejoin="round" stroke-miterlimit="10" fill="none" transform="matrix(1 0 0 1.02156 359.569 1886)"/><path d="M1565.95 210.248 1596.3 210.248" stroke="#000000" stroke-width="2.87124" stroke-linejoin="round" stroke-miterlimit="10" fill="none" transform="matrix(1 0 0 1.02156 359.569 1886)"/><path d="M1581.12 210.248 1581.12 370.276" stroke="#000000" stroke-width="2.87124" stroke-linejoin="round" stroke-miterlimit="10" fill="none" transform="matrix(1 0 0 1.02156 359.569 1886)"/><path d="M1565.95 370.276 1596.3 370.276" stroke="#000000" stroke-width="2.87124" stroke-linejoin="round" stroke-miterlimit="10" fill="none" transform="matrix(1 0 0 1.02156 359.569 1886)"/><path d="M855.536 84.3829 885.889 84.3829" stroke="#000000" stroke-width="2.87124" stroke-linejoin="round" stroke-miterlimit="10" fill="none" transform="matrix(1 0 0 1.02156 359.569 1886)"/><path d="M870.713 84.3829 870.713 89.0738" stroke="#000000" stroke-width="2.87124" stroke-linejoin="round" stroke-miterlimit="10" fill="none" transform="matrix(1 0 0 1.02156 359.569 1886)"/><path d="M855.536 89.0738 885.889 89.0738" stroke="#000000" stroke-width="2.87124" stroke-linejoin="round" stroke-miterlimit="10" fill="none" transform="matrix(1 0 0 1.02156 359.569 1886)"/><path d="M764.452 272.359 794.818 272.359" stroke="#000000" stroke-width="2.87124" stroke-linejoin="round" stroke-miterlimit="10" fill="none" transform="matrix(1 0 0 1.02156 359.569 1886)"/><path d="M779.629 272.359 779.629 366.413" stroke="#000000" stroke-width="2.87124" stroke-linejoin="round" stroke-miterlimit="10" fill="none" transform="matrix(1 0 0 1.02156 359.569 1886)"/><path d="M764.452 366.413 794.818 366.413" stroke="#000000" stroke-width="2.87124" stroke-linejoin="round" stroke-miterlimit="10" fill="none" transform="matrix(1 0 0 1.02156 359.569 1886)"/><path d="M1238.06 656.825 1268.42 656.825" stroke="#000000" stroke-width="2.87124" stroke-linejoin="round" stroke-miterlimit="10" fill="none" transform="matrix(1 0 0 1.02156 359.569 1886)"/><path d="M1253.23 656.825 1253.23 814.987" stroke="#000000" stroke-width="2.87124" stroke-linejoin="round" stroke-miterlimit="10" fill="none" transform="matrix(1 0 0 1.02156 359.569 1886)"/><path d="M1238.06 814.987 1268.42 814.987" stroke="#000000" stroke-width="2.87124" stroke-linejoin="round" stroke-miterlimit="10" fill="none" transform="matrix(1 0 0 1.02156 359.569 1886)"/><path d="M1523.44 684.235 1553.79 684.235" stroke="#000000" stroke-width="2.87124" stroke-linejoin="round" stroke-miterlimit="10" fill="none" transform="matrix(1 0 0 1.02156 359.569 1886)"/><path d="M1538.61 684.235 1538.61 747.095" stroke="#000000" stroke-width="2.87124" stroke-linejoin="round" stroke-miterlimit="10" fill="none" transform="matrix(1 0 0 1.02156 359.569 1886)"/><path d="M1523.44 747.095 1553.79 747.095" stroke="#000000" stroke-width="2.87124" stroke-linejoin="round" stroke-miterlimit="10" fill="none" transform="matrix(1 0 0 1.02156 359.569 1886)"/><path d="M187.634 145.456 217.987 145.456" stroke="#000000" stroke-width="2.87124" stroke-linejoin="round" stroke-miterlimit="10" fill="none" transform="matrix(1 0 0 1.02156 359.569 1886)"/><path d="M202.811 145.456 202.811 209.486" stroke="#000000" stroke-width="2.87124" stroke-linejoin="round" stroke-miterlimit="10" fill="none" transform="matrix(1 0 0 1.02156 359.569 1886)"/><path d="M187.634 209.486 217.987 209.486" stroke="#000000" stroke-width="2.87124" stroke-linejoin="round" stroke-miterlimit="10" fill="none" transform="matrix(1 0 0 1.02156 359.569 1886)"/><path d="M284.776 384.545 315.142 384.545" stroke="#000000" stroke-width="2.87124" stroke-linejoin="round" stroke-miterlimit="10" fill="none" transform="matrix(1 0 0 1.02156 359.569 1886)"/><path d="M299.952 384.545 299.952 467.102" stroke="#000000" stroke-width="2.87124" stroke-linejoin="round" stroke-miterlimit="10" fill="none" transform="matrix(1 0 0 1.02156 359.569 1886)"/><path d="M284.776 467.102 315.142 467.102" stroke="#000000" stroke-width="2.87124" stroke-linejoin="round" stroke-miterlimit="10" fill="none" transform="matrix(1 0 0 1.02156 359.569 1886)"/><path d="M989.114 336.77 1019.47 336.77" stroke="#000000" stroke-width="2.87124" stroke-linejoin="round" stroke-miterlimit="10" fill="none" transform="matrix(1 0 0 1.02156 359.569 1886)"/><path d="M1004.29 336.77 1004.29 354.705" stroke="#000000" stroke-width="2.87124" stroke-linejoin="round" stroke-miterlimit="10" fill="none" transform="matrix(1 0 0 1.02156 359.569 1886)"/><path d="M989.114 354.705 1019.47 354.705" stroke="#000000" stroke-width="2.87124" stroke-linejoin="round" stroke-miterlimit="10" fill="none" transform="matrix(1 0 0 1.02156 359.569 1886)"/><path d="M1165.2 853.368 1195.55 853.368" stroke="#000000" stroke-width="2.87124" stroke-linejoin="round" stroke-miterlimit="10" fill="none" transform="matrix(1 0 0 1.02156 359.569 1886)"/><path d="M1180.38 853.368 1180.38 961.245" stroke="#000000" stroke-width="2.87124" stroke-linejoin="round" stroke-miterlimit="10" fill="none" transform="matrix(1 0 0 1.02156 359.569 1886)"/><path d="M1165.2 961.245 1195.55 961.245" stroke="#000000" stroke-width="2.87124" stroke-linejoin="round" stroke-miterlimit="10" fill="none" transform="matrix(1 0 0 1.02156 359.569 1886)"/><path d="M442.649 444.475 473.001 444.475" stroke="#000000" stroke-width="2.87124" stroke-linejoin="round" stroke-miterlimit="10" fill="none" transform="matrix(1 0 0 1.02156 359.569 1886)"/><path d="M457.825 444.475 457.825 530.711" stroke="#000000" stroke-width="2.87124" stroke-linejoin="round" stroke-miterlimit="10" fill="none" transform="matrix(1 0 0 1.02156 359.569 1886)"/><path d="M442.649 530.711 473.001 530.711" stroke="#000000" stroke-width="2.87124" stroke-linejoin="round" stroke-miterlimit="10" fill="none" transform="matrix(1 0 0 1.02156 359.569 1886)"/><path d="M205.846 78.7854 236.199 78.7854" stroke="#000000" stroke-width="2.87124" stroke-linejoin="round" stroke-miterlimit="10" fill="none" transform="matrix(1 0 0 1.02156 359.569 1886)"/><path d="M221.022 78.7854 221.022 97.4306" stroke="#000000" stroke-width="2.87124" stroke-linejoin="round" stroke-miterlimit="10" fill="none" transform="matrix(1 0 0 1.02156 359.569 1886)"/><path d="M205.846 97.4306 236.199 97.4306" stroke="#000000" stroke-width="2.87124" stroke-linejoin="round" stroke-miterlimit="10" fill="none" transform="matrix(1 0 0 1.02156 359.569 1886)"/><path d="M1207.71 280.689 1238.06 280.689" stroke="#000000" stroke-width="2.87124" stroke-linejoin="round" stroke-miterlimit="10" fill="none" transform="matrix(1 0 0 1.02156 359.569 1886)"/><path d="M1222.88 280.689 1222.88 330.081" stroke="#000000" stroke-width="2.87124" stroke-linejoin="round" stroke-miterlimit="10" fill="none" transform="matrix(1 0 0 1.02156 359.569 1886)"/><path d="M1207.71 330.081 1238.06 330.081" stroke="#000000" stroke-width="2.87124" stroke-linejoin="round" stroke-miterlimit="10" fill="none" transform="matrix(1 0 0 1.02156 359.569 1886)"/><path d="M1238.06 725.572 1268.42 725.572" stroke="#000000" stroke-width="2.87124" stroke-linejoin="round" stroke-miterlimit="10" fill="none" transform="matrix(1 0 0 1.02156 359.569 1886)"/><path d="M1253.23 725.572 1253.23 802.413" stroke="#000000" stroke-width="2.87124" stroke-linejoin="round" stroke-miterlimit="10" fill="none" transform="matrix(1 0 0 1.02156 359.569 1886)"/><path d="M1238.06 802.413 1268.42 802.413" stroke="#000000" stroke-width="2.87124" stroke-linejoin="round" stroke-miterlimit="10" fill="none" transform="matrix(1 0 0 1.02156 359.569 1886)"/><path d="M381.931 102.831 412.283 102.831" stroke="#000000" stroke-width="2.87124" stroke-linejoin="round" stroke-miterlimit="10" fill="none" transform="matrix(1 0 0 1.02156 359.569 1886)"/><path d="M397.107 102.831 397.107 184.652" stroke="#000000" stroke-width="2.87124" stroke-linejoin="round" stroke-miterlimit="10" fill="none" transform="matrix(1 0 0 1.02156 359.569 1886)"/><path d="M381.931 184.652 412.283 184.652" stroke="#000000" stroke-width="2.87124" stroke-linejoin="round" stroke-miterlimit="10" fill="none" transform="matrix(1 0 0 1.02156 359.569 1886)"/><path d="M1547.72 638.351 1578.09 638.351" stroke="#000000" stroke-width="2.87124" stroke-linejoin="round" stroke-miterlimit="10" fill="none" transform="matrix(1 0 0 1.02156 359.569 1886)"/><path d="M1562.9 638.351 1562.9 668.231" stroke="#000000" stroke-width="2.87124" stroke-linejoin="round" stroke-miterlimit="10" fill="none" transform="matrix(1 0 0 1.02156 359.569 1886)"/><path d="M1547.72 668.231 1578.09 668.231" stroke="#000000" stroke-width="2.87124" stroke-linejoin="round" stroke-miterlimit="10" fill="none" transform="matrix(1 0 0 1.02156 359.569 1886)"/><path d="M1456.65 743.219 1487 743.219" stroke="#000000" stroke-width="2.87124" stroke-linejoin="round" stroke-miterlimit="10" fill="none" transform="matrix(1 0 0 1.02156 359.569 1886)"/><path d="M1471.83 743.219 1471.83 796.277" stroke="#000000" stroke-width="2.87124" stroke-linejoin="round" stroke-miterlimit="10" fill="none" transform="matrix(1 0 0 1.02156 359.569 1886)"/><path d="M1456.65 796.277 1487 796.277" stroke="#000000" stroke-width="2.87124" stroke-linejoin="round" stroke-miterlimit="10" fill="none" transform="matrix(1 0 0 1.02156 359.569 1886)"/><path d="M1796.66 705.074 1827.03 705.074" stroke="#000000" stroke-width="2.87124" stroke-linejoin="round" stroke-miterlimit="10" fill="none" transform="matrix(1 0 0 1.02156 359.569 1886)"/><path d="M1811.85 705.074 1811.85 796.894" stroke="#000000" stroke-width="2.87124" stroke-linejoin="round" stroke-miterlimit="10" fill="none" transform="matrix(1 0 0 1.02156 359.569 1886)"/><path d="M1796.66 796.894 1827.03 796.894" stroke="#000000" stroke-width="2.87124" stroke-linejoin="round" stroke-miterlimit="10" fill="none" transform="matrix(1 0 0 1.02156 359.569 1886)"/><path d="M1766.31 519.674 1796.66 519.674" stroke="#000000" stroke-width="2.87124" stroke-linejoin="round" stroke-miterlimit="10" fill="none" transform="matrix(1 0 0 1.02156 359.569 1886)"/><path d="M1781.49 519.674 1781.49 669.387" stroke="#000000" stroke-width="2.87124" stroke-linejoin="round" stroke-miterlimit="10" fill="none" transform="matrix(1 0 0 1.02156 359.569 1886)"/><path d="M1766.31 669.387 1796.66 669.387" stroke="#000000" stroke-width="2.87124" stroke-linejoin="round" stroke-miterlimit="10" fill="none" transform="matrix(1 0 0 1.02156 359.569 1886)"/><path d="M202.811 176.361 262.399 186.15 322.001 196.688 381.589 208.04 441.19 220.221 500.779 233.268 560.367 247.21 619.969 262.057 679.557 277.825 739.158 294.525 798.747 312.146 858.348 330.673 917.937 350.093 977.538 370.354 1037.13 391.43 1096.71 413.242 1156.32 435.737 1215.9 458.811 1275.51 482.396 1335.09 506.376 1394.7 530.632 1454.28 555.072 1513.87 579.577 1573.47 604.017 1633.06 628.273 1692.66 652.24 1752.25 675.799 1811.85 698.872" stroke="#000000" stroke-width="5.38358" stroke-linejoin="round" stroke-miterlimit="10" fill="none" transform="matrix(1 0 0 1.02156 359.569 1886)"/><path d="M1263.4 796.658C1263.4 810.218 1243.08 810.218 1243.08 796.658 1243.08 783.111 1263.4 783.111 1263.4 796.658" stroke="#000000" stroke-width="2.38376" stroke-linecap="round" stroke-linejoin="round" stroke-miterlimit="10" stroke-opacity="0.94902" fill="#A9A9A9" fill-opacity="0.94902" transform="matrix(1 0 0 1.02156 359.569 1886)"/><path d="M212.968 200.59C212.968 214.15 192.641 214.15 192.641 200.59 192.641 187.043 212.968 187.043 212.968 200.59" stroke="#000000" stroke-width="2.38376" stroke-linecap="round" stroke-linejoin="round" stroke-miterlimit="10" stroke-opacity="0.94902" fill="#A9A9A9" fill-opacity="0.94902" transform="matrix(1 0 0 1.02156 359.569 1886)"/><path d="M1724.87 415.082C1724.87 428.629 1704.53 428.629 1704.53 415.082 1704.53 401.522 1724.87 401.522 1724.87 415.082" stroke="#000000" stroke-width="2.38376" stroke-linecap="round" stroke-linejoin="round" stroke-miterlimit="10" stroke-opacity="0.94902" fill="#A9A9A9" fill-opacity="0.94902" transform="matrix(1 0 0 1.02156 359.569 1886)"/><path d="M1160.18 602.112C1160.18 615.659 1139.85 615.659 1139.85 602.112 1139.85 588.565 1160.18 588.565 1160.18 602.112" stroke="#000000" stroke-width="2.38376" stroke-linecap="round" stroke-linejoin="round" stroke-miterlimit="10" stroke-opacity="0.94902" fill="#A9A9A9" fill-opacity="0.94902" transform="matrix(1 0 0 1.02156 359.569 1886)"/><path d="M1178.39 292.279C1178.39 305.839 1158.06 305.839 1158.06 292.279 1158.06 278.732 1178.39 278.732 1178.39 292.279" stroke="#000000" stroke-width="2.38376" stroke-linecap="round" stroke-linejoin="round" stroke-miterlimit="10" stroke-opacity="0.94902" fill="#A9A9A9" fill-opacity="0.94902" transform="matrix(1 0 0 1.02156 359.569 1886)"/><path d="M1184.47 439.968C1184.47 453.515 1164.13 453.515 1164.13 439.968 1164.13 426.408 1184.47 426.408 1184.47 439.968" stroke="#000000" stroke-width="2.38376" stroke-linecap="round" stroke-linejoin="round" stroke-miterlimit="10" stroke-opacity="0.94902" fill="#A9A9A9" fill-opacity="0.94902" transform="matrix(1 0 0 1.02156 359.569 1886)"/><path d="M1767.36 549.238C1767.36 562.798 1747.04 562.798 1747.04 549.238 1747.04 535.691 1767.36 535.691 1767.36 549.238" stroke="#000000" stroke-width="2.38376" stroke-linecap="round" stroke-linejoin="round" stroke-miterlimit="10" stroke-opacity="0.94902" fill="#A9A9A9" fill-opacity="0.94902" transform="matrix(1 0 0 1.02156 359.569 1886)"/><path d="M1737.01 514.864C1737.01 528.425 1716.68 528.425 1716.68 514.864 1716.68 501.317 1737.01 501.317 1737.01 514.864" stroke="#000000" stroke-width="2.38376" stroke-linecap="round" stroke-linejoin="round" stroke-miterlimit="10" stroke-opacity="0.94902" fill="#A9A9A9" fill-opacity="0.94902" transform="matrix(1 0 0 1.02156 359.569 1886)"/><path d="M1421.28 598.249C1421.28 611.809 1400.94 611.809 1400.94 598.249 1400.94 584.702 1421.28 584.702 1421.28 598.249" stroke="#000000" stroke-width="2.38376" stroke-linecap="round" stroke-linejoin="round" stroke-miterlimit="10" stroke-opacity="0.94902" fill="#A9A9A9" fill-opacity="0.94902" transform="matrix(1 0 0 1.02156 359.569 1886)"/><path d="M559.066 187.963C559.066 201.51 538.739 201.51 538.739 187.963 538.739 174.416 559.066 174.416 559.066 187.963" stroke="#000000" stroke-width="2.38376" stroke-linecap="round" stroke-linejoin="round" stroke-miterlimit="10" stroke-opacity="0.94902" fill="#A9A9A9" fill-opacity="0.94902" transform="matrix(1 0 0 1.02156 359.569 1886)"/><path d="M1591.28 287.18C1591.28 300.727 1570.95 300.727 1570.95 287.18 1570.95 273.633 1591.28 273.633 1591.28 287.18" stroke="#000000" stroke-width="2.38376" stroke-linecap="round" stroke-linejoin="round" stroke-miterlimit="10" stroke-opacity="0.94902" fill="#A9A9A9" fill-opacity="0.94902" transform="matrix(1 0 0 1.02156 359.569 1886)"/><path d="M880.883 86.7086C880.883 100.256 860.543 100.256 860.543 86.7086 860.543 73.1485 880.883 73.1485 880.883 86.7086" stroke="#000000" stroke-width="2.38376" stroke-linecap="round" stroke-linejoin="round" stroke-miterlimit="10" stroke-opacity="0.94902" fill="#A9A9A9" fill-opacity="0.94902" transform="matrix(1 0 0 1.02156 359.569 1886)"/><path d="M789.799 319.675C789.799 333.235 769.472 333.235 769.472 319.675 769.472 306.128 789.799 306.128 789.799 319.675" stroke="#000000" stroke-width="2.38376" stroke-linecap="round" stroke-linejoin="round" stroke-miterlimit="10" stroke-opacity="0.94902" fill="#A9A9A9" fill-opacity="0.94902" transform="matrix(1 0 0 1.02156 359.569 1886)"/><path d="M1263.4 735.624C1263.4 749.171 1243.08 749.171 1243.08 735.624 1243.08 722.077 1263.4 722.077 1263.4 735.624" stroke="#000000" stroke-width="2.38376" stroke-linecap="round" stroke-linejoin="round" stroke-miterlimit="10" stroke-opacity="0.94902" fill="#A9A9A9" fill-opacity="0.94902" transform="matrix(1 0 0 1.02156 359.569 1886)"/><path d="M1548.78 711.67C1548.78 725.23 1528.46 725.23 1528.46 711.67 1528.46 698.123 1548.78 698.123 1548.78 711.67" stroke="#000000" stroke-width="2.38376" stroke-linecap="round" stroke-linejoin="round" stroke-miterlimit="10" stroke-opacity="0.94902" fill="#A9A9A9" fill-opacity="0.94902" transform="matrix(1 0 0 1.02156 359.569 1886)"/><path d="M212.968 177.583C212.968 191.13 192.641 191.13 192.641 177.583 192.641 164.036 212.968 164.036 212.968 177.583" stroke="#000000" stroke-width="2.38376" stroke-linecap="round" stroke-linejoin="round" stroke-miterlimit="10" stroke-opacity="0.94902" fill="#A9A9A9" fill-opacity="0.94902" transform="matrix(1 0 0 1.02156 359.569 1886)"/><path d="M310.122 424.687C310.122 438.234 289.795 438.234 289.795 424.687 289.795 411.127 310.122 411.127 310.122 424.687" stroke="#000000" stroke-width="2.38376" stroke-linecap="round" stroke-linejoin="round" stroke-miterlimit="10" stroke-opacity="0.94902" fill="#A9A9A9" fill-opacity="0.94902" transform="matrix(1 0 0 1.02156 359.569 1886)"/><path d="M1014.46 345.468C1014.46 359.015 994.134 359.015 994.134 345.468 994.134 331.921 1014.46 331.921 1014.46 345.468" stroke="#000000" stroke-width="2.38376" stroke-linecap="round" stroke-linejoin="round" stroke-miterlimit="10" stroke-opacity="0.94902" fill="#A9A9A9" fill-opacity="0.94902" transform="matrix(1 0 0 1.02156 359.569 1886)"/><path d="M1190.55 910.132C1190.55 923.679 1170.22 923.679 1170.22 910.132 1170.22 896.572 1190.55 896.572 1190.55 910.132" stroke="#000000" stroke-width="2.38376" stroke-linecap="round" stroke-linejoin="round" stroke-miterlimit="10" stroke-opacity="0.94902" fill="#A9A9A9" fill-opacity="0.94902" transform="matrix(1 0 0 1.02156 359.569 1886)"/><path d="M467.995 484.656C467.995 498.203 447.655 498.203 447.655 484.656 447.655 471.096 467.995 471.096 467.995 484.656" stroke="#000000" stroke-width="2.38376" stroke-linecap="round" stroke-linejoin="round" stroke-miterlimit="10" stroke-opacity="0.94902" fill="#A9A9A9" fill-opacity="0.94902" transform="matrix(1 0 0 1.02156 359.569 1886)"/><path d="M231.192 87.313C231.192 100.873 210.865 100.873 210.865 87.313 210.865 73.7661 231.192 73.7661 231.192 87.313" stroke="#000000" stroke-width="2.38376" stroke-linecap="round" stroke-linejoin="round" stroke-miterlimit="10" stroke-opacity="0.94902" fill="#A9A9A9" fill-opacity="0.94902" transform="matrix(1 0 0 1.02156 359.569 1886)"/><path d="M1233.04 304.761C1233.04 318.308 1212.71 318.308 1212.71 304.761 1212.71 291.201 1233.04 291.201 1233.04 304.761" stroke="#000000" stroke-width="2.38376" stroke-linecap="round" stroke-linejoin="round" stroke-miterlimit="10" stroke-opacity="0.94902" fill="#A9A9A9" fill-opacity="0.94902" transform="matrix(1 0 0 1.02156 359.569 1886)"/><path d="M1263.4 760.616C1263.4 774.163 1243.08 774.163 1243.08 760.616 1243.08 747.055 1263.4 747.055 1263.4 760.616" stroke="#000000" stroke-width="2.38376" stroke-linecap="round" stroke-linejoin="round" stroke-miterlimit="10" stroke-opacity="0.94902" fill="#A9A9A9" fill-opacity="0.94902" transform="matrix(1 0 0 1.02156 359.569 1886)"/><path d="M407.277 138.676C407.277 152.236 386.937 152.236 386.937 138.676 386.937 125.129 407.277 125.129 407.277 138.676" stroke="#000000" stroke-width="2.38376" stroke-linecap="round" stroke-linejoin="round" stroke-miterlimit="10" stroke-opacity="0.94902" fill="#A9A9A9" fill-opacity="0.94902" transform="matrix(1 0 0 1.02156 359.569 1886)"/><path d="M1573.07 650.124C1573.07 663.684 1552.74 663.684 1552.74 650.124 1552.74 636.577 1573.07 636.577 1573.07 650.124" stroke="#000000" stroke-width="2.38376" stroke-linecap="round" stroke-linejoin="round" stroke-miterlimit="10" stroke-opacity="0.94902" fill="#A9A9A9" fill-opacity="0.94902" transform="matrix(1 0 0 1.02156 359.569 1886)"/><path d="M1482 768.723C1482 782.27 1461.66 782.27 1461.66 768.723 1461.66 755.163 1482 755.163 1482 768.723" stroke="#000000" stroke-width="2.38376" stroke-linecap="round" stroke-linejoin="round" stroke-miterlimit="10" stroke-opacity="0.94902" fill="#A9A9A9" fill-opacity="0.94902" transform="matrix(1 0 0 1.02156 359.569 1886)"/><path d="M1822.01 735.256C1822.01 748.803 1801.68 748.803 1801.68 735.256 1801.68 721.696 1822.01 721.696 1822.01 735.256" stroke="#000000" stroke-width="2.38376" stroke-linecap="round" stroke-linejoin="round" stroke-miterlimit="10" stroke-opacity="0.94902" fill="#A9A9A9" fill-opacity="0.94902" transform="matrix(1 0 0 1.02156 359.569 1886)"/><path d="M1791.66 593.676C1791.66 607.223 1771.33 607.223 1771.33 593.676 1771.33 580.116 1791.66 580.116 1791.66 593.676" stroke="#000000" stroke-width="2.38376" stroke-linecap="round" stroke-linejoin="round" stroke-miterlimit="10" stroke-opacity="0.94902" fill="#A9A9A9" fill-opacity="0.94902" transform="matrix(1 0 0 1.02156 359.569 1886)"/><g><path d="M105.656 1114.55 1909 1114.55 1909 18.4349 105.656 18.4349Z" stroke="#000000" stroke-width="5.38358" stroke-linecap="round" stroke-linejoin="round" stroke-miterlimit="10" fill="none" transform="matrix(1 0 0 1.02156 359.569 1886)"/></g><path d="M10.0913-26.8049C7.30565-26.8049 4.88795-25.5961 3.31119-23.4412 1.78699-21.3914 1.05117-18.0802 1.05117-12.9294 1.05117-8.30427 1.68188-5.04563 2.94328-3.0484 4.46748-0.525586 7.04286 0.840938 10.0913 0.840938 12.9294 0.840938 15.2946-0.315352 16.9239-2.47026 18.3955-4.52004 19.1313-7.8838 19.1313-12.8243 19.1313-17.6071 18.5532-20.8658 17.2918-22.9156 15.715-25.4384 13.1922-26.8049 10.0913-26.8049ZM10.0913-22.6002C11.4578-22.6002 12.509-21.8644 13.1397-20.4979 13.6652-19.3941 13.928-16.556 13.928-12.9294 13.928-9.93358 13.6652-7.04286 13.2973-5.99169 12.6666-4.41493 11.5629-3.57399 10.0913-3.57399 8.72473-3.57399 7.67356-4.30981 7.04286-5.62377 6.56983-6.72751 6.25448-9.46056 6.25448-12.982 6.25448-16.0829 6.51727-19.0788 6.93774-20.13 7.46333-21.7067 8.61962-22.6002 10.0913-22.6002Z" fill="#4D4D4D" transform="matrix(1 0 0 1.02156 378.004 2985.76)"/><path d="M7.93636-5.41354 2.36514-5.41354 2.36514 0 7.93636 0Z" fill="#4D4D4D" transform="matrix(1 0 0 1.02156 398.187 2985.76)"/><path d="M10.0913-26.8049C7.30565-26.8049 4.88795-25.5961 3.31119-23.4412 1.78699-21.3914 1.05117-18.0802 1.05117-12.9294 1.05117-8.30427 1.68188-5.04563 2.94328-3.0484 4.46748-0.525586 7.04286 0.840938 10.0913 0.840938 12.9294 0.840938 15.2946-0.315352 16.9239-2.47026 18.3955-4.52004 19.1313-7.8838 19.1313-12.8243 19.1313-17.6071 18.5532-20.8658 17.2918-22.9156 15.715-25.4384 13.1922-26.8049 10.0913-26.8049ZM10.0913-22.6002C11.4578-22.6002 12.509-21.8644 13.1397-20.4979 13.6652-19.3941 13.928-16.556 13.928-12.9294 13.928-9.93358 13.6652-7.04286 13.2973-5.99169 12.6666-4.41493 11.5629-3.57399 10.0913-3.57399 8.72473-3.57399 7.67356-4.30981 7.04286-5.62377 6.56983-6.72751 6.25448-9.46056 6.25448-12.982 6.25448-16.0829 6.51727-19.0788 6.93774-20.13 7.46333-21.7067 8.61962-22.6002 10.0913-22.6002Z" fill="#4D4D4D" transform="matrix(1 0 0 1.02156 408.278 2985.76)"/><path d="M10.0913-26.8049C7.30565-26.8049 4.88795-25.5961 3.31119-23.4412 1.78699-21.3914 1.05117-18.0802 1.05117-12.9294 1.05117-8.30427 1.68188-5.04563 2.94328-3.0484 4.46748-0.525586 7.04286 0.840938 10.0913 0.840938 12.9294 0.840938 15.2946-0.315352 16.9239-2.47026 18.3955-4.52004 19.1313-7.8838 19.1313-12.8243 19.1313-17.6071 18.5532-20.8658 17.2918-22.9156 15.715-25.4384 13.1922-26.8049 10.0913-26.8049ZM10.0913-22.6002C11.4578-22.6002 12.509-21.8644 13.1397-20.4979 13.6652-19.3941 13.928-16.556 13.928-12.9294 13.928-9.93358 13.6652-7.04286 13.2973-5.99169 12.6666-4.41493 11.5629-3.57399 10.0913-3.57399 8.72473-3.57399 7.67356-4.30981 7.04286-5.62377 6.56983-6.72751 6.25448-9.46056 6.25448-12.982 6.25448-16.0829 6.51727-19.0788 6.93774-20.13 7.46333-21.7067 8.61962-22.6002 10.0913-22.6002Z" fill="#4D4D4D" transform="matrix(1 0 0 1.02156 428.461 2985.76)"/><path d="M10.0913-26.8049C7.30565-26.8049 4.88795-25.5961 3.31119-23.4412 1.78699-21.3914 1.05117-18.0802 1.05117-12.9294 1.05117-8.30427 1.68188-5.04563 2.94328-3.0484 4.46748-0.525586 7.04286 0.840938 10.0913 0.840938 12.9294 0.840938 15.2946-0.315352 16.9239-2.47026 18.3955-4.52004 19.1313-7.8838 19.1313-12.8243 19.1313-17.6071 18.5532-20.8658 17.2918-22.9156 15.715-25.4384 13.1922-26.8049 10.0913-26.8049ZM10.0913-22.6002C11.4578-22.6002 12.509-21.8644 13.1397-20.4979 13.6652-19.3941 13.928-16.556 13.928-12.9294 13.928-9.93358 13.6652-7.04286 13.2973-5.99169 12.6666-4.41493 11.5629-3.57399 10.0913-3.57399 8.72473-3.57399 7.67356-4.30981 7.04286-5.62377 6.56983-6.72751 6.25448-9.46056 6.25448-12.982 6.25448-16.0829 6.51727-19.0788 6.93774-20.13 7.46333-21.7067 8.61962-22.6002 10.0913-22.6002Z" fill="#4D4D4D" transform="matrix(1 0 0 1.02156 378.004 2731.53)"/><path d="M7.93636-5.41354 2.36514-5.41354 2.36514 0 7.93636 0Z" fill="#4D4D4D" transform="matrix(1 0 0 1.02156 398.187 2731.53)"/><path d="M18.9211-4.62516 7.83124-4.62516C8.5145-6.04424 9.30288-6.83262 13.1922-9.56567 17.7123-12.9294 19.0788-14.8741 19.0788-18.4481 19.0788-23.5463 15.5574-26.8049 10.0387-26.8049 4.62516-26.8049 1.41908-23.5463 1.41908-18.0276L1.41908-17.0816 6.41215-17.0816 6.41215-17.9225C6.41215-20.8658 7.83124-22.5477 10.1964-22.5477 12.4564-22.5477 13.8755-20.9709 13.8755-18.343 13.8755-15.4522 12.982-14.3485 7.14798-10.1964 2.68049-7.20053 1.31397-4.88795 1.10373 0L18.9211 0Z" fill="#4D4D4D" transform="matrix(1 0 0 1.02156 408.278 2731.53)"/><path d="M18.0802-26.2268 4.04702-26.2268 1.73444-11.6155 6.41215-11.6155C6.93774-12.9294 8.14659-13.6127 9.72335-13.6127 12.3513-13.6127 13.928-11.7206 13.928-8.56706 13.928-5.4661 12.3513-3.57399 9.72335-3.57399 7.46333-3.57399 6.20192-4.73028 6.0968-6.83262L0.998614-6.83262C1.05117-2.26002 4.5726 0.840938 9.67079 0.840938 15.2946 0.840938 19.1313-2.99584 19.1313-8.67218 19.1313-14.0857 15.8202-17.7123 10.9322-17.7123 9.19776-17.7123 7.93636-17.2918 6.41215-16.1355L7.25309-21.6016 18.0802-21.6016Z" fill="#4D4D4D" transform="matrix(1 0 0 1.02156 428.461 2731.53)"/><path d="M10.0913-26.8049C7.30565-26.8049 4.88795-25.5961 3.31119-23.4412 1.78699-21.3914 1.05117-18.0802 1.05117-12.9294 1.05117-8.30427 1.68188-5.04563 2.94328-3.0484 4.46748-0.525586 7.04286 0.840938 10.0913 0.840938 12.9294 0.840938 15.2946-0.315352 16.9239-2.47026 18.3955-4.52004 19.1313-7.8838 19.1313-12.8243 19.1313-17.6071 18.5532-20.8658 17.2918-22.9156 15.715-25.4384 13.1922-26.8049 10.0913-26.8049ZM10.0913-22.6002C11.4578-22.6002 12.509-21.8644 13.1397-20.4979 13.6652-19.3941 13.928-16.556 13.928-12.9294 13.928-9.93358 13.6652-7.04286 13.2973-5.99169 12.6666-4.41493 11.5629-3.57399 10.0913-3.57399 8.72473-3.57399 7.67356-4.30981 7.04286-5.62377 6.56983-6.72751 6.25448-9.46056 6.25448-12.982 6.25448-16.0829 6.51727-19.0788 6.93774-20.13 7.46333-21.7067 8.61962-22.6002 10.0913-22.6002Z" fill="#4D4D4D" transform="matrix(1 0 0 1.02156 378.004 2477.3)"/><path d="M7.93636-5.41354 2.36514-5.41354 2.36514 0 7.93636 0Z" fill="#4D4D4D" transform="matrix(1 0 0 1.02156 398.187 2477.3)"/><path d="M18.0802-26.2268 4.04702-26.2268 1.73444-11.6155 6.41215-11.6155C6.93774-12.9294 8.14659-13.6127 9.72335-13.6127 12.3513-13.6127 13.928-11.7206 13.928-8.56706 13.928-5.4661 12.3513-3.57399 9.72335-3.57399 7.46333-3.57399 6.20192-4.73028 6.0968-6.83262L0.998614-6.83262C1.05117-2.26002 4.5726 0.840938 9.67079 0.840938 15.2946 0.840938 19.1313-2.99584 19.1313-8.67218 19.1313-14.0857 15.8202-17.7123 10.9322-17.7123 9.19776-17.7123 7.93636-17.2918 6.41215-16.1355L7.25309-21.6016 18.0802-21.6016Z" fill="#4D4D4D" transform="matrix(1 0 0 1.02156 408.278 2477.3)"/><path d="M10.0913-26.8049C7.30565-26.8049 4.88795-25.5961 3.31119-23.4412 1.78699-21.3914 1.05117-18.0802 1.05117-12.9294 1.05117-8.30427 1.68188-5.04563 2.94328-3.0484 4.46748-0.525586 7.04286 0.840938 10.0913 0.840938 12.9294 0.840938 15.2946-0.315352 16.9239-2.47026 18.3955-4.52004 19.1313-7.8838 19.1313-12.8243 19.1313-17.6071 18.5532-20.8658 17.2918-22.9156 15.715-25.4384 13.1922-26.8049 10.0913-26.8049ZM10.0913-22.6002C11.4578-22.6002 12.509-21.8644 13.1397-20.4979 13.6652-19.3941 13.928-16.556 13.928-12.9294 13.928-9.93358 13.6652-7.04286 13.2973-5.99169 12.6666-4.41493 11.5629-3.57399 10.0913-3.57399 8.72473-3.57399 7.67356-4.30981 7.04286-5.62377 6.56983-6.72751 6.25448-9.46056 6.25448-12.982 6.25448-16.0829 6.51727-19.0788 6.93774-20.13 7.46333-21.7067 8.61962-22.6002 10.0913-22.6002Z" fill="#4D4D4D" transform="matrix(1 0 0 1.02156 428.461 2477.3)"/><path d="M10.0913-26.8049C7.30565-26.8049 4.88795-25.5961 3.31119-23.4412 1.78699-21.3914 1.05117-18.0802 1.05117-12.9294 1.05117-8.30427 1.68188-5.04563 2.94328-3.0484 4.46748-0.525586 7.04286 0.840938 10.0913 0.840938 12.9294 0.840938 15.2946-0.315352 16.9239-2.47026 18.3955-4.52004 19.1313-7.8838 19.1313-12.8243 19.1313-17.6071 18.5532-20.8658 17.2918-22.9156 15.715-25.4384 13.1922-26.8049 10.0913-26.8049ZM10.0913-22.6002C11.4578-22.6002 12.509-21.8644 13.1397-20.4979 13.6652-19.3941 13.928-16.556 13.928-12.9294 13.928-9.93358 13.6652-7.04286 13.2973-5.99169 12.6666-4.41493 11.5629-3.57399 10.0913-3.57399 8.72473-3.57399 7.67356-4.30981 7.04286-5.62377 6.56983-6.72751 6.25448-9.46056 6.25448-12.982 6.25448-16.0829 6.51727-19.0788 6.93774-20.13 7.46333-21.7067 8.61962-22.6002 10.0913-22.6002Z" fill="#4D4D4D" transform="matrix(1 0 0 1.02156 378.004 2223.06)"/><path d="M7.93636-5.41354 2.36514-5.41354 2.36514 0 7.93636 0Z" fill="#4D4D4D" transform="matrix(1 0 0 1.02156 398.187 2223.06)"/><path d="M19.5518-26.2268 1.05117-26.2268 1.05117-21.6016 14.1383-21.6016C12.5615-19.9197 9.408-15.1369 8.35682-12.8243 6.56983-9.04009 5.62377-5.57122 4.94051 0L10.1438 0C10.6168-8.30427 13.2973-14.6639 19.5518-22.1797Z" fill="#4D4D4D" transform="matrix(1 0 0 1.02156 408.278 2223.06)"/><path d="M18.0802-26.2268 4.04702-26.2268 1.73444-11.6155 6.41215-11.6155C6.93774-12.9294 8.14659-13.6127 9.72335-13.6127 12.3513-13.6127 13.928-11.7206 13.928-8.56706 13.928-5.4661 12.3513-3.57399 9.72335-3.57399 7.46333-3.57399 6.20192-4.73028 6.0968-6.83262L0.998614-6.83262C1.05117-2.26002 4.5726 0.840938 9.67079 0.840938 15.2946 0.840938 19.1313-2.99584 19.1313-8.67218 19.1313-14.0857 15.8202-17.7123 10.9322-17.7123 9.19776-17.7123 7.93636-17.2918 6.41215-16.1355L7.25309-21.6016 18.0802-21.6016Z" fill="#4D4D4D" transform="matrix(1 0 0 1.02156 428.461 2223.06)"/><path d="M8.82985-18.0802 8.82985 0 13.9806 0 13.9806-26.2268 10.5643-26.2268C9.72335-23.1258 7.04286-21.549 2.52281-21.549L2.52281-18.0802Z" fill="#4D4D4D" transform="matrix(1 0 0 1.02156 378.004 1968.83)"/><path d="M7.93636-5.41354 2.36514-5.41354 2.36514 0 7.93636 0Z" fill="#4D4D4D" transform="matrix(1 0 0 1.02156 398.187 1968.83)"/><path d="M10.0913-26.8049C7.30565-26.8049 4.88795-25.5961 3.31119-23.4412 1.78699-21.3914 1.05117-18.0802 1.05117-12.9294 1.05117-8.30427 1.68188-5.04563 2.94328-3.0484 4.46748-0.525586 7.04286 0.840938 10.0913 0.840938 12.9294 0.840938 15.2946-0.315352 16.9239-2.47026 18.3955-4.52004 19.1313-7.8838 19.1313-12.8243 19.1313-17.6071 18.5532-20.8658 17.2918-22.9156 15.715-25.4384 13.1922-26.8049 10.0913-26.8049ZM10.0913-22.6002C11.4578-22.6002 12.509-21.8644 13.1397-20.4979 13.6652-19.3941 13.928-16.556 13.928-12.9294 13.928-9.93358 13.6652-7.04286 13.2973-5.99169 12.6666-4.41493 11.5629-3.57399 10.0913-3.57399 8.72473-3.57399 7.67356-4.30981 7.04286-5.62377 6.56983-6.72751 6.25448-9.46056 6.25448-12.982 6.25448-16.0829 6.51727-19.0788 6.93774-20.13 7.46333-21.7067 8.61962-22.6002 10.0913-22.6002Z" fill="#4D4D4D" transform="matrix(1 0 0 1.02156 408.278 1968.83)"/><path d="M10.0913-26.8049C7.30565-26.8049 4.88795-25.5961 3.31119-23.4412 1.78699-21.3914 1.05117-18.0802 1.05117-12.9294 1.05117-8.30427 1.68188-5.04563 2.94328-3.0484 4.46748-0.525586 7.04286 0.840938 10.0913 0.840938 12.9294 0.840938 15.2946-0.315352 16.9239-2.47026 18.3955-4.52004 19.1313-7.8838 19.1313-12.8243 19.1313-17.6071 18.5532-20.8658 17.2918-22.9156 15.715-25.4384 13.1922-26.8049 10.0913-26.8049ZM10.0913-22.6002C11.4578-22.6002 12.509-21.8644 13.1397-20.4979 13.6652-19.3941 13.928-16.556 13.928-12.9294 13.928-9.93358 13.6652-7.04286 13.2973-5.99169 12.6666-4.41493 11.5629-3.57399 10.0913-3.57399 8.72473-3.57399 7.67356-4.30981 7.04286-5.62377 6.56983-6.72751 6.25448-9.46056 6.25448-12.982 6.25448-16.0829 6.51727-19.0788 6.93774-20.13 7.46333-21.7067 8.61962-22.6002 10.0913-22.6002Z" fill="#4D4D4D" transform="matrix(1 0 0 1.02156 428.461 1968.83)"/><path d="M96.4451 1064.72 105.656 1064.72" stroke="#333333" stroke-width="3.58905" stroke-linejoin="round" stroke-miterlimit="10" fill="none" transform="matrix(1 0 0 1.02156 359.569 1886)"/><path d="M96.4451 815.855 105.656 815.855" stroke="#333333" stroke-width="3.58905" stroke-linejoin="round" stroke-miterlimit="10" fill="none" transform="matrix(1 0 0 1.02156 359.569 1886)"/><path d="M96.4451 566.99 105.656 566.99" stroke="#333333" stroke-width="3.58905" stroke-linejoin="round" stroke-miterlimit="10" fill="none" transform="matrix(1 0 0 1.02156 359.569 1886)"/><path d="M96.4451 318.111 105.656 318.111" stroke="#333333" stroke-width="3.58905" stroke-linejoin="round" stroke-miterlimit="10" fill="none" transform="matrix(1 0 0 1.02156 359.569 1886)"/><path d="M96.4451 69.246 105.656 69.246" stroke="#333333" stroke-width="3.58905" stroke-linejoin="round" stroke-miterlimit="10" fill="none" transform="matrix(1 0 0 1.02156 359.569 1886)"/><path d="M142.092 1123.76 142.092 1114.55" stroke="#333333" stroke-width="3.58905" stroke-linejoin="round" stroke-miterlimit="10" fill="none" transform="matrix(1 0 0 1.02156 359.569 1886)"/><path d="M445.684 1123.76 445.684 1114.55" stroke="#333333" stroke-width="3.58905" stroke-linejoin="round" stroke-miterlimit="10" fill="none" transform="matrix(1 0 0 1.02156 359.569 1886)"/><path d="M749.276 1123.76 749.276 1114.55" stroke="#333333" stroke-width="3.58905" stroke-linejoin="round" stroke-miterlimit="10" fill="none" transform="matrix(1 0 0 1.02156 359.569 1886)"/><path d="M1052.87 1123.76 1052.87 1114.55" stroke="#333333" stroke-width="3.58905" stroke-linejoin="round" stroke-miterlimit="10" fill="none" transform="matrix(1 0 0 1.02156 359.569 1886)"/><path d="M1356.46 1123.76 1356.46 1114.55" stroke="#333333" stroke-width="3.58905" stroke-linejoin="round" stroke-miterlimit="10" fill="none" transform="matrix(1 0 0 1.02156 359.569 1886)"/><path d="M1660.05 1123.76 1660.05 1114.55" stroke="#333333" stroke-width="3.58905" stroke-linejoin="round" stroke-miterlimit="10" fill="none" transform="matrix(1 0 0 1.02156 359.569 1886)"/><path d="M18.9211-4.62516 7.83124-4.62516C8.5145-6.04424 9.30288-6.83262 13.1922-9.56567 17.7123-12.9294 19.0788-14.8741 19.0788-18.4481 19.0788-23.5463 15.5574-26.8049 10.0387-26.8049 4.62516-26.8049 1.41908-23.5463 1.41908-18.0276L1.41908-17.0816 6.41215-17.0816 6.41215-17.9225C6.41215-20.8658 7.83124-22.5477 10.1964-22.5477 12.4564-22.5477 13.8755-20.9709 13.8755-18.343 13.8755-15.4522 12.982-14.3485 7.14798-10.1964 2.68049-7.20053 1.31397-4.88795 1.10373 0L18.9211 0Z" fill="#4D4D4D" transform="matrix(1 0 0 1.02156 481.479 3069.06)"/><path d="M18.0802-26.2268 4.04702-26.2268 1.73444-11.6155 6.41215-11.6155C6.93774-12.9294 8.14659-13.6127 9.72335-13.6127 12.3513-13.6127 13.928-11.7206 13.928-8.56706 13.928-5.4661 12.3513-3.57399 9.72335-3.57399 7.46333-3.57399 6.20192-4.73028 6.0968-6.83262L0.998614-6.83262C1.05117-2.26002 4.5726 0.840938 9.67079 0.840938 15.2946 0.840938 19.1313-2.99584 19.1313-8.67218 19.1313-14.0857 15.8202-17.7123 10.9322-17.7123 9.19776-17.7123 7.93636-17.2918 6.41215-16.1355L7.25309-21.6016 18.0802-21.6016Z" fill="#4D4D4D" transform="matrix(1 0 0 1.02156 501.662 3069.06)"/><path d="M8.04147-11.7206C10.0387-11.7206 10.1438-11.7206 11.0373-11.4578 12.8243-10.9848 13.928-9.46056 13.928-7.56844 13.928-5.20331 12.2987-3.57399 10.0387-3.57399 7.56844-3.57399 6.25448-4.99307 6.0968-7.67356L1.05117-7.67356C1.10373-2.4177 4.52004 0.840938 9.93358 0.840938 15.5048 0.840938 19.0788-2.4177 19.0788-7.56844 19.0788-10.6168 17.7648-12.6141 14.8215-14.0857 17.1867-15.5574 18.2378-17.2392 18.2378-19.6569 18.2378-24.0193 14.9792-26.8049 9.93358-26.8049 6.0968-26.8049 3.20608-25.123 2.04979-22.2849 1.57676-21.0235 1.41908-20.1825 1.41908-17.9751L6.20192-17.9751C6.25448-19.3941 6.3596-20.0774 6.62239-20.7607 7.09542-21.917 8.30427-22.6002 9.82847-22.6002 11.8783-22.6002 13.0871-21.3388 13.0871-19.1839 13.0871-16.5034 11.5629-15.1894 8.46194-15.1894L8.04147-15.1894Z" fill="#4D4D4D" transform="matrix(1 0 0 1.02156 785.071 3069.06)"/><path d="M10.0913-26.8049C7.30565-26.8049 4.88795-25.5961 3.31119-23.4412 1.78699-21.3914 1.05117-18.0802 1.05117-12.9294 1.05117-8.30427 1.68188-5.04563 2.94328-3.0484 4.46748-0.525586 7.04286 0.840938 10.0913 0.840938 12.9294 0.840938 15.2946-0.315352 16.9239-2.47026 18.3955-4.52004 19.1313-7.8838 19.1313-12.8243 19.1313-17.6071 18.5532-20.8658 17.2918-22.9156 15.715-25.4384 13.1922-26.8049 10.0913-26.8049ZM10.0913-22.6002C11.4578-22.6002 12.509-21.8644 13.1397-20.4979 13.6652-19.3941 13.928-16.556 13.928-12.9294 13.928-9.93358 13.6652-7.04286 13.2973-5.99169 12.6666-4.41493 11.5629-3.57399 10.0913-3.57399 8.72473-3.57399 7.67356-4.30981 7.04286-5.62377 6.56983-6.72751 6.25448-9.46056 6.25448-12.982 6.25448-16.0829 6.51727-19.0788 6.93774-20.13 7.46333-21.7067 8.61962-22.6002 10.0913-22.6002Z" fill="#4D4D4D" transform="matrix(1 0 0 1.02156 805.254 3069.06)"/><path d="M8.04147-11.7206C10.0387-11.7206 10.1438-11.7206 11.0373-11.4578 12.8243-10.9848 13.928-9.46056 13.928-7.56844 13.928-5.20331 12.2987-3.57399 10.0387-3.57399 7.56844-3.57399 6.25448-4.99307 6.0968-7.67356L1.05117-7.67356C1.10373-2.4177 4.52004 0.840938 9.93358 0.840938 15.5048 0.840938 19.0788-2.4177 19.0788-7.56844 19.0788-10.6168 17.7648-12.6141 14.8215-14.0857 17.1867-15.5574 18.2378-17.2392 18.2378-19.6569 18.2378-24.0193 14.9792-26.8049 9.93358-26.8049 6.0968-26.8049 3.20608-25.123 2.04979-22.2849 1.57676-21.0235 1.41908-20.1825 1.41908-17.9751L6.20192-17.9751C6.25448-19.3941 6.3596-20.0774 6.62239-20.7607 7.09542-21.917 8.30427-22.6002 9.82847-22.6002 11.8783-22.6002 13.0871-21.3388 13.0871-19.1839 13.0871-16.5034 11.5629-15.1894 8.46194-15.1894L8.04147-15.1894Z" fill="#4D4D4D" transform="matrix(1 0 0 1.02156 1088.66 3069.06)"/><path d="M18.0802-26.2268 4.04702-26.2268 1.73444-11.6155 6.41215-11.6155C6.93774-12.9294 8.14659-13.6127 9.72335-13.6127 12.3513-13.6127 13.928-11.7206 13.928-8.56706 13.928-5.4661 12.3513-3.57399 9.72335-3.57399 7.46333-3.57399 6.20192-4.73028 6.0968-6.83262L0.998614-6.83262C1.05117-2.26002 4.5726 0.840938 9.67079 0.840938 15.2946 0.840938 19.1313-2.99584 19.1313-8.67218 19.1313-14.0857 15.8202-17.7123 10.9322-17.7123 9.19776-17.7123 7.93636-17.2918 6.41215-16.1355L7.25309-21.6016 18.0802-21.6016Z" fill="#4D4D4D" transform="matrix(1 0 0 1.02156 1108.85 3069.06)"/><path d="M19.289-10.0913 16.556-10.0913 16.556-26.2268 10.4592-26.2268 0.893497-10.1964 0.893497-5.83401 11.4052-5.83401 11.4052 0 16.556 0 16.556-5.83401 19.289-5.83401ZM11.4052-10.0913 4.5726-10.0913 11.4052-21.3388Z" fill="#4D4D4D" transform="matrix(1 0 0 1.02156 1392.25 3069.06)"/><path d="M10.0913-26.8049C7.30565-26.8049 4.88795-25.5961 3.31119-23.4412 1.78699-21.3914 1.05117-18.0802 1.05117-12.9294 1.05117-8.30427 1.68188-5.04563 2.94328-3.0484 4.46748-0.525586 7.04286 0.840938 10.0913 0.840938 12.9294 0.840938 15.2946-0.315352 16.9239-2.47026 18.3955-4.52004 19.1313-7.8838 19.1313-12.8243 19.1313-17.6071 18.5532-20.8658 17.2918-22.9156 15.715-25.4384 13.1922-26.8049 10.0913-26.8049ZM10.0913-22.6002C11.4578-22.6002 12.509-21.8644 13.1397-20.4979 13.6652-19.3941 13.928-16.556 13.928-12.9294 13.928-9.93358 13.6652-7.04286 13.2973-5.99169 12.6666-4.41493 11.5629-3.57399 10.0913-3.57399 8.72473-3.57399 7.67356-4.30981 7.04286-5.62377 6.56983-6.72751 6.25448-9.46056 6.25448-12.982 6.25448-16.0829 6.51727-19.0788 6.93774-20.13 7.46333-21.7067 8.61962-22.6002 10.0913-22.6002Z" fill="#4D4D4D" transform="matrix(1 0 0 1.02156 1412.44 3069.06)"/><path d="M19.289-10.0913 16.556-10.0913 16.556-26.2268 10.4592-26.2268 0.893497-10.1964 0.893497-5.83401 11.4052-5.83401 11.4052 0 16.556 0 16.556-5.83401 19.289-5.83401ZM11.4052-10.0913 4.5726-10.0913 11.4052-21.3388Z" fill="#4D4D4D" transform="matrix(1 0 0 1.02156 1695.85 3069.06)"/><path d="M18.0802-26.2268 4.04702-26.2268 1.73444-11.6155 6.41215-11.6155C6.93774-12.9294 8.14659-13.6127 9.72335-13.6127 12.3513-13.6127 13.928-11.7206 13.928-8.56706 13.928-5.4661 12.3513-3.57399 9.72335-3.57399 7.46333-3.57399 6.20192-4.73028 6.0968-6.83262L0.998614-6.83262C1.05117-2.26002 4.5726 0.840938 9.67079 0.840938 15.2946 0.840938 19.1313-2.99584 19.1313-8.67218 19.1313-14.0857 15.8202-17.7123 10.9322-17.7123 9.19776-17.7123 7.93636-17.2918 6.41215-16.1355L7.25309-21.6016 18.0802-21.6016Z" fill="#4D4D4D" transform="matrix(1 0 0 1.02156 1716.03 3069.06)"/><path d="M18.0802-26.2268 4.04702-26.2268 1.73444-11.6155 6.41215-11.6155C6.93774-12.9294 8.14659-13.6127 9.72335-13.6127 12.3513-13.6127 13.928-11.7206 13.928-8.56706 13.928-5.4661 12.3513-3.57399 9.72335-3.57399 7.46333-3.57399 6.20192-4.73028 6.0968-6.83262L0.998614-6.83262C1.05117-2.26002 4.5726 0.840938 9.67079 0.840938 15.2946 0.840938 19.1313-2.99584 19.1313-8.67218 19.1313-14.0857 15.8202-17.7123 10.9322-17.7123 9.19776-17.7123 7.93636-17.2918 6.41215-16.1355L7.25309-21.6016 18.0802-21.6016Z" fill="#4D4D4D" transform="matrix(1 0 0 1.02156 1999.44 3069.06)"/><path d="M10.0913-26.8049C7.30565-26.8049 4.88795-25.5961 3.31119-23.4412 1.78699-21.3914 1.05117-18.0802 1.05117-12.9294 1.05117-8.30427 1.68188-5.04563 2.94328-3.0484 4.46748-0.525586 7.04286 0.840938 10.0913 0.840938 12.9294 0.840938 15.2946-0.315352 16.9239-2.47026 18.3955-4.52004 19.1313-7.8838 19.1313-12.8243 19.1313-17.6071 18.5532-20.8658 17.2918-22.9156 15.715-25.4384 13.1922-26.8049 10.0913-26.8049ZM10.0913-22.6002C11.4578-22.6002 12.509-21.8644 13.1397-20.4979 13.6652-19.3941 13.928-16.556 13.928-12.9294 13.928-9.93358 13.6652-7.04286 13.2973-5.99169 12.6666-4.41493 11.5629-3.57399 10.0913-3.57399 8.72473-3.57399 7.67356-4.30981 7.04286-5.62377 6.56983-6.72751 6.25448-9.46056 6.25448-12.982 6.25448-16.0829 6.51727-19.0788 6.93774-20.13 7.46333-21.7067 8.61962-22.6002 10.0913-22.6002Z" fill="#4D4D4D" transform="matrix(1 0 0 1.02156 2019.62 3069.06)"/></g></g></g><text font-family="Cambria Math,Cambria Math_MSFontService,sans-serif" font-weight="400" font-size="41" transform="matrix(-1.83697e-16 -1 1 -1.83697e-16 352.511 2513)"></text><text font-family="Cambria Math,Cambria Math_MSFontService,sans-serif" font-weight="400" font-size="41" transform="matrix(-1.83697e-16 -1 1 -1.83697e-16 352.511 2481)"> </text><text font-family="Cambria Math,Cambria Math_MSFontService,sans-serif" font-weight="400" font-size="41" transform="matrix(-1.83697e-16 -1 1 -1.83697e-16 352.511 2472)">(</text><text font-family="Cambria Math,Cambria Math_MSFontService,sans-serif" font-weight="400" font-size="41" transform="matrix(-1.83697e-16 -1 1 -1.83697e-16 352.511 2455)">%</text><text font-family="Cambria Math,Cambria Math_MSFontService,sans-serif" font-weight="400" font-size="41" transform="matrix(-1.83697e-16 -1 1 -1.83697e-16 352.511 2418)">)</text><text font-family="Arial,Arial_MSFontService,sans-serif" font-weight="400" font-size="37" transform="matrix(1 0 0 1 395.516 2986)">00</text><text font-family="Arial,Arial_MSFontService,sans-serif" font-weight="400" font-size="37" transform="matrix(1 0 0 1 395.516 2732)">25</text><text font-family="Arial,Arial_MSFontService,sans-serif" font-weight="400" font-size="37" transform="matrix(1 0 0 1 395.516 2477)">50</text><text font-family="Arial,Arial_MSFontService,sans-serif" font-weight="400" font-size="37" transform="matrix(1 0 0 1 395.516 2223)">75</text><text font-family="Arial,Arial_MSFontService,sans-serif" font-weight="400" font-size="37" transform="matrix(1 0 0 1 374.891 1969)">100</text></g></svg>