<svg width="2031" height="1298" xmlns="http://www.w3.org/2000/svg" xmlns:xlink="http://www.w3.org/1999/xlink" xml:space="preserve" overflow="hidden"><defs><clipPath id="clip0"><rect x="191" y="458" width="2031" height="1298"/></clipPath><clipPath id="clip1"><rect x="341" y="457" width="1881" height="1147"/></clipPath><clipPath id="clip2"><rect x="341" y="457" width="1881" height="1147"/></clipPath><clipPath id="clip3"><rect x="252" y="457" width="1970" height="1212"/></clipPath></defs><g clip-path="url(#clip0)" transform="translate(-191 -458)"><g clip-path="url(#clip1)"><g clip-path="url(#clip2)"><g clip-path="url(#clip3)"><path d="M-196.982-121.008 2166.8-121.008 2166.8 1331.09-196.982 1331.09Z" fill="#FFFFFF" transform="matrix(1 0 0 1.00008 252.181 458)"/><g><path d="M107.98 958.079 1950.98 958.079" stroke="#EBEBEB" stroke-width="1.83399" stroke-linejoin="round" stroke-miterlimit="10" fill="none" transform="matrix(1 0 0 1.00008 252.181 458)"/></g><g><path d="M107.98 704.52 1950.98 704.52" stroke="#EBEBEB" stroke-width="1.83399" stroke-linejoin="round" stroke-miterlimit="10" fill="none" transform="matrix(1 0 0 1.00008 252.181 458)"/></g><g><path d="M107.98 450.96 1950.98 450.96" stroke="#EBEBEB" stroke-width="1.83399" stroke-linejoin="round" stroke-miterlimit="10" fill="none" transform="matrix(1 0 0 1.00008 252.181 458)"/></g><g><path d="M107.98 197.387 1950.98 197.387" stroke="#EBEBEB" stroke-width="1.83399" stroke-linejoin="round" stroke-miterlimit="10" fill="none" transform="matrix(1 0 0 1.00008 252.181 458)"/></g><g><path d="M658.084 1135.62 658.084 18.8404" stroke="#EBEBEB" stroke-width="1.83399" stroke-linejoin="round" stroke-miterlimit="10" fill="none" transform="matrix(1 0 0 1.00008 252.181 458)"/></g><g><path d="M1216.58 1135.62 1216.58 18.8404" stroke="#EBEBEB" stroke-width="1.83399" stroke-linejoin="round" stroke-miterlimit="10" fill="none" transform="matrix(1 0 0 1.00008 252.181 458)"/></g><g><path d="M1775.06 1135.62 1775.06 18.8404" stroke="#EBEBEB" stroke-width="1.83399" stroke-linejoin="round" stroke-miterlimit="10" fill="none" transform="matrix(1 0 0 1.00008 252.181 458)"/></g><g><path d="M107.98 1084.86 1950.98 1084.86" stroke="#EBEBEB" stroke-width="3.66798" stroke-linejoin="round" stroke-miterlimit="10" fill="none" transform="matrix(1 0 0 1.00008 252.181 458)"/></g><g><path d="M107.98 831.299 1950.98 831.299" stroke="#EBEBEB" stroke-width="3.66798" stroke-linejoin="round" stroke-miterlimit="10" fill="none" transform="matrix(1 0 0 1.00008 252.181 458)"/></g><g><path d="M107.98 577.74 1950.98 577.74" stroke="#EBEBEB" stroke-width="3.66798" stroke-linejoin="round" stroke-miterlimit="10" fill="none" transform="matrix(1 0 0 1.00008 252.181 458)"/></g><g><path d="M107.98 324.167 1950.98 324.167" stroke="#EBEBEB" stroke-width="3.66798" stroke-linejoin="round" stroke-miterlimit="10" fill="none" transform="matrix(1 0 0 1.00008 252.181 458)"/></g><g><path d="M107.98 70.6077 1950.98 70.6077" stroke="#EBEBEB" stroke-width="3.66798" stroke-linejoin="round" stroke-miterlimit="10" fill="none" transform="matrix(1 0 0 1.00008 252.181 458)"/></g><g><path d="M378.849 1135.62 378.849 18.8404" stroke="#EBEBEB" stroke-width="3.66798" stroke-linejoin="round" stroke-miterlimit="10" fill="none" transform="matrix(1 0 0 1.00008 252.181 458)"/></g><g><path d="M937.332 1135.62 937.332 18.8404" stroke="#EBEBEB" stroke-width="3.66798" stroke-linejoin="round" stroke-miterlimit="10" fill="none" transform="matrix(1 0 0 1.00008 252.181 458)"/></g><g><path d="M1495.82 1135.62 1495.82 18.8404" stroke="#EBEBEB" stroke-width="3.66798" stroke-linejoin="round" stroke-miterlimit="10" fill="none" transform="matrix(1 0 0 1.00008 252.181 458)"/></g><path d="M205.713 83.1635 266.733 84.7884 327.753 86.5878 388.772 88.6155 449.792 90.8581 510.812 93.3693 571.831 96.1624 632.851 99.251 693.871 102.689 754.891 106.476 815.91 110.665 876.93 115.285 937.95 120.361 998.969 125.92 1059.99 132.017 1121.01 138.677 1182.03 145.942 1243.05 153.838 1304.07 162.392 1365.09 171.658 1426.11 181.649 1487.13 192.392 1548.15 203.914 1609.17 216.241 1670.19 229.361 1731.21 243.313 1792.23 258.085 1853.25 273.676" stroke="#000000" stroke-width="3.66798" stroke-linejoin="round" stroke-miterlimit="10" stroke-dasharray="3.66798 11.0039" fill="none" transform="matrix(1 0 0 1.00008 252.181 458)"/><path d="M205.713 544.262 266.733 568.649 327.753 593.29 388.772 618.066 449.792 642.882 510.812 667.591 571.831 692.071 632.851 716.23 693.871 739.931 754.891 763.069 815.91 785.535 876.93 807.262 937.95 828.157 998.969 848.152 1059.99 867.208 1121.01 885.269 1182.03 902.323 1243.05 918.357 1304.07 933.357 1365.09 947.336 1426.11 960.308 1487.13 972.314 1548.15 983.379 1609.17 993.544 1670.19 1002.85 1731.21 1011.34 1792.23 1019.07 1853.25 1026.1" stroke="#000000" stroke-width="3.66798" stroke-linejoin="round" stroke-miterlimit="10" stroke-dasharray="3.66798 11.0039" fill="none" transform="matrix(1 0 0 1.00008 252.181 458)"/><path d="M205.713 117.997 266.733 125.115 327.753 133.172 388.772 142.29 449.792 152.536 510.812 163.99 571.831 176.734 632.851 190.821 693.871 206.25 754.891 223.009 815.91 241.044 876.93 260.22 937.95 280.403 998.969 301.352 1059.99 322.865 1121.01 344.686 1182.03 366.588 1243.05 388.423 1304.07 410.057 1365.09 431.395 1426.11 452.424 1487.13 473.118 1548.15 493.489 1609.17 513.551 1670.19 533.318 1731.21 552.79 1792.23 571.966 1853.25 590.873" stroke="#000000" stroke-width="3.66798" stroke-linejoin="round" stroke-miterlimit="10" stroke-dasharray="14.6719 14.6719" fill="none" transform="matrix(1 0 0 1.00008 252.181 458)"/><path d="M205.713 256.245 266.733 267.404 327.753 279.181 388.772 291.63 449.792 304.79 510.812 318.715 571.831 333.46 632.851 349.118 693.871 365.756 754.891 383.481 815.91 402.416 876.93 422.68 937.95 444.394 998.969 467.679 1059.99 492.616 1121.01 519.218 1182.03 547.418 1243.05 577.055 1304.07 607.887 1365.09 639.552 1426.11 671.66 1487.13 703.781 1548.15 735.513 1609.17 766.453 1670.19 796.264 1731.21 824.652 1792.23 851.402 1853.25 876.366" stroke="#000000" stroke-width="3.66798" stroke-linejoin="round" stroke-miterlimit="10" stroke-dasharray="14.6719 14.6719" fill="none" transform="matrix(1 0 0 1.00008 252.181 458)"/><path d="M1057.41 788.247 1085.33 788.247" stroke="#000000" stroke-width="2.93439" stroke-linejoin="round" stroke-miterlimit="10" fill="none" transform="matrix(1 0 0 1.00008 252.181 458)"/><path d="M1071.36 788.247 1071.36 844.312" stroke="#000000" stroke-width="2.93439" stroke-linejoin="round" stroke-miterlimit="10" fill="none" transform="matrix(1 0 0 1.00008 252.181 458)"/><path d="M1057.41 844.312 1085.33 844.312" stroke="#000000" stroke-width="2.93439" stroke-linejoin="round" stroke-miterlimit="10" fill="none" transform="matrix(1 0 0 1.00008 252.181 458)"/><path d="M219.679 168.126 247.597 168.126" stroke="#000000" stroke-width="2.93439" stroke-linejoin="round" stroke-miterlimit="10" fill="none" transform="matrix(1 0 0 1.00008 252.181 458)"/><path d="M233.645 168.126 233.645 241.057" stroke="#000000" stroke-width="2.93439" stroke-linejoin="round" stroke-miterlimit="10" fill="none" transform="matrix(1 0 0 1.00008 252.181 458)"/><path d="M219.679 241.057 247.597 241.057" stroke="#000000" stroke-width="2.93439" stroke-linejoin="round" stroke-miterlimit="10" fill="none" transform="matrix(1 0 0 1.00008 252.181 458)"/><path d="M1476.28 362.492 1504.19 362.492" stroke="#000000" stroke-width="2.93439" stroke-linejoin="round" stroke-miterlimit="10" fill="none" transform="matrix(1 0 0 1.00008 252.181 458)"/><path d="M1490.23 362.492 1490.23 546.975" stroke="#000000" stroke-width="2.93439" stroke-linejoin="round" stroke-miterlimit="10" fill="none" transform="matrix(1 0 0 1.00008 252.181 458)"/><path d="M1476.28 546.975 1504.19 546.975" stroke="#000000" stroke-width="2.93439" stroke-linejoin="round" stroke-miterlimit="10" fill="none" transform="matrix(1 0 0 1.00008 252.181 458)"/><path d="M1174.68 584.32 1202.61 584.32" stroke="#000000" stroke-width="2.93439" stroke-linejoin="round" stroke-miterlimit="10" fill="none" transform="matrix(1 0 0 1.00008 252.181 458)"/><path d="M1188.65 584.32 1188.65 644.118" stroke="#000000" stroke-width="2.93439" stroke-linejoin="round" stroke-miterlimit="10" fill="none" transform="matrix(1 0 0 1.00008 252.181 458)"/><path d="M1174.68 644.118 1202.61 644.118" stroke="#000000" stroke-width="2.93439" stroke-linejoin="round" stroke-miterlimit="10" fill="none" transform="matrix(1 0 0 1.00008 252.181 458)"/><path d="M1336.65 278.819 1364.58 278.819" stroke="#000000" stroke-width="2.93439" stroke-linejoin="round" stroke-miterlimit="10" fill="none" transform="matrix(1 0 0 1.00008 252.181 458)"/><path d="M1350.61 278.819 1350.61 326.598" stroke="#000000" stroke-width="2.93439" stroke-linejoin="round" stroke-miterlimit="10" fill="none" transform="matrix(1 0 0 1.00008 252.181 458)"/><path d="M1336.65 326.598 1364.58 326.598" stroke="#000000" stroke-width="2.93439" stroke-linejoin="round" stroke-miterlimit="10" fill="none" transform="matrix(1 0 0 1.00008 252.181 458)"/><path d="M945.711 426.534 973.63 426.534" stroke="#000000" stroke-width="2.93439" stroke-linejoin="round" stroke-miterlimit="10" fill="none" transform="matrix(1 0 0 1.00008 252.181 458)"/><path d="M959.677 426.534 959.677 470.136" stroke="#000000" stroke-width="2.93439" stroke-linejoin="round" stroke-miterlimit="10" fill="none" transform="matrix(1 0 0 1.00008 252.181 458)"/><path d="M945.711 470.136 973.63 470.136" stroke="#000000" stroke-width="2.93439" stroke-linejoin="round" stroke-miterlimit="10" fill="none" transform="matrix(1 0 0 1.00008 252.181 458)"/><path d="M1548.87 525.65 1576.8 525.65" stroke="#000000" stroke-width="2.93439" stroke-linejoin="round" stroke-miterlimit="10" fill="none" transform="matrix(1 0 0 1.00008 252.181 458)"/><path d="M1562.84 525.65 1562.84 599.36" stroke="#000000" stroke-width="2.93439" stroke-linejoin="round" stroke-miterlimit="10" fill="none" transform="matrix(1 0 0 1.00008 252.181 458)"/><path d="M1548.87 599.36 1576.8 599.36" stroke="#000000" stroke-width="2.93439" stroke-linejoin="round" stroke-miterlimit="10" fill="none" transform="matrix(1 0 0 1.00008 252.181 458)"/><path d="M1560.04 475.736 1587.96 475.736" stroke="#000000" stroke-width="2.93439" stroke-linejoin="round" stroke-miterlimit="10" fill="none" transform="matrix(1 0 0 1.00008 252.181 458)"/><path d="M1574.01 475.736 1574.01 613.474" stroke="#000000" stroke-width="2.93439" stroke-linejoin="round" stroke-miterlimit="10" fill="none" transform="matrix(1 0 0 1.00008 252.181 458)"/><path d="M1560.04 613.474 1587.96 613.474" stroke="#000000" stroke-width="2.93439" stroke-linejoin="round" stroke-miterlimit="10" fill="none" transform="matrix(1 0 0 1.00008 252.181 458)"/><path d="M1755.51 568.313 1783.44 568.313" stroke="#000000" stroke-width="2.93439" stroke-linejoin="round" stroke-miterlimit="10" fill="none" transform="matrix(1 0 0 1.00008 252.181 458)"/><path d="M1769.48 568.313 1769.48 651.906" stroke="#000000" stroke-width="2.93439" stroke-linejoin="round" stroke-miterlimit="10" fill="none" transform="matrix(1 0 0 1.00008 252.181 458)"/><path d="M1755.51 651.906 1783.44 651.906" stroke="#000000" stroke-width="2.93439" stroke-linejoin="round" stroke-miterlimit="10" fill="none" transform="matrix(1 0 0 1.00008 252.181 458)"/><path d="M230.852 125.262 258.77 125.262" stroke="#000000" stroke-width="2.93439" stroke-linejoin="round" stroke-miterlimit="10" fill="none" transform="matrix(1 0 0 1.00008 252.181 458)"/><path d="M244.817 125.262 244.817 283.129" stroke="#000000" stroke-width="2.93439" stroke-linejoin="round" stroke-miterlimit="10" fill="none" transform="matrix(1 0 0 1.00008 252.181 458)"/><path d="M230.852 283.129 258.77 283.129" stroke="#000000" stroke-width="2.93439" stroke-linejoin="round" stroke-miterlimit="10" fill="none" transform="matrix(1 0 0 1.00008 252.181 458)"/><path d="M1621.48 214.267 1649.4 214.267" stroke="#000000" stroke-width="2.93439" stroke-linejoin="round" stroke-miterlimit="10" fill="none" transform="matrix(1 0 0 1.00008 252.181 458)"/><path d="M1635.43 214.267 1635.43 377.318" stroke="#000000" stroke-width="2.93439" stroke-linejoin="round" stroke-miterlimit="10" fill="none" transform="matrix(1 0 0 1.00008 252.181 458)"/><path d="M1621.48 377.318 1649.4 377.318" stroke="#000000" stroke-width="2.93439" stroke-linejoin="round" stroke-miterlimit="10" fill="none" transform="matrix(1 0 0 1.00008 252.181 458)"/><path d="M772.576 86.0372 800.508 86.0372" stroke="#000000" stroke-width="2.93439" stroke-linejoin="round" stroke-miterlimit="10" fill="none" transform="matrix(1 0 0 1.00008 252.181 458)"/><path d="M786.542 86.0372 786.542 90.8178" stroke="#000000" stroke-width="2.93439" stroke-linejoin="round" stroke-miterlimit="10" fill="none" transform="matrix(1 0 0 1.00008 252.181 458)"/><path d="M772.576 90.8178 800.508 90.8178" stroke="#000000" stroke-width="2.93439" stroke-linejoin="round" stroke-miterlimit="10" fill="none" transform="matrix(1 0 0 1.00008 252.181 458)"/><path d="M1001.56 277.556 1029.48 277.556" stroke="#000000" stroke-width="2.93439" stroke-linejoin="round" stroke-miterlimit="10" fill="none" transform="matrix(1 0 0 1.00008 252.181 458)"/><path d="M1015.53 277.556 1015.53 373.383" stroke="#000000" stroke-width="2.93439" stroke-linejoin="round" stroke-miterlimit="10" fill="none" transform="matrix(1 0 0 1.00008 252.181 458)"/><path d="M1001.56 373.383 1029.48 373.383" stroke="#000000" stroke-width="2.93439" stroke-linejoin="round" stroke-miterlimit="10" fill="none" transform="matrix(1 0 0 1.00008 252.181 458)"/><path d="M1331.06 669.27 1358.99 669.27" stroke="#000000" stroke-width="2.93439" stroke-linejoin="round" stroke-miterlimit="10" fill="none" transform="matrix(1 0 0 1.00008 252.181 458)"/><path d="M1345.03 669.27 1345.03 830.413" stroke="#000000" stroke-width="2.93439" stroke-linejoin="round" stroke-miterlimit="10" fill="none" transform="matrix(1 0 0 1.00008 252.181 458)"/><path d="M1331.06 830.413 1358.99 830.413" stroke="#000000" stroke-width="2.93439" stroke-linejoin="round" stroke-miterlimit="10" fill="none" transform="matrix(1 0 0 1.00008 252.181 458)"/><path d="M1839.28 697.188 1867.21 697.188" stroke="#000000" stroke-width="2.93439" stroke-linejoin="round" stroke-miterlimit="10" fill="none" transform="matrix(1 0 0 1.00008 252.181 458)"/><path d="M1853.25 697.188 1853.25 761.229" stroke="#000000" stroke-width="2.93439" stroke-linejoin="round" stroke-miterlimit="10" fill="none" transform="matrix(1 0 0 1.00008 252.181 458)"/><path d="M1839.28 761.229 1867.21 761.229" stroke="#000000" stroke-width="2.93439" stroke-linejoin="round" stroke-miterlimit="10" fill="none" transform="matrix(1 0 0 1.00008 252.181 458)"/><path d="M303.447 148.252 331.378 148.252" stroke="#000000" stroke-width="2.93439" stroke-linejoin="round" stroke-miterlimit="10" fill="none" transform="matrix(1 0 0 1.00008 252.181 458)"/><path d="M317.413 148.252 317.413 213.502" stroke="#000000" stroke-width="2.93439" stroke-linejoin="round" stroke-miterlimit="10" fill="none" transform="matrix(1 0 0 1.00008 252.181 458)"/><path d="M303.447 213.502 331.378 213.502" stroke="#000000" stroke-width="2.93439" stroke-linejoin="round" stroke-miterlimit="10" fill="none" transform="matrix(1 0 0 1.00008 252.181 458)"/><path d="M917.78 391.847 945.711 391.847" stroke="#000000" stroke-width="2.93439" stroke-linejoin="round" stroke-miterlimit="10" fill="none" transform="matrix(1 0 0 1.00008 252.181 458)"/><path d="M931.746 391.847 931.746 475.964" stroke="#000000" stroke-width="2.93439" stroke-linejoin="round" stroke-miterlimit="10" fill="none" transform="matrix(1 0 0 1.00008 252.181 458)"/><path d="M917.78 475.964 945.711 475.964" stroke="#000000" stroke-width="2.93439" stroke-linejoin="round" stroke-miterlimit="10" fill="none" transform="matrix(1 0 0 1.00008 252.181 458)"/><path d="M850.771 343.182 878.689 343.182" stroke="#000000" stroke-width="2.93439" stroke-linejoin="round" stroke-miterlimit="10" fill="none" transform="matrix(1 0 0 1.00008 252.181 458)"/><path d="M864.723 343.182 864.723 361.458" stroke="#000000" stroke-width="2.93439" stroke-linejoin="round" stroke-miterlimit="10" fill="none" transform="matrix(1 0 0 1.00008 252.181 458)"/><path d="M850.771 361.458 878.689 361.458" stroke="#000000" stroke-width="2.93439" stroke-linejoin="round" stroke-miterlimit="10" fill="none" transform="matrix(1 0 0 1.00008 252.181 458)"/><path d="M1576.8 869.517 1604.72 869.517" stroke="#000000" stroke-width="2.93439" stroke-linejoin="round" stroke-miterlimit="10" fill="none" transform="matrix(1 0 0 1.00008 252.181 458)"/><path d="M1590.76 869.517 1590.76 979.431" stroke="#000000" stroke-width="2.93439" stroke-linejoin="round" stroke-miterlimit="10" fill="none" transform="matrix(1 0 0 1.00008 252.181 458)"/><path d="M1576.8 979.431 1604.72 979.431" stroke="#000000" stroke-width="2.93439" stroke-linejoin="round" stroke-miterlimit="10" fill="none" transform="matrix(1 0 0 1.00008 252.181 458)"/><path d="M191.761 452.907 219.679 452.907" stroke="#000000" stroke-width="2.93439" stroke-linejoin="round" stroke-miterlimit="10" fill="none" transform="matrix(1 0 0 1.00008 252.181 458)"/><path d="M205.713 452.907 205.713 540.784" stroke="#000000" stroke-width="2.93439" stroke-linejoin="round" stroke-miterlimit="10" fill="none" transform="matrix(1 0 0 1.00008 252.181 458)"/><path d="M191.761 540.784 219.679 540.784" stroke="#000000" stroke-width="2.93439" stroke-linejoin="round" stroke-miterlimit="10" fill="none" transform="matrix(1 0 0 1.00008 252.181 458)"/><path d="M364.883 80.3301 392.814 80.3301" stroke="#000000" stroke-width="2.93439" stroke-linejoin="round" stroke-miterlimit="10" fill="none" transform="matrix(1 0 0 1.00008 252.181 458)"/><path d="M378.849 80.3301 378.849 99.3316" stroke="#000000" stroke-width="2.93439" stroke-linejoin="round" stroke-miterlimit="10" fill="none" transform="matrix(1 0 0 1.00008 252.181 458)"/><path d="M364.883 99.3316 392.814 99.3316" stroke="#000000" stroke-width="2.93439" stroke-linejoin="round" stroke-miterlimit="10" fill="none" transform="matrix(1 0 0 1.00008 252.181 458)"/><path d="M811.667 286.043 839.598 286.043" stroke="#000000" stroke-width="2.93439" stroke-linejoin="round" stroke-miterlimit="10" fill="none" transform="matrix(1 0 0 1.00008 252.181 458)"/><path d="M825.633 286.043 825.633 336.36" stroke="#000000" stroke-width="2.93439" stroke-linejoin="round" stroke-miterlimit="10" fill="none" transform="matrix(1 0 0 1.00008 252.181 458)"/><path d="M811.667 336.36 839.598 336.36" stroke="#000000" stroke-width="2.93439" stroke-linejoin="round" stroke-miterlimit="10" fill="none" transform="matrix(1 0 0 1.00008 252.181 458)"/><path d="M1744.34 739.313 1772.27 739.313" stroke="#000000" stroke-width="2.93439" stroke-linejoin="round" stroke-miterlimit="10" fill="none" transform="matrix(1 0 0 1.00008 252.181 458)"/><path d="M1758.3 739.313 1758.3 817.602" stroke="#000000" stroke-width="2.93439" stroke-linejoin="round" stroke-miterlimit="10" fill="none" transform="matrix(1 0 0 1.00008 252.181 458)"/><path d="M1744.34 817.602 1772.27 817.602" stroke="#000000" stroke-width="2.93439" stroke-linejoin="round" stroke-miterlimit="10" fill="none" transform="matrix(1 0 0 1.00008 252.181 458)"/><path d="M230.852 104.824 258.77 104.824" stroke="#000000" stroke-width="2.93439" stroke-linejoin="round" stroke-miterlimit="10" fill="none" transform="matrix(1 0 0 1.00008 252.181 458)"/><path d="M244.817 104.824 244.817 188.189" stroke="#000000" stroke-width="2.93439" stroke-linejoin="round" stroke-miterlimit="10" fill="none" transform="matrix(1 0 0 1.00008 252.181 458)"/><path d="M230.852 188.189 258.77 188.189" stroke="#000000" stroke-width="2.93439" stroke-linejoin="round" stroke-miterlimit="10" fill="none" transform="matrix(1 0 0 1.00008 252.181 458)"/><path d="M1677.33 650.456 1705.25 650.456" stroke="#000000" stroke-width="2.93439" stroke-linejoin="round" stroke-miterlimit="10" fill="none" transform="matrix(1 0 0 1.00008 252.181 458)"/><path d="M1691.28 650.456 1691.28 680.899" stroke="#000000" stroke-width="2.93439" stroke-linejoin="round" stroke-miterlimit="10" fill="none" transform="matrix(1 0 0 1.00008 252.181 458)"/><path d="M1677.33 680.899 1705.25 680.899" stroke="#000000" stroke-width="2.93439" stroke-linejoin="round" stroke-miterlimit="10" fill="none" transform="matrix(1 0 0 1.00008 252.181 458)"/><path d="M1576.8 757.281 1604.72 757.281" stroke="#000000" stroke-width="2.93439" stroke-linejoin="round" stroke-miterlimit="10" fill="none" transform="matrix(1 0 0 1.00008 252.181 458)"/><path d="M1590.76 757.281 1590.76 811.345" stroke="#000000" stroke-width="2.93439" stroke-linejoin="round" stroke-miterlimit="10" fill="none" transform="matrix(1 0 0 1.00008 252.181 458)"/><path d="M1576.8 811.345 1604.72 811.345" stroke="#000000" stroke-width="2.93439" stroke-linejoin="round" stroke-miterlimit="10" fill="none" transform="matrix(1 0 0 1.00008 252.181 458)"/><path d="M1453.93 718.432 1481.85 718.432" stroke="#000000" stroke-width="2.93439" stroke-linejoin="round" stroke-miterlimit="10" fill="none" transform="matrix(1 0 0 1.00008 252.181 458)"/><path d="M1467.9 718.432 1467.9 811.989" stroke="#000000" stroke-width="2.93439" stroke-linejoin="round" stroke-miterlimit="10" fill="none" transform="matrix(1 0 0 1.00008 252.181 458)"/><path d="M1453.93 811.989 1481.85 811.989" stroke="#000000" stroke-width="2.93439" stroke-linejoin="round" stroke-miterlimit="10" fill="none" transform="matrix(1 0 0 1.00008 252.181 458)"/><path d="M1342.23 529.531 1370.16 529.531" stroke="#000000" stroke-width="2.93439" stroke-linejoin="round" stroke-miterlimit="10" fill="none" transform="matrix(1 0 0 1.00008 252.181 458)"/><path d="M1356.2 529.531 1356.2 682.067" stroke="#000000" stroke-width="2.93439" stroke-linejoin="round" stroke-miterlimit="10" fill="none" transform="matrix(1 0 0 1.00008 252.181 458)"/><path d="M1342.23 682.067 1370.16 682.067" stroke="#000000" stroke-width="2.93439" stroke-linejoin="round" stroke-miterlimit="10" fill="none" transform="matrix(1 0 0 1.00008 252.181 458)"/><path d="M205.713 166.81 266.733 176.788 327.753 187.652 388.772 199.482 449.792 212.32 510.812 226.205 571.831 241.192 632.851 257.306 693.871 274.575 754.891 293.013 815.91 312.605 876.93 333.366 937.95 355.254 998.969 378.204 1059.99 402.174 1121.01 427.071 1182.03 452.787 1243.05 479.201 1304.07 506.192 1365.09 533.6 1426.11 561.277 1487.13 589.034 1548.15 616.737 1609.17 644.212 1670.19 671.284 1731.21 697.819 1792.23 723.682 1853.25 748.727" stroke="#000000" stroke-width="5.50198" stroke-linejoin="round" stroke-miterlimit="10" fill="none" transform="matrix(1 0 0 1.00008 252.181 458)"/><path d="M1081.76 811.747C1081.76 825.592 1060.98 825.592 1060.98 811.747 1060.98 797.889 1081.76 797.889 1081.76 811.747" stroke="#000000" stroke-width="2.43619" stroke-linecap="round" stroke-linejoin="round" stroke-miterlimit="10" stroke-opacity="0.94902" fill="#A9A9A9" fill-opacity="0.94902" transform="matrix(1 0 0 1.00008 252.181 458)"/><path d="M244.025 204.438C244.025 218.282 223.251 218.282 223.251 204.438 223.251 190.579 244.025 190.579 244.025 204.438" stroke="#000000" stroke-width="2.43619" stroke-linecap="round" stroke-linejoin="round" stroke-miterlimit="10" stroke-opacity="0.94902" fill="#A9A9A9" fill-opacity="0.94902" transform="matrix(1 0 0 1.00008 252.181 458)"/><path d="M1500.62 422.962C1500.62 436.807 1479.85 436.807 1479.85 422.962 1479.85 409.117 1500.62 409.117 1500.62 422.962" stroke="#000000" stroke-width="2.43619" stroke-linecap="round" stroke-linejoin="round" stroke-miterlimit="10" stroke-opacity="0.94902" fill="#A9A9A9" fill-opacity="0.94902" transform="matrix(1 0 0 1.00008 252.181 458)"/><path d="M1199.04 613.527C1199.04 627.372 1178.27 627.372 1178.27 613.527 1178.27 599.669 1199.04 599.669 1199.04 613.527" stroke="#000000" stroke-width="2.43619" stroke-linecap="round" stroke-linejoin="round" stroke-miterlimit="10" stroke-opacity="0.94902" fill="#A9A9A9" fill-opacity="0.94902" transform="matrix(1 0 0 1.00008 252.181 458)"/><path d="M1361.01 297.847C1361.01 311.705 1340.22 311.705 1340.22 297.847 1340.22 284.002 1361.01 284.002 1361.01 297.847" stroke="#000000" stroke-width="2.43619" stroke-linecap="round" stroke-linejoin="round" stroke-miterlimit="10" stroke-opacity="0.94902" fill="#A9A9A9" fill-opacity="0.94902" transform="matrix(1 0 0 1.00008 252.181 458)"/><path d="M970.058 448.315C970.058 462.173 949.283 462.173 949.283 448.315 949.283 434.47 970.058 434.47 970.058 448.315" stroke="#000000" stroke-width="2.43619" stroke-linecap="round" stroke-linejoin="round" stroke-miterlimit="10" stroke-opacity="0.94902" fill="#A9A9A9" fill-opacity="0.94902" transform="matrix(1 0 0 1.00008 252.181 458)"/><path d="M1573.22 559.652C1573.22 573.51 1552.44 573.51 1552.44 559.652 1552.44 545.807 1573.22 545.807 1573.22 559.652" stroke="#000000" stroke-width="2.43619" stroke-linecap="round" stroke-linejoin="round" stroke-miterlimit="10" stroke-opacity="0.94902" fill="#A9A9A9" fill-opacity="0.94902" transform="matrix(1 0 0 1.00008 252.181 458)"/><path d="M1584.39 524.63C1584.39 538.488 1563.62 538.488 1563.62 524.63 1563.62 510.785 1584.39 510.785 1584.39 524.63" stroke="#000000" stroke-width="2.43619" stroke-linecap="round" stroke-linejoin="round" stroke-miterlimit="10" stroke-opacity="0.94902" fill="#A9A9A9" fill-opacity="0.94902" transform="matrix(1 0 0 1.00008 252.181 458)"/><path d="M1779.86 609.593C1779.86 623.438 1759.08 623.438 1759.08 609.593 1759.08 595.734 1779.86 595.734 1779.86 609.593" stroke="#000000" stroke-width="2.43619" stroke-linecap="round" stroke-linejoin="round" stroke-miterlimit="10" stroke-opacity="0.94902" fill="#A9A9A9" fill-opacity="0.94902" transform="matrix(1 0 0 1.00008 252.181 458)"/><path d="M255.198 191.559C255.198 205.418 234.424 205.418 234.424 191.559 234.424 177.715 255.198 177.715 255.198 191.559" stroke="#000000" stroke-width="2.43619" stroke-linecap="round" stroke-linejoin="round" stroke-miterlimit="10" stroke-opacity="0.94902" fill="#A9A9A9" fill-opacity="0.94902" transform="matrix(1 0 0 1.00008 252.181 458)"/><path d="M1645.83 292.65C1645.83 306.509 1625.05 306.509 1625.05 292.65 1625.05 278.805 1645.83 278.805 1645.83 292.65" stroke="#000000" stroke-width="2.43619" stroke-linecap="round" stroke-linejoin="round" stroke-miterlimit="10" stroke-opacity="0.94902" fill="#A9A9A9" fill-opacity="0.94902" transform="matrix(1 0 0 1.00008 252.181 458)"/><path d="M796.936 88.4007C796.936 102.246 776.148 102.246 776.148 88.4007 776.148 74.5423 796.936 74.5423 796.936 88.4007" stroke="#000000" stroke-width="2.43619" stroke-linecap="round" stroke-linejoin="round" stroke-miterlimit="10" stroke-opacity="0.94902" fill="#A9A9A9" fill-opacity="0.94902" transform="matrix(1 0 0 1.00008 252.181 458)"/><path d="M1025.91 325.765C1025.91 339.61 1005.13 339.61 1005.13 325.765 1005.13 311.907 1025.91 311.907 1025.91 325.765" stroke="#000000" stroke-width="2.43619" stroke-linecap="round" stroke-linejoin="round" stroke-miterlimit="10" stroke-opacity="0.94902" fill="#A9A9A9" fill-opacity="0.94902" transform="matrix(1 0 0 1.00008 252.181 458)"/><path d="M1355.42 749.546C1355.42 763.404 1334.64 763.404 1334.64 749.546 1334.64 735.701 1355.42 735.701 1355.42 749.546" stroke="#000000" stroke-width="2.43619" stroke-linecap="round" stroke-linejoin="round" stroke-miterlimit="10" stroke-opacity="0.94902" fill="#A9A9A9" fill-opacity="0.94902" transform="matrix(1 0 0 1.00008 252.181 458)"/><path d="M1863.64 725.146C1863.64 739.004 1842.86 739.004 1842.86 725.146 1842.86 711.301 1863.64 711.301 1863.64 725.146" stroke="#000000" stroke-width="2.43619" stroke-linecap="round" stroke-linejoin="round" stroke-miterlimit="10" stroke-opacity="0.94902" fill="#A9A9A9" fill-opacity="0.94902" transform="matrix(1 0 0 1.00008 252.181 458)"/><path d="M327.806 180.991C327.806 194.836 307.032 194.836 307.032 180.991 307.032 167.133 327.806 167.133 327.806 180.991" stroke="#000000" stroke-width="2.43619" stroke-linecap="round" stroke-linejoin="round" stroke-miterlimit="10" stroke-opacity="0.94902" fill="#A9A9A9" fill-opacity="0.94902" transform="matrix(1 0 0 1.00008 252.181 458)"/><path d="M942.139 432.751C942.139 446.596 921.365 446.596 921.365 432.751 921.365 418.906 942.139 418.906 942.139 432.751" stroke="#000000" stroke-width="2.43619" stroke-linecap="round" stroke-linejoin="round" stroke-miterlimit="10" stroke-opacity="0.94902" fill="#A9A9A9" fill-opacity="0.94902" transform="matrix(1 0 0 1.00008 252.181 458)"/><path d="M875.117 352.045C875.117 365.89 854.343 365.89 854.343 352.045 854.343 338.187 875.117 338.187 875.117 352.045" stroke="#000000" stroke-width="2.43619" stroke-linecap="round" stroke-linejoin="round" stroke-miterlimit="10" stroke-opacity="0.94902" fill="#A9A9A9" fill-opacity="0.94902" transform="matrix(1 0 0 1.00008 252.181 458)"/><path d="M1601.15 927.341C1601.15 941.199 1580.38 941.199 1580.38 927.341 1580.38 913.496 1601.15 913.496 1601.15 927.341" stroke="#000000" stroke-width="2.43619" stroke-linecap="round" stroke-linejoin="round" stroke-miterlimit="10" stroke-opacity="0.94902" fill="#A9A9A9" fill-opacity="0.94902" transform="matrix(1 0 0 1.00008 252.181 458)"/><path d="M216.107 493.851C216.107 507.696 195.333 507.696 195.333 493.851 195.333 479.993 216.107 479.993 216.107 493.851" stroke="#000000" stroke-width="2.43619" stroke-linecap="round" stroke-linejoin="round" stroke-miterlimit="10" stroke-opacity="0.94902" fill="#A9A9A9" fill-opacity="0.94902" transform="matrix(1 0 0 1.00008 252.181 458)"/><path d="M389.229 89.0184C389.229 102.877 368.455 102.877 368.455 89.0184 368.455 75.1735 389.229 75.1735 389.229 89.0184" stroke="#000000" stroke-width="2.43619" stroke-linecap="round" stroke-linejoin="round" stroke-miterlimit="10" stroke-opacity="0.94902" fill="#A9A9A9" fill-opacity="0.94902" transform="matrix(1 0 0 1.00008 252.181 458)"/><path d="M836.026 310.564C836.026 324.409 815.252 324.409 815.252 310.564 815.252 296.706 836.026 296.706 836.026 310.564" stroke="#000000" stroke-width="2.43619" stroke-linecap="round" stroke-linejoin="round" stroke-miterlimit="10" stroke-opacity="0.94902" fill="#A9A9A9" fill-opacity="0.94902" transform="matrix(1 0 0 1.00008 252.181 458)"/><path d="M1768.7 775.007C1768.7 788.865 1747.91 788.865 1747.91 775.007 1747.91 761.162 1768.7 761.162 1768.7 775.007" stroke="#000000" stroke-width="2.43619" stroke-linecap="round" stroke-linejoin="round" stroke-miterlimit="10" stroke-opacity="0.94902" fill="#A9A9A9" fill-opacity="0.94902" transform="matrix(1 0 0 1.00008 252.181 458)"/><path d="M255.198 141.35C255.198 155.195 234.424 155.195 234.424 141.35 234.424 127.505 255.198 127.505 255.198 141.35" stroke="#000000" stroke-width="2.43619" stroke-linecap="round" stroke-linejoin="round" stroke-miterlimit="10" stroke-opacity="0.94902" fill="#A9A9A9" fill-opacity="0.94902" transform="matrix(1 0 0 1.00008 252.181 458)"/><path d="M1701.68 662.448C1701.68 676.293 1680.9 676.293 1680.9 662.448 1680.9 648.589 1701.68 648.589 1701.68 662.448" stroke="#000000" stroke-width="2.43619" stroke-linecap="round" stroke-linejoin="round" stroke-miterlimit="10" stroke-opacity="0.94902" fill="#A9A9A9" fill-opacity="0.94902" transform="matrix(1 0 0 1.00008 252.181 458)"/><path d="M1601.15 783.265C1601.15 797.124 1580.38 797.124 1580.38 783.265 1580.38 769.42 1601.15 769.42 1601.15 783.265" stroke="#000000" stroke-width="2.43619" stroke-linecap="round" stroke-linejoin="round" stroke-miterlimit="10" stroke-opacity="0.94902" fill="#A9A9A9" fill-opacity="0.94902" transform="matrix(1 0 0 1.00008 252.181 458)"/><path d="M1478.28 749.17C1478.28 763.028 1457.5 763.028 1457.5 749.17 1457.5 735.325 1478.28 735.325 1478.28 749.17" stroke="#000000" stroke-width="2.43619" stroke-linecap="round" stroke-linejoin="round" stroke-miterlimit="10" stroke-opacity="0.94902" fill="#A9A9A9" fill-opacity="0.94902" transform="matrix(1 0 0 1.00008 252.181 458)"/><path d="M1366.58 604.92C1366.58 618.778 1345.8 618.778 1345.8 604.92 1345.8 591.075 1366.58 591.075 1366.58 604.92" stroke="#000000" stroke-width="2.43619" stroke-linecap="round" stroke-linejoin="round" stroke-miterlimit="10" stroke-opacity="0.94902" fill="#A9A9A9" fill-opacity="0.94902" transform="matrix(1 0 0 1.00008 252.181 458)"/><g><path d="M107.98 1135.62 1950.98 1135.62 1950.98 18.8404 107.98 18.8404Z" stroke="#000000" stroke-width="5.50198" stroke-linecap="round" stroke-linejoin="round" stroke-miterlimit="10" fill="none" transform="matrix(1 0 0 1.00008 252.181 458)"/></g><path d="M10.3132-27.3944C7.46632-27.3944 4.99545-26.159 3.38402-23.9567 1.82629-21.8618 1.07429-18.4778 1.07429-13.2138 1.07429-8.4869 1.71886-5.15659 3.00801-3.11544 4.56573-0.537145 7.19775 0.859432 10.3132 0.859432 13.2138 0.859432 15.6309-0.322287 17.2961-2.52458 18.8001-4.61945 19.5521-8.05718 19.5521-13.1063 19.5521-17.9944 18.9612-21.3247 17.6721-23.4195 16.0606-25.9978 13.4823-27.3944 10.3132-27.3944ZM10.3132-23.0972C11.7098-23.0972 12.7841-22.3452 13.4286-20.9487 13.9658-19.8207 14.2344-16.9201 14.2344-13.2138 14.2344-10.152 13.9658-7.19775 13.5898-6.12346 12.9452-4.51202 11.8172-3.65259 10.3132-3.65259 8.91661-3.65259 7.84232-4.40459 7.19775-5.74745 6.71432-6.87546 6.39203-9.66862 6.39203-13.2675 6.39203-16.4366 6.6606-19.4984 7.09032-20.5727 7.62746-22.1841 8.80918-23.0972 10.3132-23.0972Z" fill="#4D4D4D" transform="matrix(1 0 0 1.00008 271.021 1555.04)"/><path d="M8.11089-5.5326 2.41715-5.5326 2.41715 0 8.11089 0Z" fill="#4D4D4D" transform="matrix(1 0 0 1.00008 291.648 1555.04)"/><path d="M10.3132-27.3944C7.46632-27.3944 4.99545-26.159 3.38402-23.9567 1.82629-21.8618 1.07429-18.4778 1.07429-13.2138 1.07429-8.4869 1.71886-5.15659 3.00801-3.11544 4.56573-0.537145 7.19775 0.859432 10.3132 0.859432 13.2138 0.859432 15.6309-0.322287 17.2961-2.52458 18.8001-4.61945 19.5521-8.05718 19.5521-13.1063 19.5521-17.9944 18.9612-21.3247 17.6721-23.4195 16.0606-25.9978 13.4823-27.3944 10.3132-27.3944ZM10.3132-23.0972C11.7098-23.0972 12.7841-22.3452 13.4286-20.9487 13.9658-19.8207 14.2344-16.9201 14.2344-13.2138 14.2344-10.152 13.9658-7.19775 13.5898-6.12346 12.9452-4.51202 11.8172-3.65259 10.3132-3.65259 8.91661-3.65259 7.84232-4.40459 7.19775-5.74745 6.71432-6.87546 6.39203-9.66862 6.39203-13.2675 6.39203-16.4366 6.6606-19.4984 7.09032-20.5727 7.62746-22.1841 8.80918-23.0972 10.3132-23.0972Z" fill="#4D4D4D" transform="matrix(1 0 0 1.00008 301.961 1555.04)"/><path d="M10.3132-27.3944C7.46632-27.3944 4.99545-26.159 3.38402-23.9567 1.82629-21.8618 1.07429-18.4778 1.07429-13.2138 1.07429-8.4869 1.71886-5.15659 3.00801-3.11544 4.56573-0.537145 7.19775 0.859432 10.3132 0.859432 13.2138 0.859432 15.6309-0.322287 17.2961-2.52458 18.8001-4.61945 19.5521-8.05718 19.5521-13.1063 19.5521-17.9944 18.9612-21.3247 17.6721-23.4195 16.0606-25.9978 13.4823-27.3944 10.3132-27.3944ZM10.3132-23.0972C11.7098-23.0972 12.7841-22.3452 13.4286-20.9487 13.9658-19.8207 14.2344-16.9201 14.2344-13.2138 14.2344-10.152 13.9658-7.19775 13.5898-6.12346 12.9452-4.51202 11.8172-3.65259 10.3132-3.65259 8.91661-3.65259 7.84232-4.40459 7.19775-5.74745 6.71432-6.87546 6.39203-9.66862 6.39203-13.2675 6.39203-16.4366 6.6606-19.4984 7.09032-20.5727 7.62746-22.1841 8.80918-23.0972 10.3132-23.0972Z" fill="#4D4D4D" transform="matrix(1 0 0 1.00008 322.587 1555.04)"/><path d="M10.3132-27.3944C7.46632-27.3944 4.99545-26.159 3.38402-23.9567 1.82629-21.8618 1.07429-18.4778 1.07429-13.2138 1.07429-8.4869 1.71886-5.15659 3.00801-3.11544 4.56573-0.537145 7.19775 0.859432 10.3132 0.859432 13.2138 0.859432 15.6309-0.322287 17.2961-2.52458 18.8001-4.61945 19.5521-8.05718 19.5521-13.1063 19.5521-17.9944 18.9612-21.3247 17.6721-23.4195 16.0606-25.9978 13.4823-27.3944 10.3132-27.3944ZM10.3132-23.0972C11.7098-23.0972 12.7841-22.3452 13.4286-20.9487 13.9658-19.8207 14.2344-16.9201 14.2344-13.2138 14.2344-10.152 13.9658-7.19775 13.5898-6.12346 12.9452-4.51202 11.8172-3.65259 10.3132-3.65259 8.91661-3.65259 7.84232-4.40459 7.19775-5.74745 6.71432-6.87546 6.39203-9.66862 6.39203-13.2675 6.39203-16.4366 6.6606-19.4984 7.09032-20.5727 7.62746-22.1841 8.80918-23.0972 10.3132-23.0972Z" fill="#4D4D4D" transform="matrix(1 0 0 1.00008 271.021 1301.46)"/><path d="M8.11089-5.5326 2.41715-5.5326 2.41715 0 8.11089 0Z" fill="#4D4D4D" transform="matrix(1 0 0 1.00008 291.648 1301.46)"/><path d="M19.3372-4.72688 8.00346-4.72688C8.70175-6.17717 9.50747-6.98289 13.4823-9.77604 18.1018-13.2138 19.4984-15.2012 19.4984-18.8538 19.4984-24.0641 15.8995-27.3944 10.2595-27.3944 4.72688-27.3944 1.45029-24.0641 1.45029-18.4241L1.45029-17.4572 6.55317-17.4572 6.55317-18.3167C6.55317-21.3247 8.00346-23.0435 10.4206-23.0435 12.7303-23.0435 14.1806-21.4321 14.1806-18.7464 14.1806-15.7921 13.2675-14.6641 7.30518-10.4206 2.73944-7.35889 1.34286-4.99545 1.12801 0L19.3372 0Z" fill="#4D4D4D" transform="matrix(1 0 0 1.00008 301.961 1301.46)"/><path d="M18.4778-26.8036 4.13602-26.8036 1.77258-11.8709 6.55317-11.8709C7.09032-13.2138 8.32575-13.9121 9.93719-13.9121 12.6229-13.9121 14.2344-11.9783 14.2344-8.75547 14.2344-5.58631 12.6229-3.65259 9.93719-3.65259 7.62746-3.65259 6.33831-4.83431 6.23089-6.98289L1.02058-6.98289C1.07429-2.30972 4.67316 0.859432 9.88347 0.859432 15.6309 0.859432 19.5521-3.06173 19.5521-8.8629 19.5521-14.3955 16.1681-18.1018 11.1726-18.1018 9.40004-18.1018 8.11089-17.6721 6.55317-16.4904L7.4126-22.0767 18.4778-22.0767Z" fill="#4D4D4D" transform="matrix(1 0 0 1.00008 322.587 1301.46)"/><path d="M10.3132-27.3944C7.46632-27.3944 4.99545-26.159 3.38402-23.9567 1.82629-21.8618 1.07429-18.4778 1.07429-13.2138 1.07429-8.4869 1.71886-5.15659 3.00801-3.11544 4.56573-0.537145 7.19775 0.859432 10.3132 0.859432 13.2138 0.859432 15.6309-0.322287 17.2961-2.52458 18.8001-4.61945 19.5521-8.05718 19.5521-13.1063 19.5521-17.9944 18.9612-21.3247 17.6721-23.4195 16.0606-25.9978 13.4823-27.3944 10.3132-27.3944ZM10.3132-23.0972C11.7098-23.0972 12.7841-22.3452 13.4286-20.9487 13.9658-19.8207 14.2344-16.9201 14.2344-13.2138 14.2344-10.152 13.9658-7.19775 13.5898-6.12346 12.9452-4.51202 11.8172-3.65259 10.3132-3.65259 8.91661-3.65259 7.84232-4.40459 7.19775-5.74745 6.71432-6.87546 6.39203-9.66862 6.39203-13.2675 6.39203-16.4366 6.6606-19.4984 7.09032-20.5727 7.62746-22.1841 8.80918-23.0972 10.3132-23.0972Z" fill="#4D4D4D" transform="matrix(1 0 0 1.00008 271.021 1047.88)"/><path d="M8.11089-5.5326 2.41715-5.5326 2.41715 0 8.11089 0Z" fill="#4D4D4D" transform="matrix(1 0 0 1.00008 291.648 1047.88)"/><path d="M18.4778-26.8036 4.13602-26.8036 1.77258-11.8709 6.55317-11.8709C7.09032-13.2138 8.32575-13.9121 9.93719-13.9121 12.6229-13.9121 14.2344-11.9783 14.2344-8.75547 14.2344-5.58631 12.6229-3.65259 9.93719-3.65259 7.62746-3.65259 6.33831-4.83431 6.23089-6.98289L1.02058-6.98289C1.07429-2.30972 4.67316 0.859432 9.88347 0.859432 15.6309 0.859432 19.5521-3.06173 19.5521-8.8629 19.5521-14.3955 16.1681-18.1018 11.1726-18.1018 9.40004-18.1018 8.11089-17.6721 6.55317-16.4904L7.4126-22.0767 18.4778-22.0767Z" fill="#4D4D4D" transform="matrix(1 0 0 1.00008 301.961 1047.88)"/><path d="M10.3132-27.3944C7.46632-27.3944 4.99545-26.159 3.38402-23.9567 1.82629-21.8618 1.07429-18.4778 1.07429-13.2138 1.07429-8.4869 1.71886-5.15659 3.00801-3.11544 4.56573-0.537145 7.19775 0.859432 10.3132 0.859432 13.2138 0.859432 15.6309-0.322287 17.2961-2.52458 18.8001-4.61945 19.5521-8.05718 19.5521-13.1063 19.5521-17.9944 18.9612-21.3247 17.6721-23.4195 16.0606-25.9978 13.4823-27.3944 10.3132-27.3944ZM10.3132-23.0972C11.7098-23.0972 12.7841-22.3452 13.4286-20.9487 13.9658-19.8207 14.2344-16.9201 14.2344-13.2138 14.2344-10.152 13.9658-7.19775 13.5898-6.12346 12.9452-4.51202 11.8172-3.65259 10.3132-3.65259 8.91661-3.65259 7.84232-4.40459 7.19775-5.74745 6.71432-6.87546 6.39203-9.66862 6.39203-13.2675 6.39203-16.4366 6.6606-19.4984 7.09032-20.5727 7.62746-22.1841 8.80918-23.0972 10.3132-23.0972Z" fill="#4D4D4D" transform="matrix(1 0 0 1.00008 322.587 1047.88)"/><path d="M10.3132-27.3944C7.46632-27.3944 4.99545-26.159 3.38402-23.9567 1.82629-21.8618 1.07429-18.4778 1.07429-13.2138 1.07429-8.4869 1.71886-5.15659 3.00801-3.11544 4.56573-0.537145 7.19775 0.859432 10.3132 0.859432 13.2138 0.859432 15.6309-0.322287 17.2961-2.52458 18.8001-4.61945 19.5521-8.05718 19.5521-13.1063 19.5521-17.9944 18.9612-21.3247 17.6721-23.4195 16.0606-25.9978 13.4823-27.3944 10.3132-27.3944ZM10.3132-23.0972C11.7098-23.0972 12.7841-22.3452 13.4286-20.9487 13.9658-19.8207 14.2344-16.9201 14.2344-13.2138 14.2344-10.152 13.9658-7.19775 13.5898-6.12346 12.9452-4.51202 11.8172-3.65259 10.3132-3.65259 8.91661-3.65259 7.84232-4.40459 7.19775-5.74745 6.71432-6.87546 6.39203-9.66862 6.39203-13.2675 6.39203-16.4366 6.6606-19.4984 7.09032-20.5727 7.62746-22.1841 8.80918-23.0972 10.3132-23.0972Z" fill="#4D4D4D" transform="matrix(1 0 0 1.00008 271.021 794.289)"/><path d="M8.11089-5.5326 2.41715-5.5326 2.41715 0 8.11089 0Z" fill="#4D4D4D" transform="matrix(1 0 0 1.00008 291.648 794.289)"/><path d="M19.9818-26.8036 1.07429-26.8036 1.07429-22.0767 14.4492-22.0767C12.8378-20.3578 9.6149-15.4698 8.54061-13.1063 6.71432-9.2389 5.74745-5.69374 5.04917 0L10.3669 0C10.8503-8.4869 13.5898-14.9864 19.9818-22.6675Z" fill="#4D4D4D" transform="matrix(1 0 0 1.00008 301.961 794.289)"/><path d="M18.4778-26.8036 4.13602-26.8036 1.77258-11.8709 6.55317-11.8709C7.09032-13.2138 8.32575-13.9121 9.93719-13.9121 12.6229-13.9121 14.2344-11.9783 14.2344-8.75547 14.2344-5.58631 12.6229-3.65259 9.93719-3.65259 7.62746-3.65259 6.33831-4.83431 6.23089-6.98289L1.02058-6.98289C1.07429-2.30972 4.67316 0.859432 9.88347 0.859432 15.6309 0.859432 19.5521-3.06173 19.5521-8.8629 19.5521-14.3955 16.1681-18.1018 11.1726-18.1018 9.40004-18.1018 8.11089-17.6721 6.55317-16.4904L7.4126-22.0767 18.4778-22.0767Z" fill="#4D4D4D" transform="matrix(1 0 0 1.00008 322.587 794.289)"/><path d="M9.02404-18.4778 9.02404 0 14.2881 0 14.2881-26.8036 10.7966-26.8036C9.93719-23.6344 7.19775-22.023 2.5783-22.023L2.5783-18.4778Z" fill="#4D4D4D" transform="matrix(1 0 0 1.00008 271.021 540.71)"/><path d="M8.11089-5.5326 2.41715-5.5326 2.41715 0 8.11089 0Z" fill="#4D4D4D" transform="matrix(1 0 0 1.00008 291.648 540.71)"/><path d="M10.3132-27.3944C7.46632-27.3944 4.99545-26.159 3.38402-23.9567 1.82629-21.8618 1.07429-18.4778 1.07429-13.2138 1.07429-8.4869 1.71886-5.15659 3.00801-3.11544 4.56573-0.537145 7.19775 0.859432 10.3132 0.859432 13.2138 0.859432 15.6309-0.322287 17.2961-2.52458 18.8001-4.61945 19.5521-8.05718 19.5521-13.1063 19.5521-17.9944 18.9612-21.3247 17.6721-23.4195 16.0606-25.9978 13.4823-27.3944 10.3132-27.3944ZM10.3132-23.0972C11.7098-23.0972 12.7841-22.3452 13.4286-20.9487 13.9658-19.8207 14.2344-16.9201 14.2344-13.2138 14.2344-10.152 13.9658-7.19775 13.5898-6.12346 12.9452-4.51202 11.8172-3.65259 10.3132-3.65259 8.91661-3.65259 7.84232-4.40459 7.19775-5.74745 6.71432-6.87546 6.39203-9.66862 6.39203-13.2675 6.39203-16.4366 6.6606-19.4984 7.09032-20.5727 7.62746-22.1841 8.80918-23.0972 10.3132-23.0972Z" fill="#4D4D4D" transform="matrix(1 0 0 1.00008 301.961 540.71)"/><path d="M10.3132-27.3944C7.46632-27.3944 4.99545-26.159 3.38402-23.9567 1.82629-21.8618 1.07429-18.4778 1.07429-13.2138 1.07429-8.4869 1.71886-5.15659 3.00801-3.11544 4.56573-0.537145 7.19775 0.859432 10.3132 0.859432 13.2138 0.859432 15.6309-0.322287 17.2961-2.52458 18.8001-4.61945 19.5521-8.05718 19.5521-13.1063 19.5521-17.9944 18.9612-21.3247 17.6721-23.4195 16.0606-25.9978 13.4823-27.3944 10.3132-27.3944ZM10.3132-23.0972C11.7098-23.0972 12.7841-22.3452 13.4286-20.9487 13.9658-19.8207 14.2344-16.9201 14.2344-13.2138 14.2344-10.152 13.9658-7.19775 13.5898-6.12346 12.9452-4.51202 11.8172-3.65259 10.3132-3.65259 8.91661-3.65259 7.84232-4.40459 7.19775-5.74745 6.71432-6.87546 6.39203-9.66862 6.39203-13.2675 6.39203-16.4366 6.6606-19.4984 7.09032-20.5727 7.62746-22.1841 8.80918-23.0972 10.3132-23.0972Z" fill="#4D4D4D" transform="matrix(1 0 0 1.00008 322.587 540.71)"/><path d="M98.5662 1084.86 107.98 1084.86" stroke="#333333" stroke-width="3.66798" stroke-linejoin="round" stroke-miterlimit="10" fill="none" transform="matrix(1 0 0 1.00008 252.181 458)"/><path d="M98.5662 831.299 107.98 831.299" stroke="#333333" stroke-width="3.66798" stroke-linejoin="round" stroke-miterlimit="10" fill="none" transform="matrix(1 0 0 1.00008 252.181 458)"/><path d="M98.5662 577.74 107.98 577.74" stroke="#333333" stroke-width="3.66798" stroke-linejoin="round" stroke-miterlimit="10" fill="none" transform="matrix(1 0 0 1.00008 252.181 458)"/><path d="M98.5662 324.167 107.98 324.167" stroke="#333333" stroke-width="3.66798" stroke-linejoin="round" stroke-miterlimit="10" fill="none" transform="matrix(1 0 0 1.00008 252.181 458)"/><path d="M98.5662 70.6077 107.98 70.6077" stroke="#333333" stroke-width="3.66798" stroke-linejoin="round" stroke-miterlimit="10" fill="none" transform="matrix(1 0 0 1.00008 252.181 458)"/><path d="M378.849 1145.03 378.849 1135.62" stroke="#333333" stroke-width="3.66798" stroke-linejoin="round" stroke-miterlimit="10" fill="none" transform="matrix(1 0 0 1.00008 252.181 458)"/><path d="M937.332 1145.03 937.332 1135.62" stroke="#333333" stroke-width="3.66798" stroke-linejoin="round" stroke-miterlimit="10" fill="none" transform="matrix(1 0 0 1.00008 252.181 458)"/><path d="M1495.82 1145.03 1495.82 1135.62" stroke="#333333" stroke-width="3.66798" stroke-linejoin="round" stroke-miterlimit="10" fill="none" transform="matrix(1 0 0 1.00008 252.181 458)"/><path d="M19.3372-4.72688 8.00346-4.72688C8.70175-6.17717 9.50747-6.98289 13.4823-9.77604 18.1018-13.2138 19.4984-15.2012 19.4984-18.8538 19.4984-24.0641 15.8995-27.3944 10.2595-27.3944 4.72688-27.3944 1.45029-24.0641 1.45029-18.4241L1.45029-17.4572 6.55317-17.4572 6.55317-18.3167C6.55317-21.3247 8.00346-23.0435 10.4206-23.0435 12.7303-23.0435 14.1806-21.4321 14.1806-18.7464 14.1806-15.7921 13.2675-14.6641 7.30518-10.4206 2.73944-7.35889 1.34286-4.99545 1.12801 0L19.3372 0Z" fill="#4D4D4D" transform="matrix(1 0 0 1.00008 610.403 1638.22)"/><path d="M10.3132-27.3944C7.46632-27.3944 4.99545-26.159 3.38402-23.9567 1.82629-21.8618 1.07429-18.4778 1.07429-13.2138 1.07429-8.4869 1.71886-5.15659 3.00801-3.11544 4.56573-0.537145 7.19775 0.859432 10.3132 0.859432 13.2138 0.859432 15.6309-0.322287 17.2961-2.52458 18.8001-4.61945 19.5521-8.05718 19.5521-13.1063 19.5521-17.9944 18.9612-21.3247 17.6721-23.4195 16.0606-25.9978 13.4823-27.3944 10.3132-27.3944ZM10.3132-23.0972C11.7098-23.0972 12.7841-22.3452 13.4286-20.9487 13.9658-19.8207 14.2344-16.9201 14.2344-13.2138 14.2344-10.152 13.9658-7.19775 13.5898-6.12346 12.9452-4.51202 11.8172-3.65259 10.3132-3.65259 8.91661-3.65259 7.84232-4.40459 7.19775-5.74745 6.71432-6.87546 6.39203-9.66862 6.39203-13.2675 6.39203-16.4366 6.6606-19.4984 7.09032-20.5727 7.62746-22.1841 8.80918-23.0972 10.3132-23.0972Z" fill="#4D4D4D" transform="matrix(1 0 0 1.00008 631.029 1638.22)"/><path d="M8.21832-11.9783C10.2595-11.9783 10.3669-11.9783 11.2801-11.7098 13.1063-11.2263 14.2344-9.66862 14.2344-7.73489 14.2344-5.31774 12.5692-3.65259 10.2595-3.65259 7.73489-3.65259 6.39203-5.10288 6.23089-7.84232L1.07429-7.84232C1.12801-2.47087 4.61945 0.859432 10.152 0.859432 15.8458 0.859432 19.4984-2.47087 19.4984-7.73489 19.4984-10.8503 18.1555-12.8915 15.1475-14.3955 17.5647-15.8995 18.6389-17.6184 18.6389-20.0892 18.6389-24.5475 15.3086-27.3944 10.152-27.3944 6.23089-27.3944 3.27659-25.6755 2.09487-22.775 1.61144-21.4858 1.45029-20.6264 1.45029-18.3704L6.33831-18.3704C6.39203-19.8207 6.49946-20.5189 6.76803-21.2172 7.25146-22.399 8.4869-23.0972 10.0446-23.0972 12.1395-23.0972 13.3749-21.8081 13.3749-19.6058 13.3749-16.8664 11.8172-15.5235 8.64804-15.5235L8.21832-15.5235Z" fill="#4D4D4D" transform="matrix(1 0 0 1.00008 1168.89 1638.22)"/><path d="M10.3132-27.3944C7.46632-27.3944 4.99545-26.159 3.38402-23.9567 1.82629-21.8618 1.07429-18.4778 1.07429-13.2138 1.07429-8.4869 1.71886-5.15659 3.00801-3.11544 4.56573-0.537145 7.19775 0.859432 10.3132 0.859432 13.2138 0.859432 15.6309-0.322287 17.2961-2.52458 18.8001-4.61945 19.5521-8.05718 19.5521-13.1063 19.5521-17.9944 18.9612-21.3247 17.6721-23.4195 16.0606-25.9978 13.4823-27.3944 10.3132-27.3944ZM10.3132-23.0972C11.7098-23.0972 12.7841-22.3452 13.4286-20.9487 13.9658-19.8207 14.2344-16.9201 14.2344-13.2138 14.2344-10.152 13.9658-7.19775 13.5898-6.12346 12.9452-4.51202 11.8172-3.65259 10.3132-3.65259 8.91661-3.65259 7.84232-4.40459 7.19775-5.74745 6.71432-6.87546 6.39203-9.66862 6.39203-13.2675 6.39203-16.4366 6.6606-19.4984 7.09032-20.5727 7.62746-22.1841 8.80918-23.0972 10.3132-23.0972Z" fill="#4D4D4D" transform="matrix(1 0 0 1.00008 1189.51 1638.22)"/><path d="M19.7132-10.3132 16.9201-10.3132 16.9201-26.8036 10.6892-26.8036 0.913147-10.4206 0.913147-5.96231 11.6561-5.96231 11.6561 0 16.9201 0 16.9201-5.96231 19.7132-5.96231ZM11.6561-10.3132 4.67316-10.3132 11.6561-21.8081Z" fill="#4D4D4D" transform="matrix(1 0 0 1.00008 1727.37 1638.22)"/><path d="M10.3132-27.3944C7.46632-27.3944 4.99545-26.159 3.38402-23.9567 1.82629-21.8618 1.07429-18.4778 1.07429-13.2138 1.07429-8.4869 1.71886-5.15659 3.00801-3.11544 4.56573-0.537145 7.19775 0.859432 10.3132 0.859432 13.2138 0.859432 15.6309-0.322287 17.2961-2.52458 18.8001-4.61945 19.5521-8.05718 19.5521-13.1063 19.5521-17.9944 18.9612-21.3247 17.6721-23.4195 16.0606-25.9978 13.4823-27.3944 10.3132-27.3944ZM10.3132-23.0972C11.7098-23.0972 12.7841-22.3452 13.4286-20.9487 13.9658-19.8207 14.2344-16.9201 14.2344-13.2138 14.2344-10.152 13.9658-7.19775 13.5898-6.12346 12.9452-4.51202 11.8172-3.65259 10.3132-3.65259 8.91661-3.65259 7.84232-4.40459 7.19775-5.74745 6.71432-6.87546 6.39203-9.66862 6.39203-13.2675 6.39203-16.4366 6.6606-19.4984 7.09032-20.5727 7.62746-22.1841 8.80918-23.0972 10.3132-23.0972Z" fill="#4D4D4D" transform="matrix(1 0 0 1.00008 1748 1638.22)"/></g></g></g><text font-family="Arial,Arial_MSFontService,sans-serif" font-weight="700" font-size="48" transform="matrix(1 0 0 1 1151.99 1716)">DMA (years)</text><text font-family="Cambria Math,Cambria Math_MSFontService,sans-serif" font-weight="400" font-size="41" transform="matrix(-1.83697e-16 -1 1 -1.83697e-16 249.832 1083)">ğ</text><text font-family="Cambria Math,Cambria Math_MSFontService,sans-serif" font-weight="400" font-size="41" transform="matrix(-1.83697e-16 -1 1 -1.83697e-16 249.832 1051)"> </text><text font-family="Cambria Math,Cambria Math_MSFontService,sans-serif" font-weight="400" font-size="41" transform="matrix(-1.83697e-16 -1 1 -1.83697e-16 249.832 1042)">(</text><text font-family="Cambria Math,Cambria Math_MSFontService,sans-serif" font-weight="400" font-size="41" transform="matrix(-1.83697e-16 -1 1 -1.83697e-16 249.832 1025)">%</text><text font-family="Cambria Math,Cambria Math_MSFontService,sans-serif" font-weight="400" font-size="41" transform="matrix(-1.83697e-16 -1 1 -1.83697e-16 249.832 988)">)</text><text font-family="Arial,Arial_MSFontService,sans-serif" font-weight="400" font-size="37" transform="matrix(1 0 0 1 285.541 1554)">00</text><text font-family="Arial,Arial_MSFontService,sans-serif" font-weight="400" font-size="37" transform="matrix(1 0 0 1 285.541 1301)">25</text><text font-family="Arial,Arial_MSFontService,sans-serif" font-weight="400" font-size="37" transform="matrix(1 0 0 1 285.541 1048)">50</text><text font-family="Arial,Arial_MSFontService,sans-serif" font-weight="400" font-size="37" transform="matrix(1 0 0 1 285.541 795)">75</text><text font-family="Arial,Arial_MSFontService,sans-serif" font-weight="400" font-size="37" transform="matrix(1 0 0 1 264.916 542)">100</text><text font-family="Arial,Arial_MSFontService,sans-serif" font-weight="400" font-size="37" transform="matrix(1 0 0 1 611.375 1647)">20</text><text font-family="Arial,Arial_MSFontService,sans-serif" font-weight="400" font-size="37" transform="matrix(1 0 0 1 1170.05 1647)">30</text><text font-family="Arial,Arial_MSFontService,sans-serif" font-weight="400" font-size="37" transform="matrix(1 0 0 1 1728.73 1647)">40</text></g></svg>